STARTFONT 2.1
COMMENT
COMMENT Converted from OpenType font "WCL-06.ttf" by "otf2bdf_tool 3.0".
COMMENT
FONT -FreeType-HanWangWCL06-Medium-R-Normal--17-120-100-100-P-139-ISO10646-1
SIZE 12 100 100
FONTBOUNDINGBOX 534 18 -268 -4
STARTPROPERTIES 19
FOUNDRY "FreeType"
FAMILY_NAME "HanWangWCL06"
WEIGHT_NAME "Medium"
SLANT "R"
SETWIDTH_NAME "Normal"
ADD_STYLE_NAME ""
PIXEL_SIZE 17
POINT_SIZE 120
RESOLUTION_X 100
RESOLUTION_Y 100
SPACING "P"
AVERAGE_WIDTH 139
CHARSET_REGISTRY "ISO10646"
CHARSET_ENCODING "1"
FONT_ASCENT 13
FONT_DESCENT 3
COPYRIGHT "(C)Copyright Dr. Hann-Tzong Wang, 1999-2004."
_OTF_FONTFILE "WCL-06.ttf"
_OTF_PSNAME "HanWangWCL06"
ENDPROPERTIES
CHARS 14062
STARTCHAR 0000
ENCODING 0
SWIDTH 480 0
DWIDTH 8 0
BBX 0 0 0 0
BITMAP
ENDCHAR
STARTCHAR 0001
ENCODING 1
SWIDTH 480 0
DWIDTH 8 0
BBX 0 0 0 0
BITMAP
ENDCHAR
STARTCHAR 0002
ENCODING 2
SWIDTH 480 0
DWIDTH 8 0
BBX 0 0 0 0
BITMAP
ENDCHAR
STARTCHAR 0003
ENCODING 3
SWIDTH 480 0
DWIDTH 8 0
BBX 0 0 0 0
BITMAP
ENDCHAR
STARTCHAR 0004
ENCODING 4
SWIDTH 480 0
DWIDTH 8 0
BBX 0 0 0 0
BITMAP
ENDCHAR
STARTCHAR 0005
ENCODING 5
SWIDTH 480 0
DWIDTH 8 0
BBX 0 0 0 0
BITMAP
ENDCHAR
STARTCHAR 0006
ENCODING 6
SWIDTH 480 0
DWIDTH 8 0
BBX 0 0 0 0
BITMAP
ENDCHAR
STARTCHAR 0007
ENCODING 7
SWIDTH 480 0
DWIDTH 8 0
BBX 0 0 0 0
BITMAP
ENDCHAR
STARTCHAR 0008
ENCODING 8
SWIDTH 480 0
DWIDTH 8 0
BBX 0 0 0 0
BITMAP
ENDCHAR
STARTCHAR 0009
ENCODING 9
SWIDTH 480 0
DWIDTH 8 0
BBX 0 0 0 0
BITMAP
ENDCHAR
STARTCHAR 000A
ENCODING 10
SWIDTH 480 0
DWIDTH 8 0
BBX 0 0 0 0
BITMAP
ENDCHAR
STARTCHAR 000B
ENCODING 11
SWIDTH 480 0
DWIDTH 8 0
BBX 0 0 0 0
BITMAP
ENDCHAR
STARTCHAR 000C
ENCODING 12
SWIDTH 480 0
DWIDTH 8 0
BBX 0 0 0 0
BITMAP
ENDCHAR
STARTCHAR 000D
ENCODING 13
SWIDTH 480 0
DWIDTH 8 0
BBX 0 0 0 0
BITMAP
ENDCHAR
STARTCHAR 000E
ENCODING 14
SWIDTH 480 0
DWIDTH 8 0
BBX 0 0 0 0
BITMAP
ENDCHAR
STARTCHAR 000F
ENCODING 15
SWIDTH 480 0
DWIDTH 8 0
BBX 0 0 0 0
BITMAP
ENDCHAR
STARTCHAR 0010
ENCODING 16
SWIDTH 480 0
DWIDTH 8 0
BBX 0 0 0 0
BITMAP
ENDCHAR
STARTCHAR 0011
ENCODING 17
SWIDTH 480 0
DWIDTH 8 0
BBX 0 0 0 0
BITMAP
ENDCHAR
STARTCHAR 0012
ENCODING 18
SWIDTH 480 0
DWIDTH 8 0
BBX 0 0 0 0
BITMAP
ENDCHAR
STARTCHAR 0013
ENCODING 19
SWIDTH 480 0
DWIDTH 8 0
BBX 0 0 0 0
BITMAP
ENDCHAR
STARTCHAR 0014
ENCODING 20
SWIDTH 480 0
DWIDTH 8 0
BBX 0 0 0 0
BITMAP
ENDCHAR
STARTCHAR 0015
ENCODING 21
SWIDTH 480 0
DWIDTH 8 0
BBX 0 0 0 0
BITMAP
ENDCHAR
STARTCHAR 0016
ENCODING 22
SWIDTH 480 0
DWIDTH 8 0
BBX 0 0 0 0
BITMAP
ENDCHAR
STARTCHAR 0017
ENCODING 23
SWIDTH 480 0
DWIDTH 8 0
BBX 0 0 0 0
BITMAP
ENDCHAR
STARTCHAR 0018
ENCODING 24
SWIDTH 480 0
DWIDTH 8 0
BBX 0 0 0 0
BITMAP
ENDCHAR
STARTCHAR 0019
ENCODING 25
SWIDTH 480 0
DWIDTH 8 0
BBX 0 0 0 0
BITMAP
ENDCHAR
STARTCHAR 001A
ENCODING 26
SWIDTH 480 0
DWIDTH 8 0
BBX 0 0 0 0
BITMAP
ENDCHAR
STARTCHAR 001B
ENCODING 27
SWIDTH 480 0
DWIDTH 8 0
BBX 0 0 0 0
BITMAP
ENDCHAR
STARTCHAR 001C
ENCODING 28
SWIDTH 480 0
DWIDTH 8 0
BBX 0 0 0 0
BITMAP
ENDCHAR
STARTCHAR 001D
ENCODING 29
SWIDTH 480 0
DWIDTH 8 0
BBX 0 0 0 0
BITMAP
ENDCHAR
STARTCHAR 001E
ENCODING 30
SWIDTH 480 0
DWIDTH 8 0
BBX 0 0 0 0
BITMAP
ENDCHAR
STARTCHAR 001F
ENCODING 31
SWIDTH 480 0
DWIDTH 8 0
BBX 0 0 0 0
BITMAP
ENDCHAR
STARTCHAR 0020
ENCODING 32
SWIDTH 480 0
DWIDTH 8 0
BBX 0 0 0 0
BITMAP
ENDCHAR
STARTCHAR 0021
ENCODING 33
SWIDTH 180 0
DWIDTH 3 0
BBX 1 11 2 0
BITMAP
80
80
80
80
80
80
80
80
00
00
80
ENDCHAR
STARTCHAR 0022
ENCODING 34
SWIDTH 240 0
DWIDTH 4 0
BBX 3 5 1 8
BITMAP
A0
A0
A0
A0
A0
ENDCHAR
STARTCHAR 0023
ENCODING 35
SWIDTH 660 0
DWIDTH 11 0
BBX 9 13 2 0
BITMAP
0900
0900
0A00
1200
7F80
1200
2400
2400
FF00
2800
4800
4800
4800
ENDCHAR
STARTCHAR 0024
ENCODING 36
SWIDTH 420 0
DWIDTH 7 0
BBX 5 13 2 -1
BITMAP
20
78
A8
A8
A0
60
30
28
28
A8
A8
F0
20
ENDCHAR
STARTCHAR 0025
ENCODING 37
SWIDTH 660 0
DWIDTH 11 0
BBX 10 11 2 0
BITMAP
E100
9200
9200
9400
9400
6B80
0A40
1440
1440
2240
2380
ENDCHAR
STARTCHAR 0026
ENCODING 38
SWIDTH 660 0
DWIDTH 11 0
BBX 10 11 2 0
BITMAP
7C00
4400
8400
8000
8000
FFC0
8140
8100
8100
4100
3E00
ENDCHAR
STARTCHAR 0027
ENCODING 39
SWIDTH 120 0
DWIDTH 2 0
BBX 1 5 1 8
BITMAP
80
80
80
80
80
ENDCHAR
STARTCHAR 0028
ENCODING 40
SWIDTH 180 0
DWIDTH 3 0
BBX 2 13 2 -2
BITMAP
40
80
80
80
80
80
80
80
80
80
80
80
C0
ENDCHAR
STARTCHAR 0029
ENCODING 41
SWIDTH 180 0
DWIDTH 3 0
BBX 2 13 1 -2
BITMAP
80
40
40
40
40
40
40
40
40
40
40
80
80
ENDCHAR
STARTCHAR 002A
ENCODING 42
SWIDTH 300 0
DWIDTH 5 0
BBX 3 4 2 7
BITMAP
C0
40
E0
C0
ENDCHAR
STARTCHAR 002B
ENCODING 43
SWIDTH 720 0
DWIDTH 12 0
BBX 8 11 3 0
BITMAP
10
10
10
10
10
FF
10
10
10
10
10
ENDCHAR
STARTCHAR 002C
ENCODING 44
SWIDTH 180 0
DWIDTH 3 0
BBX 2 4 1 -2
BITMAP
40
80
80
80
ENDCHAR
STARTCHAR 002D
ENCODING 45
SWIDTH 300 0
DWIDTH 5 0
BBX 4 1 1 3
BITMAP
F0
ENDCHAR
STARTCHAR 002E
ENCODING 46
SWIDTH 180 0
DWIDTH 3 0
BBX 1 1 2 1
BITMAP
80
ENDCHAR
STARTCHAR 002F
ENCODING 47
SWIDTH 180 0
DWIDTH 3 0
BBX 3 12 1 -1
BITMAP
20
20
40
40
40
40
40
80
80
80
80
80
ENDCHAR
STARTCHAR 0030
ENCODING 48
SWIDTH 420 0
DWIDTH 7 0
BBX 6 11 2 0
BITMAP
70
88
88
88
84
84
84
88
88
88
70
ENDCHAR
STARTCHAR 0031
ENCODING 49
SWIDTH 420 0
DWIDTH 7 0
BBX 4 11 2 0
BITMAP
20
60
A0
20
20
20
20
20
20
20
70
ENDCHAR
STARTCHAR 0032
ENCODING 50
SWIDTH 420 0
DWIDTH 7 0
BBX 5 11 2 0
BITMAP
F0
88
88
08
10
20
40
80
88
88
F8
ENDCHAR
STARTCHAR 0033
ENCODING 51
SWIDTH 420 0
DWIDTH 7 0
BBX 5 11 2 0
BITMAP
F0
88
88
08
30
10
08
08
88
88
F0
ENDCHAR
STARTCHAR 0034
ENCODING 52
SWIDTH 420 0
DWIDTH 7 0
BBX 6 11 2 0
BITMAP
10
30
50
50
90
90
90
7C
10
10
38
ENDCHAR
STARTCHAR 0035
ENCODING 53
SWIDTH 420 0
DWIDTH 7 0
BBX 5 11 2 0
BITMAP
F8
80
80
80
F0
88
08
08
88
88
F0
ENDCHAR
STARTCHAR 0036
ENCODING 54
SWIDTH 420 0
DWIDTH 7 0
BBX 6 11 2 0
BITMAP
78
88
88
80
F8
88
84
84
88
88
70
ENDCHAR
STARTCHAR 0037
ENCODING 55
SWIDTH 420 0
DWIDTH 7 0
BBX 5 11 2 0
BITMAP
F8
88
88
10
10
10
20
20
20
20
40
ENDCHAR
STARTCHAR 0038
ENCODING 56
SWIDTH 420 0
DWIDTH 7 0
BBX 6 11 2 0
BITMAP
78
88
88
88
50
70
88
84
84
88
70
ENDCHAR
STARTCHAR 0039
ENCODING 57
SWIDTH 420 0
DWIDTH 7 0
BBX 6 11 2 1
BITMAP
78
88
88
88
84
8C
78
08
88
88
F0
ENDCHAR
STARTCHAR 003A
ENCODING 58
SWIDTH 180 0
DWIDTH 3 0
BBX 1 7 2 1
BITMAP
80
00
00
00
00
00
80
ENDCHAR
STARTCHAR 003B
ENCODING 59
SWIDTH 180 0
DWIDTH 3 0
BBX 2 9 1 -1
BITMAP
40
00
00
00
00
40
80
80
80
ENDCHAR
STARTCHAR 003C
ENCODING 60
SWIDTH 720 0
DWIDTH 12 0
BBX 8 9 3 1
BITMAP
01
06
18
60
80
60
18
06
01
ENDCHAR
STARTCHAR 003D
ENCODING 61
SWIDTH 720 0
DWIDTH 12 0
BBX 8 1 3 4
BITMAP
FF
ENDCHAR
STARTCHAR 003E
ENCODING 62
SWIDTH 720 0
DWIDTH 12 0
BBX 8 9 3 1
BITMAP
80
60
18
06
01
06
18
60
80
ENDCHAR
STARTCHAR 003F
ENCODING 63
SWIDTH 360 0
DWIDTH 6 0
BBX 5 11 2 0
BITMAP
F0
88
88
08
10
20
40
40
00
00
40
ENDCHAR
STARTCHAR 0040
ENCODING 64
SWIDTH 840 0
DWIDTH 14 0
BBX 12 16 2 -3
BITMAP
0780
1860
2020
4010
4750
8890
8890
9890
9090
9110
9320
8CC0
4000
2020
18C0
0700
ENDCHAR
STARTCHAR 0041
ENCODING 65
SWIDTH 540 0
DWIDTH 9 0
BBX 9 11 1 0
BITMAP
0800
1400
1400
1400
2200
2200
3E00
4200
4100
4100
E380
ENDCHAR
STARTCHAR 0042
ENCODING 66
SWIDTH 480 0
DWIDTH 8 0
BBX 7 11 1 0
BITMAP
FC
22
22
22
24
3C
22
22
22
22
FC
ENDCHAR
STARTCHAR 0043
ENCODING 67
SWIDTH 480 0
DWIDTH 8 0
BBX 7 11 2 0
BITMAP
7E
42
82
80
80
80
80
80
82
42
3E
ENDCHAR
STARTCHAR 0044
ENCODING 68
SWIDTH 600 0
DWIDTH 10 0
BBX 9 11 1 0
BITMAP
FE00
2100
2180
2080
2080
2080
2080
2080
2100
2300
FC00
ENDCHAR
STARTCHAR 0045
ENCODING 69
SWIDTH 420 0
DWIDTH 7 0
BBX 7 11 1 0
BITMAP
FE
42
42
48
48
38
48
40
42
42
FE
ENDCHAR
STARTCHAR 0046
ENCODING 70
SWIDTH 420 0
DWIDTH 7 0
BBX 7 11 1 0
BITMAP
FE
42
44
48
48
38
48
40
40
40
F0
ENDCHAR
STARTCHAR 0047
ENCODING 71
SWIDTH 600 0
DWIDTH 10 0
BBX 8 11 2 1
BITMAP
7E
42
82
80
80
80
87
82
82
42
3E
ENDCHAR
STARTCHAR 0048
ENCODING 72
SWIDTH 600 0
DWIDTH 10 0
BBX 10 11 1 0
BITMAP
F3C0
2100
2100
2100
2100
3F00
2100
2100
2100
2080
F3C0
ENDCHAR
STARTCHAR 0049
ENCODING 73
SWIDTH 240 0
DWIDTH 4 0
BBX 3 11 1 0
BITMAP
E0
40
40
40
40
40
40
40
40
40
E0
ENDCHAR
STARTCHAR 004A
ENCODING 74
SWIDTH 360 0
DWIDTH 6 0
BBX 5 11 1 0
BITMAP
38
10
10
10
10
10
10
10
90
90
E0
ENDCHAR
STARTCHAR 004B
ENCODING 75
SWIDTH 480 0
DWIDTH 8 0
BBX 8 11 1 0
BITMAP
F7
24
28
28
30
30
28
28
24
22
F7
ENDCHAR
STARTCHAR 004C
ENCODING 76
SWIDTH 420 0
DWIDTH 7 0
BBX 7 11 1 0
BITMAP
F0
40
40
40
40
40
40
40
42
42
FE
ENDCHAR
STARTCHAR 004D
ENCODING 77
SWIDTH 660 0
DWIDTH 11 0
BBX 11 11 1 0
BITMAP
E0E0
2140
5140
5140
5140
5240
4A40
4A40
4A40
4C40
F5E0
ENDCHAR
STARTCHAR 004E
ENCODING 78
SWIDTH 540 0
DWIDTH 9 0
BBX 9 11 1 0
BITMAP
E380
6100
5100
5100
4900
4900
4900
4500
4500
4300
E300
ENDCHAR
STARTCHAR 004F
ENCODING 79
SWIDTH 600 0
DWIDTH 10 0
BBX 8 11 2 1
BITMAP
7C
42
82
81
81
81
81
81
82
42
3C
ENDCHAR
STARTCHAR 0050
ENCODING 80
SWIDTH 420 0
DWIDTH 7 0
BBX 7 11 1 0
BITMAP
FC
44
42
42
44
38
40
40
40
40
F0
ENDCHAR
STARTCHAR 0051
ENCODING 81
SWIDTH 600 0
DWIDTH 10 0
BBX 8 13 2 -1
BITMAP
7C
42
81
81
81
81
81
81
82
42
3C
0C
03
ENDCHAR
STARTCHAR 0052
ENCODING 82
SWIDTH 480 0
DWIDTH 8 0
BBX 8 11 1 0
BITMAP
FC
22
22
22
24
3C
24
22
22
22
F3
ENDCHAR
STARTCHAR 0053
ENCODING 83
SWIDTH 420 0
DWIDTH 7 0
BBX 6 11 2 0
BITMAP
78
88
88
80
60
38
08
04
84
88
F0
ENDCHAR
STARTCHAR 0054
ENCODING 84
SWIDTH 480 0
DWIDTH 8 0
BBX 8 11 1 0
BITMAP
FF
91
91
10
10
10
10
10
10
10
3C
ENDCHAR
STARTCHAR 0055
ENCODING 85
SWIDTH 540 0
DWIDTH 9 0
BBX 9 11 1 0
BITMAP
E380
4100
4100
4100
4100
4100
4100
4100
4200
2200
1C00
ENDCHAR
STARTCHAR 0056
ENCODING 86
SWIDTH 540 0
DWIDTH 9 0
BBX 9 11 1 0
BITMAP
E380
4100
4200
4200
2200
2400
2400
1400
1400
1800
0800
ENDCHAR
STARTCHAR 0057
ENCODING 87
SWIDTH 720 0
DWIDTH 12 0
BBX 13 11 1 0
BITMAP
E238
4610
4620
4520
2920
2920
2940
28C0
28C0
10C0
10C0
ENDCHAR
STARTCHAR 0058
ENCODING 88
SWIDTH 540 0
DWIDTH 9 0
BBX 9 11 1 0
BITMAP
E700
4200
2400
1400
1800
0800
1400
2400
2200
4100
E780
ENDCHAR
STARTCHAR 0059
ENCODING 89
SWIDTH 480 0
DWIDTH 8 0
BBX 8 11 1 0
BITMAP
E7
42
24
24
18
18
08
08
08
08
3C
ENDCHAR
STARTCHAR 005A
ENCODING 90
SWIDTH 420 0
DWIDTH 7 0
BBX 6 11 1 0
BITMAP
FC
84
84
08
10
10
20
20
44
84
FC
ENDCHAR
STARTCHAR 005B
ENCODING 91
SWIDTH 180 0
DWIDTH 3 0
BBX 2 12 2 -1
BITMAP
C0
80
80
80
80
80
80
80
80
80
80
C0
ENDCHAR
STARTCHAR 005C
ENCODING 92
SWIDTH 180 0
DWIDTH 3 0
BBX 3 12 1 -1
BITMAP
80
80
80
80
80
80
40
40
40
40
20
20
ENDCHAR
STARTCHAR 005D
ENCODING 93
SWIDTH 180 0
DWIDTH 3 0
BBX 2 12 1 -1
BITMAP
C0
40
40
40
40
40
40
40
40
40
40
C0
ENDCHAR
STARTCHAR 005E
ENCODING 94
SWIDTH 840 0
DWIDTH 14 0
BBX 9 5 4 8
BITMAP
0800
1400
2200
4100
8180
ENDCHAR
STARTCHAR 005F
ENCODING 95
SWIDTH 360 0
DWIDTH 6 0
BBX 6 1 1 -4
BITMAP
FC
ENDCHAR
STARTCHAR 0060
ENCODING 96
SWIDTH 360 0
DWIDTH 6 0
BBX 2 3 3 9
BITMAP
80
80
40
ENDCHAR
STARTCHAR 0061
ENCODING 97
SWIDTH 360 0
DWIDTH 6 0
BBX 6 8 1 0
BITMAP
78
48
08
38
48
88
48
74
ENDCHAR
STARTCHAR 0062
ENCODING 98
SWIDTH 420 0
DWIDTH 7 0
BBX 7 11 1 0
BITMAP
C0
40
40
58
64
44
42
44
44
44
F8
ENDCHAR
STARTCHAR 0063
ENCODING 99
SWIDTH 360 0
DWIDTH 6 0
BBX 5 8 1 0
BITMAP
38
48
80
80
80
80
48
30
ENDCHAR
STARTCHAR 0064
ENCODING 100
SWIDTH 420 0
DWIDTH 7 0
BBX 7 11 1 0
BITMAP
0C
04
04
34
4C
44
84
84
44
44
3E
ENDCHAR
STARTCHAR 0065
ENCODING 101
SWIDTH 360 0
DWIDTH 6 0
BBX 6 8 1 0
BITMAP
38
48
84
84
F8
80
44
38
ENDCHAR
STARTCHAR 0066
ENCODING 102
SWIDTH 240 0
DWIDTH 4 0
BBX 4 11 1 0
BITMAP
70
40
40
E0
40
40
40
40
40
40
E0
ENDCHAR
STARTCHAR 0067
ENCODING 103
SWIDTH 420 0
DWIDTH 7 0
BBX 7 11 1 -3
BITMAP
36
4C
44
84
84
44
4C
34
04
84
78
ENDCHAR
STARTCHAR 0068
ENCODING 104
SWIDTH 420 0
DWIDTH 7 0
BBX 7 11 1 0
BITMAP
C0
40
40
5C
64
44
44
44
44
44
EE
ENDCHAR
STARTCHAR 0069
ENCODING 105
SWIDTH 180 0
DWIDTH 3 0
BBX 2 11 1 0
BITMAP
40
00
00
C0
40
40
40
40
40
40
C0
ENDCHAR
STARTCHAR 006A
ENCODING 106
SWIDTH 180 0
DWIDTH 3 0
BBX 3 14 0 -3
BITMAP
20
00
00
60
20
20
20
20
20
20
20
20
A0
C0
ENDCHAR
STARTCHAR 006B
ENCODING 107
SWIDTH 360 0
DWIDTH 6 0
BBX 6 11 1 0
BITMAP
C0
40
40
58
50
60
60
60
50
48
EC
ENDCHAR
STARTCHAR 006C
ENCODING 108
SWIDTH 180 0
DWIDTH 3 0
BBX 2 11 1 0
BITMAP
C0
40
40
40
40
40
40
40
40
40
C0
ENDCHAR
STARTCHAR 006D
ENCODING 109
SWIDTH 720 0
DWIDTH 12 0
BBX 12 8 1 0
BITMAP
DDC0
6620
4220
4220
4220
4220
4220
E770
ENDCHAR
STARTCHAR 006E
ENCODING 110
SWIDTH 420 0
DWIDTH 7 0
BBX 7 8 1 0
BITMAP
DC
64
44
44
44
44
44
EE
ENDCHAR
STARTCHAR 006F
ENCODING 111
SWIDTH 420 0
DWIDTH 7 0
BBX 5 8 2 0
BITMAP
70
88
88
88
88
88
88
70
ENDCHAR
STARTCHAR 0070
ENCODING 112
SWIDTH 420 0
DWIDTH 7 0
BBX 6 11 1 -3
BITMAP
D8
64
44
44
44
44
44
78
40
40
E0
ENDCHAR
STARTCHAR 0071
ENCODING 113
SWIDTH 420 0
DWIDTH 7 0
BBX 6 11 2 -3
BITMAP
6C
98
88
88
88
88
88
78
08
08
1C
ENDCHAR
STARTCHAR 0072
ENCODING 114
SWIDTH 300 0
DWIDTH 5 0
BBX 4 8 1 0
BITMAP
F0
50
40
40
40
40
40
E0
ENDCHAR
STARTCHAR 0073
ENCODING 115
SWIDTH 300 0
DWIDTH 5 0
BBX 5 8 1 0
BITMAP
78
88
80
60
10
88
88
70
ENDCHAR
STARTCHAR 0074
ENCODING 116
SWIDTH 240 0
DWIDTH 4 0
BBX 3 10 1 0
BITMAP
40
40
E0
40
40
40
40
40
60
60
ENDCHAR
STARTCHAR 0075
ENCODING 117
SWIDTH 420 0
DWIDTH 7 0
BBX 7 8 1 0
BITMAP
CC
44
44
44
44
44
44
3E
ENDCHAR
STARTCHAR 0076
ENCODING 118
SWIDTH 360 0
DWIDTH 6 0
BBX 6 8 1 0
BITMAP
EC
88
48
48
50
30
30
10
ENDCHAR
STARTCHAR 0077
ENCODING 119
SWIDTH 600 0
DWIDTH 10 0
BBX 10 8 1 0
BITMAP
E4C0
4C80
4C80
5480
5280
3300
3300
2100
ENDCHAR
STARTCHAR 0078
ENCODING 120
SWIDTH 420 0
DWIDTH 7 0
BBX 6 8 1 0
BITMAP
CC
48
30
30
30
48
48
CC
ENDCHAR
STARTCHAR 0079
ENCODING 121
SWIDTH 360 0
DWIDTH 6 0
BBX 6 11 1 -3
BITMAP
CC
84
48
48
50
30
30
20
20
20
70
ENDCHAR
STARTCHAR 007A
ENCODING 122
SWIDTH 360 0
DWIDTH 6 0
BBX 5 8 1 0
BITMAP
F8
88
10
20
20
40
88
F8
ENDCHAR
STARTCHAR 007B
ENCODING 123
SWIDTH 360 0
DWIDTH 6 0
BBX 4 15 2 -2
BITMAP
30
20
20
20
20
20
40
80
40
20
20
20
20
20
10
ENDCHAR
STARTCHAR 007C
ENCODING 124
SWIDTH 360 0
DWIDTH 6 0
BBX 1 18 4 -4
BITMAP
80
80
80
80
80
80
80
80
80
80
80
80
80
80
80
80
80
80
ENDCHAR
STARTCHAR 007D
ENCODING 125
SWIDTH 360 0
DWIDTH 6 0
BBX 4 15 2 -2
BITMAP
C0
40
20
20
20
20
20
10
20
20
20
20
40
40
C0
ENDCHAR
STARTCHAR 007E
ENCODING 126
SWIDTH 720 0
DWIDTH 12 0
BBX 10 3 2 4
BITMAP
2040
DC80
8300
ENDCHAR
STARTCHAR 007F
ENCODING 127
SWIDTH 480 0
DWIDTH 8 0
BBX 0 0 0 0
BITMAP
ENDCHAR
STARTCHAR 0080
ENCODING 128
SWIDTH 480 0
DWIDTH 8 0
BBX 0 0 0 0
BITMAP
ENDCHAR
STARTCHAR 0081
ENCODING 129
SWIDTH 480 0
DWIDTH 8 0
BBX 0 0 0 0
BITMAP
ENDCHAR
STARTCHAR 0082
ENCODING 130
SWIDTH 480 0
DWIDTH 8 0
BBX 0 0 0 0
BITMAP
ENDCHAR
STARTCHAR 0083
ENCODING 131
SWIDTH 480 0
DWIDTH 8 0
BBX 0 0 0 0
BITMAP
ENDCHAR
STARTCHAR 0084
ENCODING 132
SWIDTH 480 0
DWIDTH 8 0
BBX 0 0 0 0
BITMAP
ENDCHAR
STARTCHAR 0085
ENCODING 133
SWIDTH 480 0
DWIDTH 8 0
BBX 0 0 0 0
BITMAP
ENDCHAR
STARTCHAR 0086
ENCODING 134
SWIDTH 480 0
DWIDTH 8 0
BBX 0 0 0 0
BITMAP
ENDCHAR
STARTCHAR 0087
ENCODING 135
SWIDTH 480 0
DWIDTH 8 0
BBX 0 0 0 0
BITMAP
ENDCHAR
STARTCHAR 0088
ENCODING 136
SWIDTH 480 0
DWIDTH 8 0
BBX 0 0 0 0
BITMAP
ENDCHAR
STARTCHAR 0089
ENCODING 137
SWIDTH 480 0
DWIDTH 8 0
BBX 0 0 0 0
BITMAP
ENDCHAR
STARTCHAR 008A
ENCODING 138
SWIDTH 480 0
DWIDTH 8 0
BBX 0 0 0 0
BITMAP
ENDCHAR
STARTCHAR 008B
ENCODING 139
SWIDTH 480 0
DWIDTH 8 0
BBX 0 0 0 0
BITMAP
ENDCHAR
STARTCHAR 008C
ENCODING 140
SWIDTH 480 0
DWIDTH 8 0
BBX 0 0 0 0
BITMAP
ENDCHAR
STARTCHAR 008D
ENCODING 141
SWIDTH 480 0
DWIDTH 8 0
BBX 0 0 0 0
BITMAP
ENDCHAR
STARTCHAR 008E
ENCODING 142
SWIDTH 480 0
DWIDTH 8 0
BBX 0 0 0 0
BITMAP
ENDCHAR
STARTCHAR 008F
ENCODING 143
SWIDTH 480 0
DWIDTH 8 0
BBX 0 0 0 0
BITMAP
ENDCHAR
STARTCHAR 0090
ENCODING 144
SWIDTH 480 0
DWIDTH 8 0
BBX 0 0 0 0
BITMAP
ENDCHAR
STARTCHAR 0091
ENCODING 145
SWIDTH 480 0
DWIDTH 8 0
BBX 0 0 0 0
BITMAP
ENDCHAR
STARTCHAR 0092
ENCODING 146
SWIDTH 480 0
DWIDTH 8 0
BBX 0 0 0 0
BITMAP
ENDCHAR
STARTCHAR 0093
ENCODING 147
SWIDTH 480 0
DWIDTH 8 0
BBX 0 0 0 0
BITMAP
ENDCHAR
STARTCHAR 0094
ENCODING 148
SWIDTH 480 0
DWIDTH 8 0
BBX 0 0 0 0
BITMAP
ENDCHAR
STARTCHAR 0095
ENCODING 149
SWIDTH 480 0
DWIDTH 8 0
BBX 0 0 0 0
BITMAP
ENDCHAR
STARTCHAR 0096
ENCODING 150
SWIDTH 480 0
DWIDTH 8 0
BBX 0 0 0 0
BITMAP
ENDCHAR
STARTCHAR 0097
ENCODING 151
SWIDTH 480 0
DWIDTH 8 0
BBX 0 0 0 0
BITMAP
ENDCHAR
STARTCHAR 0098
ENCODING 152
SWIDTH 480 0
DWIDTH 8 0
BBX 0 0 0 0
BITMAP
ENDCHAR
STARTCHAR 0099
ENCODING 153
SWIDTH 480 0
DWIDTH 8 0
BBX 0 0 0 0
BITMAP
ENDCHAR
STARTCHAR 009A
ENCODING 154
SWIDTH 480 0
DWIDTH 8 0
BBX 0 0 0 0
BITMAP
ENDCHAR
STARTCHAR 009B
ENCODING 155
SWIDTH 480 0
DWIDTH 8 0
BBX 0 0 0 0
BITMAP
ENDCHAR
STARTCHAR 009C
ENCODING 156
SWIDTH 480 0
DWIDTH 8 0
BBX 0 0 0 0
BITMAP
ENDCHAR
STARTCHAR 009D
ENCODING 157
SWIDTH 480 0
DWIDTH 8 0
BBX 0 0 0 0
BITMAP
ENDCHAR
STARTCHAR 009E
ENCODING 158
SWIDTH 480 0
DWIDTH 8 0
BBX 0 0 0 0
BITMAP
ENDCHAR
STARTCHAR 009F
ENCODING 159
SWIDTH 480 0
DWIDTH 8 0
BBX 0 0 0 0
BITMAP
ENDCHAR
STARTCHAR 00A0
ENCODING 160
SWIDTH 480 0
DWIDTH 8 0
BBX 0 0 0 0
BITMAP
ENDCHAR
STARTCHAR 00A7
ENCODING 167
SWIDTH 1020 0
DWIDTH 17 0
BBX 7 14 5 -2
BITMAP
18
66
C6
40
30
4E
82
C2
74
1C
86
82
C6
38
ENDCHAR
STARTCHAR 00A8
ENCODING 168
SWIDTH 1020 0
DWIDTH 17 0
BBX 5 2 6 11
BITMAP
98
D8
ENDCHAR
STARTCHAR 00AF
ENCODING 175
SWIDTH 1020 0
DWIDTH 17 0
BBX 17 1 0 13
BITMAP
FFFF80
ENDCHAR
STARTCHAR 00B0
ENCODING 176
SWIDTH 1020 0
DWIDTH 17 0
BBX 4 4 1 9
BITMAP
60
90
90
60
ENDCHAR
STARTCHAR 00B1
ENCODING 177
SWIDTH 1020 0
DWIDTH 17 0
BBX 12 12 2 0
BITMAP
0200
0200
0200
0200
FFF0
0200
0200
0200
0200
0000
0000
FFF0
ENDCHAR
STARTCHAR 00B7
ENCODING 183
SWIDTH 1020 0
DWIDTH 17 0
BBX 2 2 3 4
BITMAP
C0
C0
ENDCHAR
STARTCHAR 00D7
ENCODING 215
SWIDTH 1020 0
DWIDTH 17 0
BBX 10 10 3 0
BITMAP
8040
4080
2100
1200
0C00
0C00
1200
2100
4080
8040
ENDCHAR
STARTCHAR 00F7
ENCODING 247
SWIDTH 1020 0
DWIDTH 17 0
BBX 11 9 3 1
BITMAP
0800
0C00
0400
0000
0000
FFE0
0000
0C00
0C00
ENDCHAR
STARTCHAR 00F8
ENCODING 248
SWIDTH 1020 0
DWIDTH 17 0
BBX 0 0 0 0
BITMAP
ENDCHAR
STARTCHAR 014B
ENCODING 331
SWIDTH 1020 0
DWIDTH 17 0
BBX 0 0 0 0
BITMAP
ENDCHAR
STARTCHAR 0153
ENCODING 339
SWIDTH 1020 0
DWIDTH 17 0
BBX 0 0 0 0
BITMAP
ENDCHAR
STARTCHAR 0250
ENCODING 592
SWIDTH 1020 0
DWIDTH 17 0
BBX 0 0 0 0
BITMAP
ENDCHAR
STARTCHAR 0254
ENCODING 596
SWIDTH 1020 0
DWIDTH 17 0
BBX 0 0 0 0
BITMAP
ENDCHAR
STARTCHAR 025B
ENCODING 603
SWIDTH 1020 0
DWIDTH 17 0
BBX 0 0 0 0
BITMAP
ENDCHAR
STARTCHAR 026A
ENCODING 618
SWIDTH 1020 0
DWIDTH 17 0
BBX 0 0 0 0
BITMAP
ENDCHAR
STARTCHAR 0275
ENCODING 629
SWIDTH 1020 0
DWIDTH 17 0
BBX 0 0 0 0
BITMAP
ENDCHAR
STARTCHAR 0283
ENCODING 643
SWIDTH 1020 0
DWIDTH 17 0
BBX 0 0 0 0
BITMAP
ENDCHAR
STARTCHAR 028A
ENCODING 650
SWIDTH 1020 0
DWIDTH 17 0
BBX 0 0 0 0
BITMAP
ENDCHAR
STARTCHAR 02C6
ENCODING 710
SWIDTH 1020 0
DWIDTH 17 0
BBX 5 2 6 10
BITMAP
70
D8
ENDCHAR
STARTCHAR 02C7
ENCODING 711
SWIDTH 1020 0
DWIDTH 17 0
BBX 9 9 4 0
BITMAP
8080
8080
C100
4300
6200
2600
3400
1C00
1800
ENDCHAR
STARTCHAR 02C9
ENCODING 713
SWIDTH 1020 0
DWIDTH 17 0
BBX 0 0 0 0
BITMAP
ENDCHAR
STARTCHAR 02CA
ENCODING 714
SWIDTH 1020 0
DWIDTH 17 0
BBX 8 8 5 1
BITMAP
03
02
0C
18
30
70
E0
C0
ENDCHAR
STARTCHAR 02CB
ENCODING 715
SWIDTH 1020 0
DWIDTH 17 0
BBX 8 8 4 1
BITMAP
60
E0
30
18
0C
06
03
01
ENDCHAR
STARTCHAR 02CD
ENCODING 717
SWIDTH 1020 0
DWIDTH 17 0
BBX 17 1 0 -3
BITMAP
FFFF80
ENDCHAR
STARTCHAR 02D9
ENCODING 729
SWIDTH 1020 0
DWIDTH 17 0
BBX 5 6 6 2
BITMAP
20
78
F8
F8
78
20
ENDCHAR
STARTCHAR 0391
ENCODING 913
SWIDTH 1020 0
DWIDTH 17 0
BBX 12 13 2 -1
BITMAP
0200
0200
0700
0500
0900
0980
1080
1F80
10C0
2040
2060
2020
F0F0
ENDCHAR
STARTCHAR 0392
ENCODING 914
SWIDTH 1020 0
DWIDTH 17 0
BBX 10 13 3 -1
BITMAP
FE00
2180
2080
20C0
2080
2100
3F00
20C0
2040
2040
20C0
2080
FF00
ENDCHAR
STARTCHAR 0393
ENCODING 915
SWIDTH 1020 0
DWIDTH 17 0
BBX 9 13 4 -1
BITMAP
FF00
6180
6080
6080
6000
6000
6000
6000
6000
6000
6000
6000
F000
ENDCHAR
STARTCHAR 0394
ENCODING 916
SWIDTH 1020 0
DWIDTH 17 0
BBX 11 13 3 -1
BITMAP
0400
0400
0E00
1200
1200
2100
2100
2180
4080
40C0
8040
8040
FFE0
ENDCHAR
STARTCHAR 0395
ENCODING 917
SWIDTH 1020 0
DWIDTH 17 0
BBX 10 13 3 -1
BITMAP
7F80
A0C0
2040
2040
2200
2200
3E00
2200
2200
2040
2040
20C0
FF80
ENDCHAR
STARTCHAR 0396
ENCODING 918
SWIDTH 1020 0
DWIDTH 17 0
BBX 9 13 4 -1
BITMAP
7F80
4100
8300
8200
0400
0C00
0800
1000
3000
2080
4080
C180
FF00
ENDCHAR
STARTCHAR 0397
ENCODING 919
SWIDTH 1020 0
DWIDTH 17 0
BBX 12 13 2 -1
BITMAP
F8F0
2060
2060
2060
2060
2060
3FE0
2060
2060
2060
2060
2060
F8F0
ENDCHAR
STARTCHAR 0398
ENCODING 920
SWIDTH 1020 0
DWIDTH 17 0
BBX 11 13 3 -1
BITMAP
1E00
2180
4040
4040
8060
8020
FFE0
8020
C060
4040
40C0
2180
1E00
ENDCHAR
STARTCHAR 0399
ENCODING 921
SWIDTH 1020 0
DWIDTH 17 0
BBX 5 13 6 -1
BITMAP
F0
28
20
20
20
20
20
20
20
20
20
20
F8
ENDCHAR
STARTCHAR 039A
ENCODING 922
SWIDTH 1020 0
DWIDTH 17 0
BBX 12 13 2 -1
BITMAP
78F0
A040
2080
2100
2200
2400
2A00
3300
2100
2080
20C0
2060
F8F0
ENDCHAR
STARTCHAR 039B
ENCODING 923
SWIDTH 1020 0
DWIDTH 17 0
BBX 12 13 2 -1
BITMAP
0200
0200
0700
0700
0900
0980
0880
1080
10C0
1040
2040
2060
F0F0
ENDCHAR
STARTCHAR 039C
ENCODING 924
SWIDTH 1020 0
DWIDTH 17 0
BBX 14 13 1 -1
BITMAP
E01C
3018
5038
5038
5858
4858
4C98
4498
4498
4718
4318
4218
F23C
ENDCHAR
STARTCHAR 039D
ENCODING 925
SWIDTH 1020 0
DWIDTH 17 0
BBX 12 13 2 -1
BITMAP
60F0
B020
3820
2820
2C20
2620
2220
2320
21A0
20A0
2060
2060
F020
ENDCHAR
STARTCHAR 039E
ENCODING 926
SWIDTH 1020 0
DWIDTH 17 0
BBX 9 13 4 -1
BITMAP
7F00
FF00
8100
0000
0000
8100
7F00
8100
0000
0000
8080
FF80
FF80
ENDCHAR
STARTCHAR 039F
ENCODING 927
SWIDTH 1020 0
DWIDTH 17 0
BBX 11 13 3 -1
BITMAP
0E00
3180
4040
4040
C060
C020
C020
C020
C060
4040
6040
2080
1F00
ENDCHAR
STARTCHAR 03A0
ENCODING 928
SWIDTH 1020 0
DWIDTH 17 0
BBX 10 13 3 -1
BITMAP
FFC0
2080
2080
2080
2080
2080
2080
2080
2080
2080
2080
2080
FBC0
ENDCHAR
STARTCHAR 03A1
ENCODING 929
SWIDTH 1020 0
DWIDTH 17 0
BBX 9 13 4 -1
BITMAP
FC00
4300
4180
4080
4080
4180
7E00
4000
4000
4000
4000
4000
F000
ENDCHAR
STARTCHAR 03A3
ENCODING 931
SWIDTH 1020 0
DWIDTH 17 0
BBX 9 13 4 -1
BITMAP
FF80
4080
6080
3000
1000
1800
0800
0800
1000
2080
4080
7F80
FF80
ENDCHAR
STARTCHAR 03A4
ENCODING 932
SWIDTH 1020 0
DWIDTH 17 0
BBX 11 13 3 -1
BITMAP
7FC0
C460
8420
0400
0400
0400
0400
0400
0400
0400
0400
0400
1F00
ENDCHAR
STARTCHAR 03A5
ENCODING 933
SWIDTH 1020 0
DWIDTH 17 0
BBX 9 13 4 -1
BITMAP
6300
9480
0800
0800
0800
0800
0800
0800
0800
0800
0800
0800
3E00
ENDCHAR
STARTCHAR 03A6
ENCODING 934
SWIDTH 1020 0
DWIDTH 17 0
BBX 11 13 3 -1
BITMAP
1F00
0400
3F80
4440
8460
8420
8420
8420
8460
4440
2580
1E00
1F00
ENDCHAR
STARTCHAR 03A7
ENCODING 935
SWIDTH 1020 0
DWIDTH 17 0
BBX 12 13 2 -1
BITMAP
78F0
1040
1880
0880
0D00
0600
0200
0700
0900
0880
10C0
2040
F9F0
ENDCHAR
STARTCHAR 03A8
ENCODING 936
SWIDTH 1020 0
DWIDTH 17 0
BBX 12 13 2 -1
BITMAP
EF30
22E0
2260
2240
2240
2240
2240
1240
12C0
0F00
0200
0200
0F80
ENDCHAR
STARTCHAR 03A9
ENCODING 937
SWIDTH 1020 0
DWIDTH 17 0
BBX 11 13 3 -1
BITMAP
1F00
6080
4040
8060
8020
8020
8060
4040
4040
2080
A140
9240
F1C0
ENDCHAR
STARTCHAR 03B1
ENCODING 945
SWIDTH 1020 0
DWIDTH 17 0
BBX 9 9 4 -1
BITMAP
1C80
2280
4300
4300
8200
8200
8600
8A80
7300
ENDCHAR
STARTCHAR 03B2
ENCODING 946
SWIDTH 1020 0
DWIDTH 17 0
BBX 10 15 3 -3
BITMAP
0380
0440
0840
0840
1040
1080
1700
2080
2080
2080
2080
5180
4E00
4000
C000
ENDCHAR
STARTCHAR 03B3
ENCODING 947
SWIDTH 1020 0
DWIDTH 17 0
BBX 8 11 4 -3
BITMAP
61
52
94
88
08
10
10
10
10
30
20
ENDCHAR
STARTCHAR 03B4
ENCODING 948
SWIDTH 1020 0
DWIDTH 17 0
BBX 9 13 4 -1
BITMAP
0C00
1300
1080
0800
0400
3A00
4200
4100
C100
8300
8200
4400
3800
ENDCHAR
STARTCHAR 03B5
ENCODING 949
SWIDTH 1020 0
DWIDTH 17 0
BBX 7 9 5 -1
BITMAP
3C
42
40
38
44
80
80
C4
78
ENDCHAR
STARTCHAR 03B6
ENCODING 950
SWIDTH 1020 0
DWIDTH 17 0
BBX 8 15 5 -3
BITMAP
20
23
66
38
20
40
40
80
80
80
80
C0
70
08
F0
ENDCHAR
STARTCHAR 03B7
ENCODING 951
SWIDTH 1020 0
DWIDTH 17 0
BBX 7 11 5 -3
BITMAP
CC
F2
22
22
44
44
44
88
88
08
18
ENDCHAR
STARTCHAR 03B8
ENCODING 952
SWIDTH 1020 0
DWIDTH 17 0
BBX 9 13 4 -1
BITMAP
0700
0900
1080
2080
6080
4080
7F80
C100
8100
8200
8600
4400
3800
ENDCHAR
STARTCHAR 03B9
ENCODING 953
SWIDTH 1020 0
DWIDTH 17 0
BBX 3 9 7 -1
BITMAP
20
60
40
40
80
80
A0
A0
C0
ENDCHAR
STARTCHAR 03BA
ENCODING 954
SWIDTH 1020 0
DWIDTH 17 0
BBX 8 9 4 -1
BITMAP
23
26
28
58
68
48
49
8D
86
ENDCHAR
STARTCHAR 03BB
ENCODING 955
SWIDTH 1020 0
DWIDTH 17 0
BBX 8 13 5 -1
BITMAP
60
50
08
08
08
08
18
18
28
48
48
85
83
ENDCHAR
STARTCHAR 03BC
ENCODING 956
SWIDTH 1020 0
DWIDTH 17 0
BBX 10 11 3 -3
BITMAP
0880
1080
1080
3180
2100
2100
2200
6640
5980
4000
C000
ENDCHAR
STARTCHAR 03BD
ENCODING 957
SWIDTH 1020 0
DWIDTH 17 0
BBX 7 9 5 -1
BITMAP
C2
42
42
44
44
88
90
E0
80
ENDCHAR
STARTCHAR 03BE
ENCODING 958
SWIDTH 1020 0
DWIDTH 17 0
BBX 8 15 5 -3
BITMAP
10
21
2E
30
20
60
22
1E
60
80
80
C0
38
08
F8
ENDCHAR
STARTCHAR 03BF
ENCODING 959
SWIDTH 1020 0
DWIDTH 17 0
BBX 7 9 5 -1
BITMAP
3C
42
82
82
82
86
84
88
70
ENDCHAR
STARTCHAR 03C0
ENCODING 960
SWIDTH 1020 0
DWIDTH 17 0
BBX 9 9 4 -1
BITMAP
3F80
5200
A400
2400
2400
4800
4800
CA00
8C00
ENDCHAR
STARTCHAR 03C1
ENCODING 961
SWIDTH 1020 0
DWIDTH 17 0
BBX 9 11 4 -3
BITMAP
0F00
1100
2080
2080
4180
4100
C100
A200
9C00
8000
8000
ENDCHAR
STARTCHAR 03C3
ENCODING 963
SWIDTH 1020 0
DWIDTH 17 0
BBX 9 9 4 -1
BITMAP
1F80
6200
4200
8200
8200
8200
8600
8C00
7000
ENDCHAR
STARTCHAR 03C4
ENCODING 964
SWIDTH 1020 0
DWIDTH 17 0
BBX 7 9 5 -1
BITMAP
3E
D0
20
20
20
20
40
68
30
ENDCHAR
STARTCHAR 03C5
ENCODING 965
SWIDTH 1020 0
DWIDTH 17 0
BBX 7 9 5 -1
BITMAP
C4
44
42
42
86
84
8C
98
60
ENDCHAR
STARTCHAR 03C6
ENCODING 966
SWIDTH 1020 0
DWIDTH 17 0
BBX 9 11 4 -3
BITMAP
2700
4480
4880
8880
8880
9100
5100
3E00
1000
1000
2000
ENDCHAR
STARTCHAR 03C7
ENCODING 967
SWIDTH 1020 0
DWIDTH 17 0
BBX 9 11 4 -3
BITMAP
3180
D100
1200
1400
1400
0800
1800
3800
2800
4B00
8600
ENDCHAR
STARTCHAR 03C8
ENCODING 968
SWIDTH 1020 0
DWIDTH 17 0
BBX 9 15 4 -3
BITMAP
0200
0200
0200
0400
3500
4500
4880
8880
8880
8900
5300
3C00
1000
1000
3000
ENDCHAR
STARTCHAR 03C9
ENCODING 969
SWIDTH 1020 0
DWIDTH 17 0
BBX 11 9 3 -1
BITMAP
1040
2020
4020
4020
8C20
8E20
8C60
C8C0
7780
ENDCHAR
STARTCHAR 0401
ENCODING 1025
SWIDTH 1020 0
DWIDTH 17 0
BBX 9 14 4 -1
BITMAP
6300
4200
FF00
4100
4100
4080
4400
4400
7C00
4400
4000
4080
4100
FF00
ENDCHAR
STARTCHAR 0410
ENCODING 1040
SWIDTH 1020 0
DWIDTH 17 0
BBX 12 13 2 -1
BITMAP
0200
0200
0700
0500
0900
0980
1080
1F80
10C0
2040
2060
2060
F0F0
ENDCHAR
STARTCHAR 0411
ENCODING 1041
SWIDTH 1020 0
DWIDTH 17 0
BBX 9 13 4 -1
BITMAP
FF00
4100
4100
4000
4000
4000
7E00
4100
4080
4080
4180
4100
FE00
ENDCHAR
STARTCHAR 0412
ENCODING 1042
SWIDTH 1020 0
DWIDTH 17 0
BBX 10 13 3 -1
BITMAP
FE00
2180
2080
20C0
2080
2100
3F00
20C0
2040
2040
20C0
2080
FF00
ENDCHAR
STARTCHAR 0413
ENCODING 1043
SWIDTH 1020 0
DWIDTH 17 0
BBX 10 13 3 -1
BITMAP
FF80
20C0
2040
2040
2000
2000
2000
2000
2000
2000
2000
2000
F800
ENDCHAR
STARTCHAR 0414
ENCODING 1044
SWIDTH 1020 0
DWIDTH 17 0
BBX 9 14 4 -2
BITMAP
7F80
2100
2100
2100
2100
2100
2100
4100
4100
4100
8100
8100
FF80
8080
ENDCHAR
STARTCHAR 0415
ENCODING 1045
SWIDTH 1020 0
DWIDTH 17 0
BBX 10 13 3 -1
BITMAP
7F80
A0C0
2040
2040
2200
2200
3E00
2200
2200
2040
2040
20C0
FF80
ENDCHAR
STARTCHAR 0416
ENCODING 1046
SWIDTH 1020 0
DWIDTH 17 0
BBX 13 13 2 -1
BITMAP
8F88
4230
4230
6220
6220
2220
1FC0
3260
6220
6220
4230
4230
8F98
ENDCHAR
STARTCHAR 0417
ENCODING 1047
SWIDTH 1020 0
DWIDTH 17 0
BBX 9 13 4 -1
BITMAP
0C00
7300
4100
8100
0100
0200
1E00
0100
C180
8180
8180
4100
3E00
ENDCHAR
STARTCHAR 0418
ENCODING 1048
SWIDTH 1020 0
DWIDTH 17 0
BBX 12 13 2 -1
BITMAP
F8F0
2060
2060
20E0
2160
2260
2260
2460
2860
2860
3060
3060
F8F0
ENDCHAR
STARTCHAR 0419
ENCODING 1049
SWIDTH 1020 0
DWIDTH 17 0
BBX 12 14 2 -1
BITMAP
0880
0700
F8F0
2060
20E0
2160
2260
2260
2460
2460
2860
3060
3060
F8F0
ENDCHAR
STARTCHAR 041A
ENCODING 1050
SWIDTH 1020 0
DWIDTH 17 0
BBX 11 13 3 -1
BITMAP
F0C0
4120
4220
4200
4200
4400
7C00
4200
4300
4100
4100
4120
F0C0
ENDCHAR
STARTCHAR 041B
ENCODING 1051
SWIDTH 1020 0
DWIDTH 17 0
BBX 12 13 2 -1
BITMAP
1FF0
0860
0860
0860
0860
0860
0860
0860
0860
0860
1060
D060
60F0
ENDCHAR
STARTCHAR 041C
ENCODING 1052
SWIDTH 1020 0
DWIDTH 17 0
BBX 14 13 1 -1
BITMAP
E01C
3018
5038
5038
5858
4858
4C98
4498
4498
4718
4318
4218
F23C
ENDCHAR
STARTCHAR 041D
ENCODING 1053
SWIDTH 1020 0
DWIDTH 17 0
BBX 12 13 2 -1
BITMAP
F8F0
2060
2060
2060
2060
2060
3FE0
2060
2060
2060
2060
2060
F8F0
ENDCHAR
STARTCHAR 041E
ENCODING 1054
SWIDTH 1020 0
DWIDTH 17 0
BBX 11 13 3 -1
BITMAP
0E00
3180
40C0
4040
C060
8060
8020
8060
C060
4040
40C0
2180
1E00
ENDCHAR
STARTCHAR 041F
ENCODING 1055
SWIDTH 1020 0
DWIDTH 17 0
BBX 10 13 3 -1
BITMAP
FFC0
2080
2080
2080
2080
2080
2080
2080
2080
2080
2080
2080
FBC0
ENDCHAR
STARTCHAR 0420
ENCODING 1056
SWIDTH 1020 0
DWIDTH 17 0
BBX 9 13 4 -1
BITMAP
FC00
4300
4180
4080
4080
4180
7E00
4000
4000
4000
4000
4000
F000
ENDCHAR
STARTCHAR 0421
ENCODING 1057
SWIDTH 1020 0
DWIDTH 17 0
BBX 9 13 4 -1
BITMAP
1F00
6100
4080
8000
8000
8000
8000
8000
8000
C080
4080
3100
1E00
ENDCHAR
STARTCHAR 0422
ENCODING 1058
SWIDTH 1020 0
DWIDTH 17 0
BBX 11 13 3 -1
BITMAP
7FC0
C460
8420
0400
0400
0400
0400
0400
0400
0400
0400
0400
1F00
ENDCHAR
STARTCHAR 0423
ENCODING 1059
SWIDTH 1020 0
DWIDTH 17 0
BBX 11 13 3 -1
BITMAP
F1E0
6080
2080
2100
1100
1200
0A00
0C00
0C00
0800
0800
5000
6000
ENDCHAR
STARTCHAR 0424
ENCODING 1060
SWIDTH 1020 0
DWIDTH 17 0
BBX 11 13 3 -1
BITMAP
1F00
0400
0E00
3580
4440
C460
C420
C460
4440
64C0
1F00
0400
1F00
ENDCHAR
STARTCHAR 0425
ENCODING 1061
SWIDTH 1020 0
DWIDTH 17 0
BBX 11 13 3 -1
BITMAP
F1E0
2880
3100
1100
0A00
0C00
0400
0E00
1300
1100
2180
4080
F3E0
ENDCHAR
STARTCHAR 0426
ENCODING 1062
SWIDTH 1020 0
DWIDTH 17 0
BBX 10 14 3 -2
BITMAP
73C0
A880
2080
2080
2080
2080
2080
2080
2080
2080
2080
2080
FFC0
0040
ENDCHAR
STARTCHAR 0427
ENCODING 1063
SWIDTH 1020 0
DWIDTH 17 0
BBX 10 13 3 -1
BITMAP
F1C0
6080
6080
6080
6080
6080
6180
2280
1C80
0080
0080
0080
03C0
ENDCHAR
STARTCHAR 0428
ENCODING 1064
SWIDTH 1020 0
DWIDTH 17 0
BBX 14 13 1 -1
BITMAP
7BBC
A518
2118
2118
2118
2118
2118
2118
2118
2118
2118
2118
FFFC
ENDCHAR
STARTCHAR 0429
ENCODING 1065
SWIDTH 1020 0
DWIDTH 17 0
BBX 14 14 1 -2
BITMAP
7BBC
A518
2118
2118
2118
2118
2118
2118
2118
2118
2118
2118
FFFC
0004
ENDCHAR
STARTCHAR 042A
ENCODING 1066
SWIDTH 1020 0
DWIDTH 17 0
BBX 12 13 2 -1
BITMAP
7E00
C800
8800
8800
0800
0800
0FC0
0830
0810
0810
0810
0820
1FC0
ENDCHAR
STARTCHAR 042B
ENCODING 1067
SWIDTH 1020 0
DWIDTH 17 0
BBX 14 13 1 -1
BITMAP
F83C
2018
2018
2018
2018
2018
3F18
2098
2058
2058
20D8
2098
FF3C
ENDCHAR
STARTCHAR 042C
ENCODING 1068
SWIDTH 1020 0
DWIDTH 17 0
BBX 9 13 4 -1
BITMAP
F000
4000
4000
4000
4000
4000
7E00
4100
4080
4080
4080
4100
FE00
ENDCHAR
STARTCHAR 042D
ENCODING 1069
SWIDTH 1020 0
DWIDTH 17 0
BBX 9 13 4 -1
BITMAP
1C00
6200
8100
8080
0080
0080
1F80
0080
8080
C180
8100
4300
3C00
ENDCHAR
STARTCHAR 042E
ENCODING 1070
SWIDTH 1020 0
DWIDTH 17 0
BBX 13 13 2 -1
BITMAP
F1C0
4220
4410
4C18
4808
4808
7808
4808
4808
4C18
4410
4220
F1C0
ENDCHAR
STARTCHAR 042F
ENCODING 1071
SWIDTH 1020 0
DWIDTH 17 0
BBX 11 13 3 -1
BITMAP
0FE0
30C0
20C0
40C0
60C0
20C0
1FC0
10C0
10C0
30C0
20C0
2080
E1E0
ENDCHAR
STARTCHAR 0430
ENCODING 1072
SWIDTH 1020 0
DWIDTH 17 0
BBX 7 9 5 -1
BITMAP
78
84
84
0C
74
84
84
8C
76
ENDCHAR
STARTCHAR 0431
ENCODING 1073
SWIDTH 1020 0
DWIDTH 17 0
BBX 7 13 5 -1
BITMAP
02
04
38
40
B8
C4
82
82
82
82
82
44
38
ENDCHAR
STARTCHAR 0432
ENCODING 1074
SWIDTH 1020 0
DWIDTH 17 0
BBX 7 9 5 -1
BITMAP
FC
44
46
44
7C
42
42
46
F8
ENDCHAR
STARTCHAR 0433
ENCODING 1075
SWIDTH 1020 0
DWIDTH 17 0
BBX 7 9 5 -1
BITMAP
FE
42
42
40
40
40
40
40
E0
ENDCHAR
STARTCHAR 0434
ENCODING 1076
SWIDTH 1020 0
DWIDTH 17 0
BBX 8 10 4 -2
BITMAP
3F
22
22
22
22
22
22
42
FF
81
ENDCHAR
STARTCHAR 0435
ENCODING 1077
SWIDTH 1020 0
DWIDTH 17 0
BBX 7 9 5 -1
BITMAP
38
44
82
FE
80
80
C2
44
38
ENDCHAR
STARTCHAR 0436
ENCODING 1078
SWIDTH 1020 0
DWIDTH 17 0
BBX 12 9 2 -1
BITMAP
6730
2220
2220
2240
1F80
2240
2220
2220
C730
ENDCHAR
STARTCHAR 0437
ENCODING 1079
SWIDTH 1020 0
DWIDTH 17 0
BBX 7 9 5 -1
BITMAP
78
84
84
0C
34
02
82
84
78
ENDCHAR
STARTCHAR 0438
ENCODING 1080
SWIDTH 1020 0
DWIDTH 17 0
BBX 7 9 5 -1
BITMAP
EE
44
5C
54
64
64
64
44
EE
ENDCHAR
STARTCHAR 0439
ENCODING 1081
SWIDTH 1020 0
DWIDTH 17 0
BBX 7 11 5 -1
BITMAP
48
30
EE
44
5C
54
54
64
64
44
EE
ENDCHAR
STARTCHAR 043A
ENCODING 1082
SWIDTH 1020 0
DWIDTH 17 0
BBX 8 9 4 -1
BITMAP
E7
45
48
48
74
44
44
44
E3
ENDCHAR
STARTCHAR 043B
ENCODING 1083
SWIDTH 1020 0
DWIDTH 17 0
BBX 8 9 4 -1
BITMAP
3F
12
12
12
12
12
12
A2
67
ENDCHAR
STARTCHAR 043C
ENCODING 1084
SWIDTH 1020 0
DWIDTH 17 0
BBX 9 9 4 -1
BITMAP
C180
4100
A300
A500
A500
9500
9900
9900
D380
ENDCHAR
STARTCHAR 043D
ENCODING 1085
SWIDTH 1020 0
DWIDTH 17 0
BBX 7 9 5 -1
BITMAP
EE
44
44
44
7C
44
44
44
EE
ENDCHAR
STARTCHAR 043E
ENCODING 1086
SWIDTH 1020 0
DWIDTH 17 0
BBX 7 9 5 -1
BITMAP
38
44
82
82
82
82
82
44
38
ENDCHAR
STARTCHAR 043F
ENCODING 1087
SWIDTH 1020 0
DWIDTH 17 0
BBX 7 9 5 -1
BITMAP
FE
44
44
44
44
44
44
44
EE
ENDCHAR
STARTCHAR 0440
ENCODING 1088
SWIDTH 1020 0
DWIDTH 17 0
BBX 7 11 5 -3
BITMAP
DC
64
42
42
42
42
42
44
78
40
E0
ENDCHAR
STARTCHAR 0441
ENCODING 1089
SWIDTH 1020 0
DWIDTH 17 0
BBX 7 9 5 -1
BITMAP
3C
46
80
80
80
80
C2
64
38
ENDCHAR
STARTCHAR 0442
ENCODING 1090
SWIDTH 1020 0
DWIDTH 17 0
BBX 7 9 5 -1
BITMAP
FE
92
92
10
10
10
10
10
38
ENDCHAR
STARTCHAR 0443
ENCODING 1091
SWIDTH 1020 0
DWIDTH 17 0
BBX 9 11 4 -3
BITMAP
F380
6200
2200
2400
1400
1400
1800
0800
1000
1000
6000
ENDCHAR
STARTCHAR 0444
ENCODING 1092
SWIDTH 1020 0
DWIDTH 17 0
BBX 9 15 4 -3
BITMAP
0800
1800
0800
0800
6B00
9C80
8880
8880
8880
8880
8880
8880
7F00
0800
1C00
ENDCHAR
STARTCHAR 0445
ENCODING 1093
SWIDTH 1020 0
DWIDTH 17 0
BBX 9 9 4 -1
BITMAP
F780
2200
3400
1800
0800
1400
2600
4200
E780
ENDCHAR
STARTCHAR 0446
ENCODING 1094
SWIDTH 1020 0
DWIDTH 17 0
BBX 7 10 5 -2
BITMAP
EE
44
44
44
44
44
44
44
FE
02
ENDCHAR
STARTCHAR 0447
ENCODING 1095
SWIDTH 1020 0
DWIDTH 17 0
BBX 8 9 4 -1
BITMAP
E7
42
42
42
42
2E
12
02
07
ENDCHAR
STARTCHAR 0448
ENCODING 1096
SWIDTH 1020 0
DWIDTH 17 0
BBX 11 9 3 -1
BITMAP
EEE0
4440
4440
4440
4440
4440
4440
4440
FFE0
ENDCHAR
STARTCHAR 0449
ENCODING 1097
SWIDTH 1020 0
DWIDTH 17 0
BBX 11 10 3 -2
BITMAP
EEE0
4440
4440
4440
4440
4440
4440
4440
FFE0
0020
ENDCHAR
STARTCHAR 044A
ENCODING 1098
SWIDTH 1020 0
DWIDTH 17 0
BBX 9 9 4 -1
BITMAP
F800
9000
9000
1000
1F00
1080
1080
1180
3E00
ENDCHAR
STARTCHAR 044B
ENCODING 1099
SWIDTH 1020 0
DWIDTH 17 0
BBX 10 9 3 -1
BITMAP
E1C0
4080
4080
4080
7C80
4280
42C0
46C0
F8C0
ENDCHAR
STARTCHAR 044C
ENCODING 1100
SWIDTH 1020 0
DWIDTH 17 0
BBX 7 9 5 -1
BITMAP
E0
40
40
40
7C
42
42
46
F8
ENDCHAR
STARTCHAR 044D
ENCODING 1101
SWIDTH 1020 0
DWIDTH 17 0
BBX 7 9 5 -1
BITMAP
B8
C4
82
02
3E
02
86
84
78
ENDCHAR
STARTCHAR 044E
ENCODING 1102
SWIDTH 1020 0
DWIDTH 17 0
BBX 10 9 3 -1
BITMAP
E380
4480
4840
4840
7840
4840
4440
4480
6300
ENDCHAR
STARTCHAR 044F
ENCODING 1103
SWIDTH 1020 0
DWIDTH 17 0
BBX 8 9 4 -1
BITMAP
3F
42
42
22
1E
22
22
22
E7
ENDCHAR
STARTCHAR 0451
ENCODING 1105
SWIDTH 1020 0
DWIDTH 17 0
BBX 7 11 5 -1
BITMAP
44
00
38
44
82
FE
80
80
C2
44
38
ENDCHAR
STARTCHAR 2013
ENCODING 8211
SWIDTH 1020 0
DWIDTH 17 0
BBX 6 1 5 5
BITMAP
FC
ENDCHAR
STARTCHAR 2014
ENCODING 8212
SWIDTH 1020 0
DWIDTH 17 0
BBX 15 1 1 5
BITMAP
FFFE
ENDCHAR
STARTCHAR 2018
ENCODING 8216
SWIDTH 1020 0
DWIDTH 17 0
BBX 2 4 14 9
BITMAP
40
80
80
C0
ENDCHAR
STARTCHAR 2019
ENCODING 8217
SWIDTH 1020 0
DWIDTH 17 0
BBX 2 4 1 9
BITMAP
40
C0
40
80
ENDCHAR
STARTCHAR 201C
ENCODING 8220
SWIDTH 1020 0
DWIDTH 17 0
BBX 5 4 11 9
BITMAP
48
90
D8
D8
ENDCHAR
STARTCHAR 201D
ENCODING 8221
SWIDTH 1020 0
DWIDTH 17 0
BBX 5 4 1 9
BITMAP
48
D8
48
90
ENDCHAR
STARTCHAR 2025
ENCODING 8229
SWIDTH 1020 0
DWIDTH 17 0
BBX 11 2 3 4
BITMAP
C060
C060
ENDCHAR
STARTCHAR 2026
ENCODING 8230
SWIDTH 1020 0
DWIDTH 17 0
BBX 13 2 2 5
BITMAP
C618
C618
ENDCHAR
STARTCHAR 2027
ENCODING 8231
SWIDTH 1020 0
DWIDTH 17 0
BBX 3 3 7 3
BITMAP
E0
E0
E0
ENDCHAR
STARTCHAR 2032
ENCODING 8242
SWIDTH 1020 0
DWIDTH 17 0
BBX 5 3 6 10
BITMAP
18
70
80
ENDCHAR
STARTCHAR 2035
ENCODING 8245
SWIDTH 1020 0
DWIDTH 17 0
BBX 5 2 6 11
BITMAP
C0
78
ENDCHAR
STARTCHAR 203B
ENCODING 8251
SWIDTH 1020 0
DWIDTH 17 0
BBX 13 12 2 -1
BITMAP
C718
2720
1240
0880
4520
E238
E338
0480
0840
1620
2710
C708
ENDCHAR
STARTCHAR 2103
ENCODING 8451
SWIDTH 1020 0
DWIDTH 17 0
BBX 13 14 1 -2
BITMAP
6000
9000
93F0
6410
0C08
0800
0800
0800
0800
0800
0800
0C08
0610
03E0
ENDCHAR
STARTCHAR 2105
ENCODING 8453
SWIDTH 1020 0
DWIDTH 17 0
BBX 15 16 1 -3
BITMAP
1000
6C04
8808
8010
8020
8040
4480
3900
0278
0484
0882
1082
2082
4082
8044
0038
ENDCHAR
STARTCHAR 2109
ENCODING 8457
SWIDTH 1020 0
DWIDTH 17 0
BBX 14 14 1 -1
BITMAP
6000
9000
97FC
6304
0304
0320
0320
03E0
0320
0320
0300
0300
0300
0780
ENDCHAR
STARTCHAR 2116
ENCODING 8470
SWIDTH 1020 0
DWIDTH 17 0
BBX 16 13 0 -1
BITMAP
C700
6200
6200
6200
5238
52C4
4A84
4A84
4E84
4684
4684
42C5
E23B
ENDCHAR
STARTCHAR 2121
ENCODING 8481
SWIDTH 1020 0
DWIDTH 17 0
BBX 16 13 0 -1
BITMAP
7E02
4B0E
8902
8902
08C2
0932
0B12
0BFA
0A02
0A02
0B12
091A
3CE7
ENDCHAR
STARTCHAR 2160
ENCODING 8544
SWIDTH 1020 0
DWIDTH 17 0
BBX 5 12 6 -1
BITMAP
F8
20
20
20
20
20
20
20
20
20
20
F8
ENDCHAR
STARTCHAR 2161
ENCODING 8545
SWIDTH 1020 0
DWIDTH 17 0
BBX 10 12 3 -1
BITMAP
7FC0
3100
3100
3100
3100
3100
3100
3100
3100
3100
2100
FFC0
ENDCHAR
STARTCHAR 2162
ENCODING 8546
SWIDTH 1020 0
DWIDTH 17 0
BBX 12 12 2 -1
BITMAP
FFF0
2260
2260
2260
2260
2260
2260
2260
2260
2260
2260
FFF0
ENDCHAR
STARTCHAR 2163
ENCODING 8547
SWIDTH 1020 0
DWIDTH 17 0
BBX 14 12 1 -1
BITMAP
7F9C
A308
2108
2108
2190
2090
2090
20D0
20E0
2060
2060
F840
ENDCHAR
STARTCHAR 2164
ENCODING 8548
SWIDTH 1020 0
DWIDTH 17 0
BBX 13 12 2 -1
BITMAP
F878
3020
3040
1040
1880
0880
0C80
0D00
0500
0700
0600
0200
ENDCHAR
STARTCHAR 2165
ENCODING 8549
SWIDTH 1020 0
DWIDTH 17 0
BBX 15 12 1 -1
BITMAP
F1FC
2088
3108
3108
1108
1108
1A08
0A08
0A08
0C08
0408
043E
ENDCHAR
STARTCHAR 2166
ENCODING 8550
SWIDTH 1020 0
DWIDTH 17 0
BBX 15 12 1 -1
BITMAP
F3FE
6148
6248
2248
2248
3248
1448
1448
1C48
1848
0848
08FE
ENDCHAR
STARTCHAR 2167
ENCODING 8551
SWIDTH 1020 0
DWIDTH 17 0
BBX 15 12 1 -1
BITMAP
E7FE
45A4
45A4
45A4
65A4
29A4
29A4
29A4
29A4
31A4
11A4
13FE
ENDCHAR
STARTCHAR 2168
ENCODING 8552
SWIDTH 1020 0
DWIDTH 17 0
BBX 14 12 1 -1
BITMAP
FF9C
2210
2110
21A0
20A0
20C0
2040
20E0
2120
2210
2218
FF3C
ENDCHAR
STARTCHAR 2169
ENCODING 8553
SWIDTH 1020 0
DWIDTH 17 0
BBX 12 12 2 -1
BITMAP
78F0
1040
1880
0900
0500
0600
0200
0700
0980
1080
20C0
F8F0
ENDCHAR
STARTCHAR 2170
ENCODING 8560
SWIDTH 1020 0
DWIDTH 17 0
BBX 4 12 6 -1
BITMAP
60
60
00
00
E0
20
20
20
20
20
20
F0
ENDCHAR
STARTCHAR 2171
ENCODING 8561
SWIDTH 1020 0
DWIDTH 17 0
BBX 10 12 3 -1
BITMAP
2100
3180
0000
0000
6300
2100
2100
2100
2100
2100
2100
FFC0
ENDCHAR
STARTCHAR 2172
ENCODING 8562
SWIDTH 1020 0
DWIDTH 17 0
BBX 12 12 2 -1
BITMAP
2260
6660
0000
0000
EEE0
2260
2260
2260
2260
2260
2260
FFF0
ENDCHAR
STARTCHAR 2173
ENCODING 8563
SWIDTH 1020 0
DWIDTH 17 0
BBX 12 12 2 -1
BITMAP
2000
6000
0000
0000
EF30
2220
2340
2140
2140
2180
2080
F880
ENDCHAR
STARTCHAR 2174
ENCODING 8564
SWIDTH 1020 0
DWIDTH 17 0
BBX 9 8 4 -1
BITMAP
F380
2200
2200
3400
1400
1800
0800
0800
ENDCHAR
STARTCHAR 2175
ENCODING 8565
SWIDTH 1020 0
DWIDTH 17 0
BBX 13 12 2 -1
BITMAP
0020
0030
0000
0000
E760
4420
2820
2820
2820
1820
1020
1078
ENDCHAR
STARTCHAR 2176
ENCODING 8566
SWIDTH 1020 0
DWIDTH 17 0
BBX 14 12 1 -1
BITMAP
0048
00D8
0000
0000
E6D8
2448
2848
2848
1848
1848
1048
11FC
ENDCHAR
STARTCHAR 2177
ENCODING 8567
SWIDTH 1020 0
DWIDTH 17 0
BBX 15 12 1 -1
BITMAP
012C
01EC
0000
0000
EF6C
5124
7124
3124
3124
3124
3124
23FE
ENDCHAR
STARTCHAR 2178
ENCODING 8568
SWIDTH 1020 0
DWIDTH 17 0
BBX 13 12 2 -1
BITMAP
4000
6000
0000
0000
C7B8
4120
40C0
40C0
40C0
4160
4220
F778
ENDCHAR
STARTCHAR 2179
ENCODING 8569
SWIDTH 1020 0
DWIDTH 17 0
BBX 9 8 4 -1
BITMAP
F380
3200
1C00
0800
1C00
2600
2200
E780
ENDCHAR
STARTCHAR 2190
ENCODING 8592
SWIDTH 1020 0
DWIDTH 17 0
BBX 16 6 1 2
BITMAP
0400
0800
7000
FFFF
0800
0400
ENDCHAR
STARTCHAR 2191
ENCODING 8593
SWIDTH 1020 0
DWIDTH 17 0
BBX 5 15 6 -3
BITMAP
20
20
70
70
A8
20
20
20
20
20
20
20
20
20
20
ENDCHAR
STARTCHAR 2192
ENCODING 8594
SWIDTH 1020 0
DWIDTH 17 0
BBX 15 6 0 2
BITMAP
0040
0030
000E
FFFC
0010
0020
ENDCHAR
STARTCHAR 2193
ENCODING 8595
SWIDTH 1020 0
DWIDTH 17 0
BBX 5 15 6 -2
BITMAP
20
20
20
20
20
20
20
20
20
A8
A8
70
70
20
20
ENDCHAR
STARTCHAR 2196
ENCODING 8598
SWIDTH 1020 0
DWIDTH 17 0
BBX 15 14 1 -2
BITMAP
E000
7800
6400
5000
2800
0400
0200
0100
0080
0040
0020
0010
0008
0006
ENDCHAR
STARTCHAR 2197
ENCODING 8599
SWIDTH 1020 0
DWIDTH 17 0
BBX 15 14 1 -2
BITMAP
000E
003C
0054
0028
0048
0080
0100
0200
0400
0800
1000
2000
4000
8000
ENDCHAR
STARTCHAR 2198
ENCODING 8600
SWIDTH 1020 0
DWIDTH 17 0
BBX 15 14 1 -2
BITMAP
C000
2000
2000
1000
0800
0400
0200
0100
0080
0048
0028
0014
007C
000E
ENDCHAR
STARTCHAR 2199
ENCODING 8601
SWIDTH 1020 0
DWIDTH 17 0
BBX 15 14 1 -2
BITMAP
0006
0008
0010
0020
0040
0080
0100
0200
0400
6800
5000
6000
7C00
C000
ENDCHAR
STARTCHAR 21B8
ENCODING 8632
SWIDTH 1020 0
DWIDTH 17 0
BBX 14 14 1 -2
BITMAP
FFFC
0000
7000
3C00
2A00
2400
1200
0100
0080
0040
0020
0010
0008
0008
ENDCHAR
STARTCHAR 21B9
ENCODING 8633
SWIDTH 1020 0
DWIDTH 17 0
BBX 14 12 1 -1
BITMAP
0400
9800
FFFC
9800
0400
0000
0000
00C4
0034
FFFC
0064
0080
ENDCHAR
STARTCHAR 21E7
ENCODING 8679
SWIDTH 1020 0
DWIDTH 17 0
BBX 9 16 4 -3
BITMAP
0800
1800
2400
2200
4100
8080
6300
2200
2200
2200
2200
2200
2200
2200
2200
3E00
ENDCHAR
STARTCHAR 2215
ENCODING 8725
SWIDTH 1020 0
DWIDTH 17 0
BBX 8 16 4 -3
BITMAP
01
01
02
02
04
04
08
08
08
10
10
20
20
40
40
80
ENDCHAR
STARTCHAR 221A
ENCODING 8730
SWIDTH 1020 0
DWIDTH 17 0
BBX 16 16 1 -3
BITMAP
007F
0080
0080
0080
0100
0100
0200
0200
0400
4400
C800
4800
7000
3000
2000
2000
ENDCHAR
STARTCHAR 221E
ENCODING 8734
SWIDTH 1020 0
DWIDTH 17 0
BBX 13 6 2 3
BITMAP
78F0
8508
8208
8508
4C90
3060
ENDCHAR
STARTCHAR 221F
ENCODING 8735
SWIDTH 1020 0
DWIDTH 17 0
BBX 11 10 3 0
BITMAP
8000
8000
8000
8000
8000
8000
8000
8000
8000
FFE0
ENDCHAR
STARTCHAR 2220
ENCODING 8736
SWIDTH 1020 0
DWIDTH 17 0
BBX 11 10 3 0
BITMAP
0020
0040
0080
0100
0200
0400
0800
1000
2000
FFE0
ENDCHAR
STARTCHAR 2223
ENCODING 8739
SWIDTH 1020 0
DWIDTH 17 0
BBX 1 16 8 -3
BITMAP
80
80
80
80
80
80
80
80
80
80
80
80
80
80
80
80
ENDCHAR
STARTCHAR 2225
ENCODING 8741
SWIDTH 1020 0
DWIDTH 17 0
BBX 4 16 6 -3
BITMAP
90
90
90
90
90
90
90
90
90
90
90
90
90
90
90
90
ENDCHAR
STARTCHAR 2229
ENCODING 8745
SWIDTH 1020 0
DWIDTH 17 0
BBX 9 12 4 -1
BITMAP
3E00
C100
8080
8080
8080
8080
8080
8080
8080
8080
8080
8080
ENDCHAR
STARTCHAR 222A
ENCODING 8746
SWIDTH 1020 0
DWIDTH 17 0
BBX 9 12 4 -1
BITMAP
8080
8080
8080
8080
8080
8080
8080
8080
8080
8080
4100
3E00
ENDCHAR
STARTCHAR 222B
ENCODING 8747
SWIDTH 1020 0
DWIDTH 17 0
BBX 5 16 6 -3
BITMAP
10
78
40
40
40
40
20
20
20
10
10
10
10
10
D0
20
ENDCHAR
STARTCHAR 222E
ENCODING 8750
SWIDTH 1020 0
DWIDTH 17 0
BBX 7 15 5 -2
BITMAP
08
3C
20
20
38
64
92
92
92
8A
4C
38
08
08
78
ENDCHAR
STARTCHAR 2234
ENCODING 8756
SWIDTH 1020 0
DWIDTH 17 0
BBX 12 10 2 0
BITMAP
0600
0200
0000
0000
0000
0000
0000
0000
4030
E030
ENDCHAR
STARTCHAR 2235
ENCODING 8757
SWIDTH 1020 0
DWIDTH 17 0
BBX 11 11 3 0
BITMAP
0040
C060
8020
0000
0000
0000
0000
0000
0000
0C00
0C00
ENDCHAR
STARTCHAR 2252
ENCODING 8786
SWIDTH 1020 0
DWIDTH 17 0
BBX 11 10 3 0
BITMAP
6000
6000
0000
FFE0
0000
0000
FFE0
0000
00C0
00C0
ENDCHAR
STARTCHAR 2260
ENCODING 8800
SWIDTH 1020 0
DWIDTH 17 0
BBX 11 11 3 0
BITMAP
0100
0100
0200
0200
FDE0
0400
0800
FFE0
1000
1000
2000
ENDCHAR
STARTCHAR 2261
ENCODING 8801
SWIDTH 1020 0
DWIDTH 17 0
BBX 11 8 3 1
BITMAP
FFE0
0000
0000
0000
FFE0
0000
0000
FFE0
ENDCHAR
STARTCHAR 2266
ENCODING 8806
SWIDTH 1020 0
DWIDTH 17 0
BBX 11 12 3 -1
BITMAP
0060
0380
0C00
7000
E000
1800
0700
00E0
0000
FFE0
0000
FFE0
ENDCHAR
STARTCHAR 2267
ENCODING 8807
SWIDTH 1020 0
DWIDTH 17 0
BBX 11 12 3 -1
BITMAP
C000
3000
0E00
01C0
00E0
0700
1800
E000
0000
FFE0
0000
FFE0
ENDCHAR
STARTCHAR 2295
ENCODING 8853
SWIDTH 1020 0
DWIDTH 17 0
BBX 13 12 2 -1
BITMAP
0FC0
1220
2210
4208
4208
7FF8
8208
4208
4208
2210
1220
0FC0
ENDCHAR
STARTCHAR 2299
ENCODING 8857
SWIDTH 1020 0
DWIDTH 17 0
BBX 13 12 2 -1
BITMAP
0FC0
1020
2010
4008
4008
8308
8308
4008
4008
2010
1020
0FC0
ENDCHAR
STARTCHAR 22A5
ENCODING 8869
SWIDTH 1020 0
DWIDTH 17 0
BBX 11 10 3 0
BITMAP
0400
0400
0400
0400
0400
0400
0400
0400
0400
FFE0
ENDCHAR
STARTCHAR 22BF
ENCODING 8895
SWIDTH 1020 0
DWIDTH 17 0
BBX 11 10 3 0
BITMAP
0020
0060
00A0
0120
0220
0420
0820
1020
6020
FFE0
ENDCHAR
STARTCHAR 2460
ENCODING 9312
SWIDTH 1020 0
DWIDTH 17 0
BBX 17 16 0 -3
BITMAP
03E000
0C1800
108400
238200
408100
408100
808100
808080
808080
808100
408100
408100
208200
136400
080800
07F000
ENDCHAR
STARTCHAR 2461
ENCODING 9313
SWIDTH 1020 0
DWIDTH 17 0
BBX 17 16 0 -3
BITMAP
03E000
0C1800
11C400
222200
442100
423100
822100
806080
808080
810100
420100
421100
23E200
100400
080800
07F000
ENDCHAR
STARTCHAR 2462
ENCODING 9314
SWIDTH 1020 0
DWIDTH 17 0
BBX 17 16 0 -3
BITMAP
03E000
0C1800
11C400
222200
423100
423100
802100
80C080
802080
801100
421100
441100
222200
11C400
080800
07F000
ENDCHAR
STARTCHAR 2463
ENCODING 9315
SWIDTH 1020 0
DWIDTH 17 0
BBX 17 16 0 -3
BITMAP
03E000
0C1800
104400
204200
40C100
414100
814100
824080
844080
844100
47F100
404100
206200
119400
080800
07F000
ENDCHAR
STARTCHAR 2464
ENCODING 9316
SWIDTH 1020 0
DWIDTH 17 0
BBX 17 16 0 -3
BITMAP
03E000
0C1800
13E400
23E200
420100
420100
82C100
832080
803080
801100
401100
423100
222200
11C400
080800
07F000
ENDCHAR
STARTCHAR 2465
ENCODING 9317
SWIDTH 1020 0
DWIDTH 17 0
BBX 17 16 0 -3
BITMAP
03E000
0C1800
10C400
212200
422100
420100
820100
83E080
823080
821100
421100
423100
212200
10C400
080800
07F000
ENDCHAR
STARTCHAR 2466
ENCODING 9318
SWIDTH 1020 0
DWIDTH 17 0
BBX 17 16 0 -3
BITMAP
03E000
0C1800
13F400
23F200
442100
404100
804100
804080
808080
808100
408100
408100
208200
108400
080800
07F000
ENDCHAR
STARTCHAR 2467
ENCODING 9319
SWIDTH 1020 0
DWIDTH 17 0
BBX 17 16 0 -3
BITMAP
03E000
0C1800
11C400
222200
422100
422100
832100
81C080
826080
823100
461100
421100
222200
11C400
080800
07F000
ENDCHAR
STARTCHAR 2468
ENCODING 9320
SWIDTH 1020 0
DWIDTH 17 0
BBX 17 16 0 -3
BITMAP
03E000
0C1800
10C400
232200
421100
421100
821100
821080
813080
80D100
401100
422100
222200
11C400
080800
07F000
ENDCHAR
STARTCHAR 2469
ENCODING 9321
SWIDTH 1020 0
DWIDTH 17 0
BBX 17 16 0 -3
BITMAP
03E000
0C1800
100400
267A00
464900
464900
864D00
864480
864480
864D00
464900
464900
2F2A00
101400
080800
07F000
ENDCHAR
STARTCHAR 2474
ENCODING 9332
SWIDTH 1020 0
DWIDTH 17 0
BBX 17 14 0 -2
BITMAP
200200
408200
438100
408100
408100
808080
808080
808080
408080
408100
408100
408100
436200
200200
ENDCHAR
STARTCHAR 2475
ENCODING 9333
SWIDTH 1020 0
DWIDTH 17 0
BBX 17 14 0 -2
BITMAP
200200
41C200
463100
441100
421100
803080
802080
80C080
410080
420100
421100
47F100
400200
200200
ENDCHAR
STARTCHAR 2476
ENCODING 9334
SWIDTH 1020 0
DWIDTH 17 0
BBX 17 14 0 -2
BITMAP
200200
41C200
422100
423100
423100
802080
80C080
802080
401080
421100
441100
422100
41C200
200200
ENDCHAR
STARTCHAR 2477
ENCODING 9335
SWIDTH 1020 0
DWIDTH 17 0
BBX 17 14 0 -2
BITMAP
200200
404200
404100
40C100
414100
814080
824080
844080
444080
47F100
404100
404100
41B200
200200
ENDCHAR
STARTCHAR 2478
ENCODING 9336
SWIDTH 1020 0
DWIDTH 17 0
BBX 17 14 0 -2
BITMAP
200200
43E200
420100
440100
440100
84C080
832080
803080
401080
401100
423100
442100
43C200
200200
ENDCHAR
STARTCHAR 2479
ENCODING 9337
SWIDTH 1020 0
DWIDTH 17 0
BBX 17 14 0 -2
BITMAP
200200
40C200
412100
422100
420100
820080
83E080
823080
423080
423100
422100
422100
41C200
200200
ENDCHAR
STARTCHAR 247A
ENCODING 9338
SWIDTH 1020 0
DWIDTH 17 0
BBX 17 14 0 -2
BITMAP
200200
47F200
477100
442100
404100
804080
804080
808080
408080
408100
408100
408100
408200
200200
ENDCHAR
STARTCHAR 247B
ENCODING 9339
SWIDTH 1020 0
DWIDTH 17 0
BBX 17 14 0 -2
BITMAP
200200
41C200
422100
422100
422100
832080
81C080
826080
463080
441100
461100
422100
41C200
200200
ENDCHAR
STARTCHAR 247C
ENCODING 9340
SWIDTH 1020 0
DWIDTH 17 0
BBX 17 14 0 -2
BITMAP
200200
40C200
432100
421100
421100
821080
821080
833080
40D080
401100
422100
422100
41C200
200200
ENDCHAR
STARTCHAR 247D
ENCODING 9341
SWIDTH 1020 0
DWIDTH 17 0
BBX 17 14 0 -2
BITMAP
200200
400200
447900
4C4900
444900
844C80
844C80
844C80
444880
444900
444900
4E2900
411200
200200
ENDCHAR
STARTCHAR 2500
ENCODING 9472
SWIDTH 1020 0
DWIDTH 17 0
BBX 17 1 0 5
BITMAP
FFFF80
ENDCHAR
STARTCHAR 2502
ENCODING 9474
SWIDTH 1020 0
DWIDTH 17 0
BBX 1 16 8 -3
BITMAP
80
80
80
80
80
80
80
80
80
80
80
80
80
80
80
80
ENDCHAR
STARTCHAR 250C
ENCODING 9484
SWIDTH 1020 0
DWIDTH 17 0
BBX 9 8 8 -3
BITMAP
FF80
8000
8000
8000
8000
8000
8000
8000
ENDCHAR
STARTCHAR 2510
ENCODING 9488
SWIDTH 1020 0
DWIDTH 17 0
BBX 9 8 0 -3
BITMAP
FF80
0080
0080
0080
0080
0080
0080
0080
ENDCHAR
STARTCHAR 2514
ENCODING 9492
SWIDTH 1020 0
DWIDTH 17 0
BBX 9 8 8 5
BITMAP
8000
8000
8000
8000
8000
8000
8000
FF80
ENDCHAR
STARTCHAR 2518
ENCODING 9496
SWIDTH 1020 0
DWIDTH 17 0
BBX 9 8 0 5
BITMAP
0080
0080
0080
0080
0080
0080
0080
FF80
ENDCHAR
STARTCHAR 251C
ENCODING 9500
SWIDTH 1020 0
DWIDTH 17 0
BBX 9 16 8 -3
BITMAP
8000
8000
8000
8000
8000
8000
8000
8000
FF80
8000
8000
8000
8000
8000
8000
8000
ENDCHAR
STARTCHAR 2524
ENCODING 9508
SWIDTH 1020 0
DWIDTH 17 0
BBX 9 16 0 -3
BITMAP
0080
0080
0080
0080
0080
0080
0080
0080
FF80
0080
0080
0080
0080
0080
0080
0080
ENDCHAR
STARTCHAR 252C
ENCODING 9516
SWIDTH 1020 0
DWIDTH 17 0
BBX 17 8 0 -3
BITMAP
FFFF80
008000
008000
008000
008000
008000
008000
008000
ENDCHAR
STARTCHAR 2534
ENCODING 9524
SWIDTH 1020 0
DWIDTH 17 0
BBX 17 8 0 5
BITMAP
008000
008000
008000
008000
008000
008000
008000
FFFF80
ENDCHAR
STARTCHAR 253C
ENCODING 9532
SWIDTH 1020 0
DWIDTH 17 0
BBX 17 16 0 -3
BITMAP
008000
008000
008000
008000
008000
008000
008000
008000
FFFF80
008000
008000
008000
008000
008000
008000
008000
ENDCHAR
STARTCHAR 2550
ENCODING 9552
SWIDTH 1020 0
DWIDTH 17 0
BBX 17 2 0 4
BITMAP
FFFF80
FFFF80
ENDCHAR
STARTCHAR 2551
ENCODING 9553
SWIDTH 1020 0
DWIDTH 17 0
BBX 2 16 7 -3
BITMAP
C0
C0
C0
C0
C0
C0
C0
C0
C0
C0
C0
C0
C0
C0
C0
C0
ENDCHAR
STARTCHAR 2552
ENCODING 9554
SWIDTH 1020 0
DWIDTH 17 0
BBX 0 0 0 0
BITMAP
ENDCHAR
STARTCHAR 2553
ENCODING 9555
SWIDTH 1020 0
DWIDTH 17 0
BBX 0 0 0 0
BITMAP
ENDCHAR
STARTCHAR 2554
ENCODING 9556
SWIDTH 1020 0
DWIDTH 17 0
BBX 10 9 7 -3
BITMAP
FFC0
BF80
C040
C000
C000
C000
C000
C000
C000
ENDCHAR
STARTCHAR 2555
ENCODING 9557
SWIDTH 1020 0
DWIDTH 17 0
BBX 0 0 0 0
BITMAP
ENDCHAR
STARTCHAR 2556
ENCODING 9558
SWIDTH 1020 0
DWIDTH 17 0
BBX 0 0 0 0
BITMAP
ENDCHAR
STARTCHAR 2557
ENCODING 9559
SWIDTH 1020 0
DWIDTH 17 0
BBX 9 9 0 -3
BITMAP
FF80
FF80
0180
0180
0180
0180
0180
0180
0180
ENDCHAR
STARTCHAR 2558
ENCODING 9560
SWIDTH 1020 0
DWIDTH 17 0
BBX 0 0 0 0
BITMAP
ENDCHAR
STARTCHAR 2559
ENCODING 9561
SWIDTH 1020 0
DWIDTH 17 0
BBX 0 0 0 0
BITMAP
ENDCHAR
STARTCHAR 255A
ENCODING 9562
SWIDTH 1020 0
DWIDTH 17 0
BBX 0 0 0 0
BITMAP
ENDCHAR
STARTCHAR 255B
ENCODING 9563
SWIDTH 1020 0
DWIDTH 17 0
BBX 0 0 0 0
BITMAP
ENDCHAR
STARTCHAR 255C
ENCODING 9564
SWIDTH 1020 0
DWIDTH 17 0
BBX 0 0 0 0
BITMAP
ENDCHAR
STARTCHAR 255D
ENCODING 9565
SWIDTH 1020 0
DWIDTH 17 0
BBX 0 0 0 0
BITMAP
ENDCHAR
STARTCHAR 255E
ENCODING 9566
SWIDTH 1020 0
DWIDTH 17 0
BBX 0 0 0 0
BITMAP
ENDCHAR
STARTCHAR 255F
ENCODING 9567
SWIDTH 1020 0
DWIDTH 17 0
BBX 0 0 0 0
BITMAP
ENDCHAR
STARTCHAR 2560
ENCODING 9568
SWIDTH 1020 0
DWIDTH 17 0
BBX 10 16 7 -3
BITMAP
C000
C000
C000
C000
C000
C000
C000
BFC0
BF80
C040
C000
C000
C000
C000
C000
C000
ENDCHAR
STARTCHAR 2561
ENCODING 9569
SWIDTH 1020 0
DWIDTH 17 0
BBX 0 0 0 0
BITMAP
ENDCHAR
STARTCHAR 2562
ENCODING 9570
SWIDTH 1020 0
DWIDTH 17 0
BBX 0 0 0 0
BITMAP
ENDCHAR
STARTCHAR 2563
ENCODING 9571
SWIDTH 1020 0
DWIDTH 17 0
BBX 0 0 0 0
BITMAP
ENDCHAR
STARTCHAR 2564
ENCODING 9572
SWIDTH 1020 0
DWIDTH 17 0
BBX 0 0 0 0
BITMAP
ENDCHAR
STARTCHAR 2565
ENCODING 9573
SWIDTH 1020 0
DWIDTH 17 0
BBX 0 0 0 0
BITMAP
ENDCHAR
STARTCHAR 2566
ENCODING 9574
SWIDTH 1020 0
DWIDTH 17 0
BBX 17 9 0 -3
BITMAP
FFFF80
FF7F00
018080
018000
018000
018000
018000
018000
018000
ENDCHAR
STARTCHAR 2567
ENCODING 9575
SWIDTH 1020 0
DWIDTH 17 0
BBX 0 0 0 0
BITMAP
ENDCHAR
STARTCHAR 2568
ENCODING 9576
SWIDTH 1020 0
DWIDTH 17 0
BBX 0 0 0 0
BITMAP
ENDCHAR
STARTCHAR 2569
ENCODING 9577
SWIDTH 1020 0
DWIDTH 17 0
BBX 0 0 0 0
BITMAP
ENDCHAR
STARTCHAR 256A
ENCODING 9578
SWIDTH 1020 0
DWIDTH 17 0
BBX 0 0 0 0
BITMAP
ENDCHAR
STARTCHAR 256B
ENCODING 9579
SWIDTH 1020 0
DWIDTH 17 0
BBX 0 0 0 0
BITMAP
ENDCHAR
STARTCHAR 256C
ENCODING 9580
SWIDTH 1020 0
DWIDTH 17 0
BBX 17 16 0 -3
BITMAP
018000
018000
018000
018000
018000
018000
018000
FF7F80
FF7F00
018080
018000
018000
018000
018000
018000
018000
ENDCHAR
STARTCHAR 256D
ENCODING 9581
SWIDTH 1020 0
DWIDTH 17 0
BBX 10 9 7 -3
BITMAP
07C0
1980
2E40
5000
A000
A000
C000
C000
C000
ENDCHAR
STARTCHAR 256E
ENCODING 9582
SWIDTH 1020 0
DWIDTH 17 0
BBX 9 9 0 -3
BITMAP
F800
8400
7B00
0700
0280
0180
0180
0180
0180
ENDCHAR
STARTCHAR 256F
ENCODING 9583
SWIDTH 1020 0
DWIDTH 17 0
BBX 9 9 0 4
BITMAP
0180
0180
0180
0180
0280
0300
0500
FE00
F800
ENDCHAR
STARTCHAR 2570
ENCODING 9584
SWIDTH 1020 0
DWIDTH 17 0
BBX 10 9 7 4
BITMAP
C000
C000
C000
A000
A000
5000
2800
17C0
0FC0
ENDCHAR
STARTCHAR 2571
ENCODING 9585
SWIDTH 1020 0
DWIDTH 17 0
BBX 17 16 0 -3
BITMAP
000180
000200
000400
000800
001000
002000
004000
008000
010000
020000
040000
080000
100000
200000
400000
800000
ENDCHAR
STARTCHAR 2572
ENCODING 9586
SWIDTH 1020 0
DWIDTH 17 0
BBX 17 16 0 -3
BITMAP
800000
400000
200000
100000
080000
040000
020000
010000
008000
004000
002000
001000
000800
000400
000200
000180
ENDCHAR
STARTCHAR 2573
ENCODING 9587
SWIDTH 1020 0
DWIDTH 17 0
BBX 17 16 0 -3
BITMAP
800180
400200
200400
100800
081000
042000
024000
018000
018000
024000
042000
081000
100800
200400
400200
800180
ENDCHAR
STARTCHAR 2574
ENCODING 9588
SWIDTH 1020 0
DWIDTH 17 0
BBX 17 1 0 -3
BITMAP
FFFF80
ENDCHAR
STARTCHAR 2581
ENCODING 9601
SWIDTH 1020 0
DWIDTH 17 0
BBX 17 2 0 -3
BITMAP
FFFF80
FFFF80
ENDCHAR
STARTCHAR 2582
ENCODING 9602
SWIDTH 1020 0
DWIDTH 17 0
BBX 17 4 0 -3
BITMAP
FFFF80
FFFF80
FFFF80
FFFF80
ENDCHAR
STARTCHAR 2583
ENCODING 9603
SWIDTH 1020 0
DWIDTH 17 0
BBX 17 6 0 -3
BITMAP
FFFF80
FFFF80
FFFF80
FFFF80
FFFF80
FFFF80
ENDCHAR
STARTCHAR 2584
ENCODING 9604
SWIDTH 1020 0
DWIDTH 17 0
BBX 17 8 0 -3
BITMAP
FFFF80
FFFF80
FFFF80
FFFF80
FFFF80
FFFF80
FFFF80
FFFF80
ENDCHAR
STARTCHAR 2585
ENCODING 9605
SWIDTH 1020 0
DWIDTH 17 0
BBX 17 10 0 -3
BITMAP
FFFF80
FFFF80
FFFF80
FFFF80
FFFF80
FFFF80
FFFF80
FFFF80
FFFF80
FFFF80
ENDCHAR
STARTCHAR 2586
ENCODING 9606
SWIDTH 1020 0
DWIDTH 17 0
BBX 17 12 0 -3
BITMAP
FFFF80
FFFF80
FFFF80
FFFF80
FFFF80
FFFF80
FFFF80
FFFF80
FFFF80
FFFF80
FFFF80
FFFF80
ENDCHAR
STARTCHAR 2587
ENCODING 9607
SWIDTH 1020 0
DWIDTH 17 0
BBX 17 14 0 -3
BITMAP
FFFF80
FFFF80
FFFF80
FFFF80
FFFF80
FFFF80
FFFF80
FFFF80
FFFF80
FFFF80
FFFF80
FFFF80
FFFF80
FFFF80
ENDCHAR
STARTCHAR 2588
ENCODING 9608
SWIDTH 1020 0
DWIDTH 17 0
BBX 17 16 0 -3
BITMAP
FFFF80
FFFF80
FFFF80
FFFF80
FFFF80
FFFF80
FFFF80
FFFF80
FFFF80
FFFF80
FFFF80
FFFF80
FFFF80
FFFF80
FFFF80
FFFF80
ENDCHAR
STARTCHAR 2589
ENCODING 9609
SWIDTH 1020 0
DWIDTH 17 0
BBX 14 16 0 -3
BITMAP
FFFC
FFFC
FFFC
FFFC
FFFC
FFFC
FFFC
FFFC
FFFC
FFFC
FFFC
FFFC
FFFC
FFFC
FFFC
FFFC
ENDCHAR
STARTCHAR 258A
ENCODING 9610
SWIDTH 1020 0
DWIDTH 17 0
BBX 12 16 0 -3
BITMAP
FFF0
FFF0
FFF0
FFF0
FFF0
FFF0
FFF0
FFF0
FFF0
FFF0
FFF0
FFF0
FFF0
FFF0
FFF0
FFF0
ENDCHAR
STARTCHAR 258B
ENCODING 9611
SWIDTH 1020 0
DWIDTH 17 0
BBX 10 16 0 -3
BITMAP
FFC0
FFC0
FFC0
FFC0
FFC0
FFC0
FFC0
FFC0
FFC0
FFC0
FFC0
FFC0
FFC0
FFC0
FFC0
FFC0
ENDCHAR
STARTCHAR 258C
ENCODING 9612
SWIDTH 1020 0
DWIDTH 17 0
BBX 8 16 0 -3
BITMAP
FF
FF
FF
FF
FF
FF
FF
FF
FF
FF
FF
FF
FF
FF
FF
FF
ENDCHAR
STARTCHAR 258D
ENCODING 9613
SWIDTH 1020 0
DWIDTH 17 0
BBX 6 16 0 -3
BITMAP
FC
FC
FC
FC
FC
FC
FC
FC
FC
FC
FC
FC
FC
FC
FC
FC
ENDCHAR
STARTCHAR 258E
ENCODING 9614
SWIDTH 1020 0
DWIDTH 17 0
BBX 4 16 0 -3
BITMAP
F0
F0
F0
F0
F0
F0
F0
F0
F0
F0
F0
F0
F0
F0
F0
F0
ENDCHAR
STARTCHAR 258F
ENCODING 9615
SWIDTH 1020 0
DWIDTH 17 0
BBX 2 16 0 -3
BITMAP
C0
C0
C0
C0
C0
C0
C0
C0
C0
C0
C0
C0
C0
C0
C0
C0
ENDCHAR
STARTCHAR 2594
ENCODING 9620
SWIDTH 1020 0
DWIDTH 17 0
BBX 17 2 0 11
BITMAP
FFFF80
FFFF80
ENDCHAR
STARTCHAR 2595
ENCODING 9621
SWIDTH 1020 0
DWIDTH 17 0
BBX 2 16 15 -3
BITMAP
C0
C0
C0
C0
C0
C0
C0
C0
C0
C0
C0
C0
C0
C0
C0
C0
ENDCHAR
STARTCHAR 25A0
ENCODING 9632
SWIDTH 1020 0
DWIDTH 17 0
BBX 15 14 1 -2
BITMAP
FFFE
FFFE
FFFE
FFFE
FFFE
FFFE
FFFE
FFFE
FFFE
FFFE
FFFE
FFFE
FFFE
FFFE
ENDCHAR
STARTCHAR 25A1
ENCODING 9633
SWIDTH 1020 0
DWIDTH 17 0
BBX 15 14 1 -2
BITMAP
FFFE
8002
8002
8002
8002
8002
8002
8002
8002
8002
8002
8002
8002
FFFE
ENDCHAR
STARTCHAR 25B2
ENCODING 9650
SWIDTH 1020 0
DWIDTH 17 0
BBX 15 13 1 -1
BITMAP
0100
0100
0380
0780
07C0
0FE0
0FE0
1FF0
1FF0
3FF8
7FF8
7FFC
FFFE
ENDCHAR
STARTCHAR 25B3
ENCODING 9651
SWIDTH 1020 0
DWIDTH 17 0
BBX 15 13 1 -1
BITMAP
0100
0100
0280
0480
0440
0820
0820
1010
2010
2008
4008
4004
FFFE
ENDCHAR
STARTCHAR 25BC
ENCODING 9660
SWIDTH 1020 0
DWIDTH 17 0
BBX 15 14 1 -2
BITMAP
FFFE
FFFE
7FFC
3FF8
3FF8
1FF0
1FF0
0FE0
0FC0
07C0
0380
0380
0100
0100
ENDCHAR
STARTCHAR 25BD
ENCODING 9661
SWIDTH 1020 0
DWIDTH 17 0
BBX 15 14 1 -2
BITMAP
FFFE
8002
4004
4008
2008
2010
1010
0820
0840
0440
0480
0280
0100
0100
ENDCHAR
STARTCHAR 25C6
ENCODING 9670
SWIDTH 1020 0
DWIDTH 17 0
BBX 15 15 1 -3
BITMAP
0100
0380
07C0
0FE0
1FF0
3FF8
7FFC
FFFE
FFFE
7FFC
3FF8
1FF0
0FE0
07C0
0380
ENDCHAR
STARTCHAR 25C7
ENCODING 9671
SWIDTH 1020 0
DWIDTH 17 0
BBX 15 16 1 -3
BITMAP
0100
0280
0440
0820
1010
2008
4004
8002
8002
4004
2008
1010
0820
0440
0280
0100
ENDCHAR
STARTCHAR 25CB
ENCODING 9675
SWIDTH 1020 0
DWIDTH 17 0
BBX 15 14 1 -1
BITMAP
07E0
1818
2004
4004
4002
8002
8002
8002
8002
4002
4004
2008
1010
0FE0
ENDCHAR
STARTCHAR 25CE
ENCODING 9678
SWIDTH 1020 0
DWIDTH 17 0
BBX 15 14 1 -1
BITMAP
07E0
1818
2004
47C4
4822
8812
9012
9012
8812
4822
47C4
2008
1010
0FE0
ENDCHAR
STARTCHAR 25CF
ENCODING 9679
SWIDTH 1020 0
DWIDTH 17 0
BBX 14 14 2 -1
BITMAP
0FC0
3FF0
7FF8
7FF8
FFFC
FFFC
FFFC
FFFC
FFFC
FFFC
7FF8
7FF0
3FE0
0FC0
ENDCHAR
STARTCHAR 25E2
ENCODING 9698
SWIDTH 1020 0
DWIDTH 17 0
BBX 17 16 0 -3
BITMAP
000080
000180
000380
000780
000F80
001F80
003F80
007F80
00FF80
01FF80
03FF80
07FF80
0FFF80
1FFF80
3FFF80
FFFF80
ENDCHAR
STARTCHAR 25E3
ENCODING 9699
SWIDTH 1020 0
DWIDTH 17 0
BBX 16 16 0 -3
BITMAP
8000
C000
E000
F000
F800
FC00
FE00
FF00
FF80
FFC0
FFE0
FFF0
FFF8
FFFC
FFFE
FFFF
ENDCHAR
STARTCHAR 25E4
ENCODING 9700
SWIDTH 1020 0
DWIDTH 17 0
BBX 16 16 0 -3
BITMAP
FFFF
FFFE
FFFC
FFF8
FFF0
FFE0
FFC0
FF80
FF00
FE00
FC00
F800
F000
E000
C000
8000
ENDCHAR
STARTCHAR 25E5
ENCODING 9701
SWIDTH 1020 0
DWIDTH 17 0
BBX 17 16 0 -3
BITMAP
FFFF80
3FFF80
1FFF80
0FFF80
07FF80
03FF80
01FF80
00FF80
007F80
003F80
001F80
000F80
000780
000380
000180
000080
ENDCHAR
STARTCHAR 2605
ENCODING 9733
SWIDTH 1020 0
DWIDTH 17 0
BBX 15 16 1 -3
BITMAP
0100
0100
0100
0380
0380
0380
FFFE
3FF8
1FF0
0FE0
0FE0
0FE0
1EF0
1830
1010
6008
ENDCHAR
STARTCHAR 2606
ENCODING 9734
SWIDTH 1020 0
DWIDTH 17 0
BBX 15 16 1 -3
BITMAP
0100
0100
0300
0280
0280
0480
FC7E
2008
1010
0820
0820
1120
1290
2C70
1010
6008
ENDCHAR
STARTCHAR 2640
ENCODING 9792
SWIDTH 1020 0
DWIDTH 17 0
BBX 9 14 4 -2
BITMAP
1C00
2200
4200
4200
2200
1C00
0800
0800
FF80
0800
0800
0800
0800
0800
ENDCHAR
STARTCHAR 2642
ENCODING 9794
SWIDTH 1020 0
DWIDTH 17 0
BBX 7 14 5 -2
BITMAP
10
30
38
54
92
10
10
10
38
44
84
84
44
38
ENDCHAR
STARTCHAR 273D
ENCODING 10045
SWIDTH 1020 0
DWIDTH 17 0
BBX 10 10 3 1
BITMAP
0C00
0400
E4C0
3580
0E00
1E00
75C0
C4C0
0400
0C00
ENDCHAR
STARTCHAR 2E80
ENCODING 11904
SWIDTH 1020 0
DWIDTH 17 0
BBX 0 0 0 0
BITMAP
ENDCHAR
STARTCHAR 2E84
ENCODING 11908
SWIDTH 1020 0
DWIDTH 17 0
BBX 0 0 0 0
BITMAP
ENDCHAR
STARTCHAR 2E86
ENCODING 11910
SWIDTH 1020 0
DWIDTH 17 0
BBX 0 0 0 0
BITMAP
ENDCHAR
STARTCHAR 2E87
ENCODING 11911
SWIDTH 1020 0
DWIDTH 17 0
BBX 0 0 0 0
BITMAP
ENDCHAR
STARTCHAR 2E88
ENCODING 11912
SWIDTH 1020 0
DWIDTH 17 0
BBX 0 0 0 0
BITMAP
ENDCHAR
STARTCHAR 2E8A
ENCODING 11914
SWIDTH 1020 0
DWIDTH 17 0
BBX 0 0 0 0
BITMAP
ENDCHAR
STARTCHAR 2E8C
ENCODING 11916
SWIDTH 1020 0
DWIDTH 17 0
BBX 0 0 0 0
BITMAP
ENDCHAR
STARTCHAR 2E8D
ENCODING 11917
SWIDTH 1020 0
DWIDTH 17 0
BBX 0 0 0 0
BITMAP
ENDCHAR
STARTCHAR 2E95
ENCODING 11925
SWIDTH 1020 0
DWIDTH 17 0
BBX 0 0 0 0
BITMAP
ENDCHAR
STARTCHAR 2E9C
ENCODING 11932
SWIDTH 1020 0
DWIDTH 17 0
BBX 0 0 0 0
BITMAP
ENDCHAR
STARTCHAR 2E9D
ENCODING 11933
SWIDTH 1020 0
DWIDTH 17 0
BBX 0 0 0 0
BITMAP
ENDCHAR
STARTCHAR 2EA5
ENCODING 11941
SWIDTH 1020 0
DWIDTH 17 0
BBX 0 0 0 0
BITMAP
ENDCHAR
STARTCHAR 2EA7
ENCODING 11943
SWIDTH 1020 0
DWIDTH 17 0
BBX 0 0 0 0
BITMAP
ENDCHAR
STARTCHAR 2EAA
ENCODING 11946
SWIDTH 1020 0
DWIDTH 17 0
BBX 0 0 0 0
BITMAP
ENDCHAR
STARTCHAR 2EAC
ENCODING 11948
SWIDTH 1020 0
DWIDTH 17 0
BBX 0 0 0 0
BITMAP
ENDCHAR
STARTCHAR 2EAE
ENCODING 11950
SWIDTH 1020 0
DWIDTH 17 0
BBX 0 0 0 0
BITMAP
ENDCHAR
STARTCHAR 2EB6
ENCODING 11958
SWIDTH 1020 0
DWIDTH 17 0
BBX 0 0 0 0
BITMAP
ENDCHAR
STARTCHAR 2EBC
ENCODING 11964
SWIDTH 1020 0
DWIDTH 17 0
BBX 0 0 0 0
BITMAP
ENDCHAR
STARTCHAR 2EBE
ENCODING 11966
SWIDTH 1020 0
DWIDTH 17 0
BBX 0 0 0 0
BITMAP
ENDCHAR
STARTCHAR 2EC6
ENCODING 11974
SWIDTH 1020 0
DWIDTH 17 0
BBX 0 0 0 0
BITMAP
ENDCHAR
STARTCHAR 2ECA
ENCODING 11978
SWIDTH 1020 0
DWIDTH 17 0
BBX 0 0 0 0
BITMAP
ENDCHAR
STARTCHAR 2ECC
ENCODING 11980
SWIDTH 1020 0
DWIDTH 17 0
BBX 0 0 0 0
BITMAP
ENDCHAR
STARTCHAR 2ECD
ENCODING 11981
SWIDTH 1020 0
DWIDTH 17 0
BBX 0 0 0 0
BITMAP
ENDCHAR
STARTCHAR 2ECF
ENCODING 11983
SWIDTH 1020 0
DWIDTH 17 0
BBX 0 0 0 0
BITMAP
ENDCHAR
STARTCHAR 2ED6
ENCODING 11990
SWIDTH 1020 0
DWIDTH 17 0
BBX 0 0 0 0
BITMAP
ENDCHAR
STARTCHAR 2ED7
ENCODING 11991
SWIDTH 1020 0
DWIDTH 17 0
BBX 0 0 0 0
BITMAP
ENDCHAR
STARTCHAR 2EDE
ENCODING 11998
SWIDTH 1020 0
DWIDTH 17 0
BBX 0 0 0 0
BITMAP
ENDCHAR
STARTCHAR 2EE3
ENCODING 12003
SWIDTH 1020 0
DWIDTH 17 0
BBX 0 0 0 0
BITMAP
ENDCHAR
STARTCHAR 2F33
ENCODING 12083
SWIDTH 1020 0
DWIDTH 17 0
BBX 10 13 4 -1
BITMAP
1000
0800
1000
2200
2300
4200
7C00
0800
0800
1200
2100
4380
FC40
ENDCHAR
STARTCHAR 3000
ENCODING 12288
SWIDTH 1020 0
DWIDTH 17 0
BBX 0 0 0 0
BITMAP
ENDCHAR
STARTCHAR 3001
ENCODING 12289
SWIDTH 1020 0
DWIDTH 17 0
BBX 3 4 7 3
BITMAP
80
60
60
20
ENDCHAR
STARTCHAR 3002
ENCODING 12290
SWIDTH 1020 0
DWIDTH 17 0
BBX 4 4 6 3
BITMAP
60
90
90
60
ENDCHAR
STARTCHAR 3003
ENCODING 12291
SWIDTH 1020 0
DWIDTH 17 0
BBX 6 7 5 1
BITMAP
2C
48
48
48
90
90
A0
ENDCHAR
STARTCHAR 3005
ENCODING 12293
SWIDTH 1020 0
DWIDTH 17 0
BBX 12 14 2 -2
BITMAP
0800
0400
0400
0820
0FF0
1060
2040
4080
5100
8D00
0200
0100
0180
0080
ENDCHAR
STARTCHAR 3006
ENCODING 12294
SWIDTH 1020 0
DWIDTH 17 0
BBX 13 14 2 -2
BITMAP
0020
0010
0018
0030
0060
1880
2500
4200
4500
4800
7000
6000
C000
8000
ENDCHAR
STARTCHAR 3007
ENCODING 12295
SWIDTH 1020 0
DWIDTH 17 0
BBX 13 12 2 -1
BITMAP
0600
39C0
4030
8010
8008
8008
8008
8008
8010
4030
38C0
0700
ENDCHAR
STARTCHAR 3008
ENCODING 12296
SWIDTH 1020 0
DWIDTH 17 0
BBX 5 14 8 -2
BITMAP
08
10
20
20
40
40
80
80
40
40
20
10
10
08
ENDCHAR
STARTCHAR 3009
ENCODING 12297
SWIDTH 1020 0
DWIDTH 17 0
BBX 4 14 4 -2
BITMAP
80
40
40
20
20
10
10
10
10
20
20
40
40
80
ENDCHAR
STARTCHAR 300A
ENCODING 12298
SWIDTH 1020 0
DWIDTH 17 0
BBX 6 15 8 -2
BITMAP
1C
14
28
28
50
50
A0
A0
50
50
28
28
14
14
08
ENDCHAR
STARTCHAR 300B
ENCODING 12299
SWIDTH 1020 0
DWIDTH 17 0
BBX 6 14 2 -2
BITMAP
E0
50
30
28
18
14
0C
0C
14
18
28
30
50
A0
ENDCHAR
STARTCHAR 300C
ENCODING 12300
SWIDTH 1020 0
DWIDTH 17 0
BBX 6 8 8 5
BITMAP
FC
80
80
80
80
80
80
80
ENDCHAR
STARTCHAR 300D
ENCODING 12301
SWIDTH 1020 0
DWIDTH 17 0
BBX 5 8 3 -3
BITMAP
08
08
08
08
08
08
08
F8
ENDCHAR
STARTCHAR 300E
ENCODING 12302
SWIDTH 1020 0
DWIDTH 17 0
BBX 6 8 8 5
BITMAP
FC
BC
A0
A0
A0
A0
A0
E0
ENDCHAR
STARTCHAR 300F
ENCODING 12303
SWIDTH 1020 0
DWIDTH 17 0
BBX 5 8 3 -3
BITMAP
18
18
18
18
18
18
E8
F8
ENDCHAR
STARTCHAR 3010
ENCODING 12304
SWIDTH 1020 0
DWIDTH 17 0
BBX 6 16 8 -3
BITMAP
FC
F8
F0
F0
E0
E0
E0
E0
E0
E0
E0
E0
F0
F0
F8
7C
ENDCHAR
STARTCHAR 3011
ENCODING 12305
SWIDTH 1020 0
DWIDTH 17 0
BBX 6 16 2 -3
BITMAP
FC
7C
3C
1C
0C
0C
0C
0C
0C
0C
0C
0C
1C
3C
7C
FC
ENDCHAR
STARTCHAR 3012
ENCODING 12306
SWIDTH 1020 0
DWIDTH 17 0
BBX 15 14 1 -2
BITMAP
FFFE
FFFE
0000
0000
FFFE
FFFC
0100
0100
0100
0100
0100
0100
0100
0100
ENDCHAR
STARTCHAR 3014
ENCODING 12308
SWIDTH 1020 0
DWIDTH 17 0
BBX 4 16 8 -3
BITMAP
10
20
C0
80
80
80
80
80
80
80
80
80
80
80
60
10
ENDCHAR
STARTCHAR 3015
ENCODING 12309
SWIDTH 1020 0
DWIDTH 17 0
BBX 4 16 4 -3
BITMAP
80
60
10
10
10
10
10
10
10
10
10
10
10
10
60
80
ENDCHAR
STARTCHAR 301D
ENCODING 12317
SWIDTH 1020 0
DWIDTH 17 0
BBX 6 5 10 8
BITMAP
A0
B0
50
28
24
ENDCHAR
STARTCHAR 301E
ENCODING 12318
SWIDTH 1020 0
DWIDTH 17 0
BBX 6 5 1 8
BITMAP
14
3C
68
50
A0
ENDCHAR
STARTCHAR 3021
ENCODING 12321
SWIDTH 1020 0
DWIDTH 17 0
BBX 1 15 8 -3
BITMAP
80
80
80
80
80
80
80
80
80
80
80
80
80
80
80
ENDCHAR
STARTCHAR 3022
ENCODING 12322
SWIDTH 1020 0
DWIDTH 17 0
BBX 7 16 5 -3
BITMAP
04
02
02
82
82
82
82
82
82
82
82
82
02
02
02
04
ENDCHAR
STARTCHAR 3023
ENCODING 12323
SWIDTH 1020 0
DWIDTH 17 0
BBX 9 16 4 -3
BITMAP
0080
0080
8080
8880
8880
8880
8880
8880
8880
8880
8880
8880
8880
8080
0080
0080
ENDCHAR
STARTCHAR 3024
ENCODING 12324
SWIDTH 1020 0
DWIDTH 17 0
BBX 14 14 2 -2
BITMAP
0040
0040
2080
1080
0880
0900
0500
0200
0300
0500
0880
1040
2038
C004
ENDCHAR
STARTCHAR 3025
ENCODING 12325
SWIDTH 1020 0
DWIDTH 17 0
BBX 10 15 4 -3
BITMAP
0040
10C0
21C0
2380
2600
1E00
2300
4180
8080
8080
8080
8080
C180
6300
1C00
ENDCHAR
STARTCHAR 3026
ENCODING 12326
SWIDTH 1020 0
DWIDTH 17 0
BBX 15 5 1 5
BITMAP
0100
0100
0100
0104
FEFA
ENDCHAR
STARTCHAR 3027
ENCODING 12327
SWIDTH 1020 0
DWIDTH 17 0
BBX 15 11 1 1
BITMAP
0200
0100
0100
0100
011C
FEE2
0000
0000
0000
0030
1FC0
ENDCHAR
STARTCHAR 3028
ENCODING 12328
SWIDTH 1020 0
DWIDTH 17 0
BBX 14 13 2 -1
BITMAP
0200
0200
0200
0278
FD80
0000
0000
01E0
3E00
0000
0000
0008
FFF4
ENDCHAR
STARTCHAR 3029
ENCODING 12329
SWIDTH 1020 0
DWIDTH 17 0
BBX 14 14 2 -1
BITMAP
0200
0200
0200
03C0
3C40
0080
3080
0900
0500
0200
0500
0880
1040
E03C
ENDCHAR
STARTCHAR 3041
ENCODING 12353
SWIDTH 1020 0
DWIDTH 17 0
BBX 8 12 4 -2
BITMAP
20
10
16
F8
28
1E
69
A9
91
B1
52
04
ENDCHAR
STARTCHAR 3042
ENCODING 12354
SWIDTH 1020 0
DWIDTH 17 0
BBX 10 15 3 -2
BITMAP
1800
0900
8F80
7000
1400
1700
3CC0
5440
9440
8840
9040
7040
4880
0900
0600
ENDCHAR
STARTCHAR 3043
ENCODING 12355
SWIDTH 1020 0
DWIDTH 17 0
BBX 9 10 4 -2
BITMAP
8000
4200
8200
8100
9100
9080
A080
6080
6000
2000
ENDCHAR
STARTCHAR 3044
ENCODING 12356
SWIDTH 1020 0
DWIDTH 17 0
BBX 11 12 3 0
BITMAP
8000
C000
4180
8080
8040
8840
8840
5020
5020
5040
2000
2000
ENDCHAR
STARTCHAR 3045
ENCODING 12357
SWIDTH 1020 0
DWIDTH 17 0
BBX 6 13 5 -3
BITMAP
40
30
08
00
BC
C4
04
04
04
08
08
10
20
ENDCHAR
STARTCHAR 3046
ENCODING 12358
SWIDTH 1020 0
DWIDTH 17 0
BBX 8 14 4 -1
BITMAP
10
0C
00
00
1E
E1
41
01
01
01
02
02
04
18
ENDCHAR
STARTCHAR 3047
ENCODING 12359
SWIDTH 1020 0
DWIDTH 17 0
BBX 9 11 4 -2
BITMAP
1000
0C00
0400
9E00
6800
0800
1800
2400
4400
8400
8780
ENDCHAR
STARTCHAR 3048
ENCODING 12360
SWIDTH 1020 0
DWIDTH 17 0
BBX 11 14 3 -2
BITMAP
1800
0600
0200
0100
8F00
7200
0400
0800
1400
1A00
2200
4200
8200
81E0
ENDCHAR
STARTCHAR 3049
ENCODING 12361
SWIDTH 1020 0
DWIDTH 17 0
BBX 10 11 3 -2
BITMAP
1000
1800
1580
9A40
7000
1300
1C80
1040
F080
B580
1200
ENDCHAR
STARTCHAR 304A
ENCODING 12362
SWIDTH 1020 0
DWIDTH 17 0
BBX 12 14 2 -2
BITMAP
1800
0800
0840
0B30
FC10
0800
0800
0FE0
0810
1810
E820
6A20
19C0
0800
ENDCHAR
STARTCHAR 304B
ENCODING 12363
SWIDTH 1020 0
DWIDTH 17 0
BBX 12 14 3 -2
BITMAP
0800
0C00
0800
0800
9E40
F120
2130
2110
2210
4200
4200
9400
8C00
0800
ENDCHAR
STARTCHAR 304C
ENCODING 12364
SWIDTH 1020 0
DWIDTH 17 0
BBX 13 14 2 -2
BITMAP
0800
0418
0828
0810
9F40
7120
1110
2110
2110
4100
4200
D200
8C00
0400
ENDCHAR
STARTCHAR 304D
ENCODING 12365
SWIDTH 1020 0
DWIDTH 17 0
BBX 10 14 3 -2
BITMAP
1800
0980
0600
FC00
04C0
0700
FA00
0200
0500
3B80
4000
4000
2000
1F00
ENDCHAR
STARTCHAR 304E
ENCODING 12366
SWIDTH 1020 0
DWIDTH 17 0
BBX 12 16 3 -3
BITMAP
0020
00D0
1820
0B80
8C00
7440
0380
9E00
6200
0100
1F00
6080
4000
4000
3E00
0100
ENDCHAR
STARTCHAR 304F
ENCODING 12367
SWIDTH 1020 0
DWIDTH 17 0
BBX 5 14 5 -2
BITMAP
10
08
10
20
40
40
80
80
40
20
10
10
08
08
ENDCHAR
STARTCHAR 3050
ENCODING 12368
SWIDTH 1020 0
DWIDTH 17 0
BBX 9 14 5 -2
BITMAP
1000
0800
1180
2280
4100
8000
8000
8000
4000
2000
2000
1000
0800
0800
ENDCHAR
STARTCHAR 3051
ENCODING 12369
SWIDTH 1020 0
DWIDTH 17 0
BBX 11 14 3 -2
BITMAP
0100
4080
4080
40A0
49C0
8680
8080
A080
A080
A080
C100
4100
4200
0400
ENDCHAR
STARTCHAR 3052
ENCODING 12370
SWIDTH 1020 0
DWIDTH 17 0
BBX 13 16 3 -3
BITMAP
0010
0068
8190
4080
4080
40E0
8F80
8080
A080
A080
A080
C100
4100
4100
4200
0400
ENDCHAR
STARTCHAR 3053
ENCODING 12371
SWIDTH 1020 0
DWIDTH 17 0
BBX 9 12 4 -1
BITMAP
0300
7E00
0800
1000
0000
0000
8000
8000
8000
8000
4100
3F80
ENDCHAR
STARTCHAR 3054
ENCODING 12372
SWIDTH 1020 0
DWIDTH 17 0
BBX 11 15 4 -2
BITMAP
0040
00A0
0040
8740
7C00
0800
3000
0000
0000
8000
8000
8000
8000
6380
1E00
ENDCHAR
STARTCHAR 3055
ENCODING 12373
SWIDTH 1020 0
DWIDTH 17 0
BBX 10 14 3 -2
BITMAP
1800
0400
0440
0780
FA00
0200
0100
0100
1F80
6080
4000
4000
3000
0F00
ENDCHAR
STARTCHAR 3056
ENCODING 12374
SWIDTH 1020 0
DWIDTH 17 0
BBX 13 15 3 -2
BITMAP
0020
1818
0828
04D0
0700
FC00
0200
0200
0100
3F80
4100
8000
4000
3000
0E00
ENDCHAR
STARTCHAR 3057
ENCODING 12375
SWIDTH 1020 0
DWIDTH 17 0
BBX 10 14 4 -2
BITMAP
8000
4000
6000
4000
4000
4000
4000
4000
4000
4000
4040
4080
4300
3C00
ENDCHAR
STARTCHAR 3058
ENCODING 12376
SWIDTH 1020 0
DWIDTH 17 0
BBX 10 14 4 -2
BITMAP
8000
4100
4280
4100
4000
4000
4000
4000
4000
4000
40C0
4080
4300
3C00
ENDCHAR
STARTCHAR 3059
ENCODING 12377
SWIDTH 1020 0
DWIDTH 17 0
BBX 12 14 2 -2
BITMAP
0600
0200
0230
BFC0
4200
0600
0A00
1200
0A00
0E00
0200
0200
0400
1800
ENDCHAR
STARTCHAR 305A
ENCODING 12378
SWIDTH 1020 0
DWIDTH 17 0
BBX 12 15 2 -2
BITMAP
0020
06D0
0320
0210
8FE0
7200
0200
0E00
1200
0A00
0A00
0600
0200
0400
1800
ENDCHAR
STARTCHAR 305B
ENCODING 12379
SWIDTH 1020 0
DWIDTH 17 0
BBX 14 13 1 -1
BITMAP
0040
1060
0840
0840
087C
8FC0
7840
0A40
0980
0880
0800
0800
07F0
ENDCHAR
STARTCHAR 305C
ENCODING 12380
SWIDTH 1020 0
DWIDTH 17 0
BBX 14 14 1 -1
BITMAP
0008
0094
0048
1848
0840
0858
8BE0
7C40
0880
0A80
0980
0880
0800
07E0
ENDCHAR
STARTCHAR 305D
ENCODING 12381
SWIDTH 1020 0
DWIDTH 17 0
BBX 11 14 3 -2
BITMAP
0100
4780
3B00
0400
0800
1060
2780
7A00
8400
0800
0800
0800
0400
0380
ENDCHAR
STARTCHAR 305E
ENCODING 12382
SWIDTH 1020 0
DWIDTH 17 0
BBX 13 14 2 -2
BITMAP
00A0
23D8
1D38
0210
0400
0860
33C0
7D00
C600
0400
0800
0400
0600
0180
ENDCHAR
STARTCHAR 305F
ENCODING 12383
SWIDTH 1020 0
DWIDTH 17 0
BBX 12 14 2 -2
BITMAP
0C00
0400
0400
8F00
7800
1020
11C0
1000
2000
2000
2200
4200
4120
40F0
ENDCHAR
STARTCHAR 3060
ENCODING 12384
SWIDTH 1020 0
DWIDTH 17 0
BBX 13 14 2 -2
BITMAP
0830
0468
0820
8F00
7800
1020
11C0
1200
2000
2000
2200
4200
4120
40F0
ENDCHAR
STARTCHAR 3061
ENCODING 12385
SWIDTH 1020 0
DWIDTH 17 0
BBX 11 14 2 -2
BITMAP
0C00
0400
0440
8B80
7C00
0800
0800
11C0
1620
1820
0020
0060
00C0
0700
ENDCHAR
STARTCHAR 3062
ENCODING 12386
SWIDTH 1020 0
DWIDTH 17 0
BBX 13 15 2 -2
BITMAP
0010
0808
0C38
08D0
8F00
7800
1000
1000
13C0
1C20
1020
0020
0040
0080
0700
ENDCHAR
STARTCHAR 3063
ENCODING 12387
SWIDTH 1020 0
DWIDTH 17 0
BBX 9 9 3 -2
BITMAP
0F00
B080
4080
0080
0080
0100
0300
0400
1800
ENDCHAR
STARTCHAR 3064
ENCODING 12388
SWIDTH 1020 0
DWIDTH 17 0
BBX 11 11 2 -1
BITMAP
0380
0C60
F020
0020
0020
0020
0060
0040
0080
0300
0C00
ENDCHAR
STARTCHAR 3065
ENCODING 12389
SWIDTH 1020 0
DWIDTH 17 0
BBX 13 14 2 -1
BITMAP
0020
0058
0028
0010
07C0
B820
6020
0020
0020
0020
0040
0080
0100
0E00
ENDCHAR
STARTCHAR 3066
ENCODING 12390
SWIDTH 1020 0
DWIDTH 17 0
BBX 11 13 2 -2
BITMAP
0060
83C0
7C80
0100
0200
0200
0400
0400
0400
0400
0200
0180
0040
ENDCHAR
STARTCHAR 3067
ENCODING 12391
SWIDTH 1020 0
DWIDTH 17 0
BBX 14 13 2 -2
BITMAP
0060
83C0
7C98
0134
0210
0200
0400
0400
0400
0400
0200
0180
0040
ENDCHAR
STARTCHAR 3068
ENCODING 12392
SWIDTH 1020 0
DWIDTH 17 0
BBX 9 14 4 -2
BITMAP
2000
1000
1000
1000
1200
1300
1C00
1000
2000
4000
8000
8000
4180
3E00
ENDCHAR
STARTCHAR 3069
ENCODING 12393
SWIDTH 1020 0
DWIDTH 17 0
BBX 11 14 4 -2
BITMAP
2040
1120
1080
1040
1200
1300
1C00
1000
2000
4000
8000
8000
4380
3E00
ENDCHAR
STARTCHAR 306A
ENCODING 12394
SWIDTH 1020 0
DWIDTH 17 0
BBX 12 14 2 -2
BITMAP
0C00
0400
0B00
8C00
7080
1060
20D0
2100
2100
4100
4300
0DC0
0920
0F00
ENDCHAR
STARTCHAR 306B
ENCODING 12395
SWIDTH 1020 0
DWIDTH 17 0
BBX 11 13 3 -1
BITMAP
8000
4000
48C0
4700
8000
8000
8000
8800
A800
C800
C800
C7E0
4000
ENDCHAR
STARTCHAR 306C
ENCODING 12396
SWIDTH 1020 0
DWIDTH 17 0
BBX 12 14 3 -2
BITMAP
0400
0200
4200
4200
2D80
3440
6440
A840
9840
9040
9140
6EE0
6290
0100
ENDCHAR
STARTCHAR 306D
ENCODING 12397
SWIDTH 1020 0
DWIDTH 17 0
BBX 12 14 3 -2
BITMAP
3000
1000
1000
1180
FA40
1C20
3020
5020
7020
5040
93C0
9470
1290
2100
ENDCHAR
STARTCHAR 306E
ENCODING 12398
SWIDTH 1020 0
DWIDTH 17 0
BBX 10 12 3 -1
BITMAP
3F80
4440
8440
8840
8840
8840
9040
9040
6080
6080
4100
0600
ENDCHAR
STARTCHAR 306F
ENCODING 12399
SWIDTH 1020 0
DWIDTH 17 0
BBX 11 14 3 -2
BITMAP
8000
4180
4080
40A0
90C0
8F00
8100
A100
C100
C100
C780
9960
8920
8600
ENDCHAR
STARTCHAR 3070
ENCODING 12400
SWIDTH 1020 0
DWIDTH 17 0
BBX 13 15 3 -2
BITMAP
0010
8048
41B0
4090
40A0
90C0
8F00
8100
A100
C100
C100
C780
9960
8920
8600
ENDCHAR
STARTCHAR 3071
ENCODING 12401
SWIDTH 1020 0
DWIDTH 17 0
BBX 13 15 3 -2
BITMAP
0030
8048
41A8
4090
40A0
90C0
8F00
8100
A100
C100
C100
C780
9960
8920
8600
ENDCHAR
STARTCHAR 3072
ENCODING 12402
SWIDTH 1020 0
DWIDTH 17 0
BBX 12 13 2 -2
BITMAP
0440
9840
7040
10C0
20A0
20A0
4090
4090
4110
4100
2100
2200
1C00
ENDCHAR
STARTCHAR 3073
ENCODING 12403
SWIDTH 1020 0
DWIDTH 17 0
BBX 13 15 2 -2
BITMAP
0010
0028
0450
9850
7040
10C0
20A0
20A0
4090
4090
4110
4100
2100
2200
1C00
ENDCHAR
STARTCHAR 3074
ENCODING 12404
SWIDTH 1020 0
DWIDTH 17 0
BBX 14 14 2 -2
BITMAP
001C
0464
9854
7048
10C0
20A0
20A0
4090
4090
4110
4100
2100
2200
1C00
ENDCHAR
STARTCHAR 3075
ENCODING 12405
SWIDTH 1020 0
DWIDTH 17 0
BBX 12 13 2 -1
BITMAP
0800
0400
0300
0180
0600
0800
0400
0400
0A40
1120
2110
C110
5F10
ENDCHAR
STARTCHAR 3076
ENCODING 12406
SWIDTH 1020 0
DWIDTH 17 0
BBX 13 13 2 -1
BITMAP
0800
0420
0318
03B8
0410
0800
0800
0400
0A40
1220
2110
C110
9F10
ENDCHAR
STARTCHAR 3077
ENCODING 12407
SWIDTH 1020 0
DWIDTH 17 0
BBX 14 13 2 -1
BITMAP
0800
0418
0324
01A8
0610
0800
0400
0400
0A40
1120
2110
C110
5F10
ENDCHAR
STARTCHAR 3078
ENCODING 12408
SWIDTH 1020 0
DWIDTH 17 0
BBX 13 11 2 -1
BITMAP
0400
1A00
1200
2100
A080
4080
4040
0020
0030
0010
0018
ENDCHAR
STARTCHAR 3079
ENCODING 12409
SWIDTH 1020 0
DWIDTH 17 0
BBX 13 13 2 -1
BITMAP
0020
0090
0460
1A20
1200
2100
A080
4080
4040
0020
0030
0010
0018
ENDCHAR
STARTCHAR 307A
ENCODING 12410
SWIDTH 1020 0
DWIDTH 17 0
BBX 13 13 2 -1
BITMAP
0060
0090
0460
1A00
1200
2100
A080
4080
4040
0020
0030
0010
0018
ENDCHAR
STARTCHAR 307B
ENCODING 12411
SWIDTH 1020 0
DWIDTH 17 0
BBX 11 14 3 -2
BITMAP
8000
48E0
4700
4080
8080
88E0
8780
A080
C080
C080
C780
C8E0
8920
0600
ENDCHAR
STARTCHAR 307C
ENCODING 12412
SWIDTH 1020 0
DWIDTH 17 0
BBX 14 15 2 -2
BITMAP
000C
8014
4068
2780
4080
4080
44B0
47C0
A080
A080
A080
C380
4CE0
4890
4700
ENDCHAR
STARTCHAR 307D
ENCODING 12413
SWIDTH 1020 0
DWIDTH 17 0
BBX 14 15 2 -2
BITMAP
001C
8024
4074
6F88
4080
4080
48A0
85C0
A280
A080
A080
C380
4CE0
4890
4700
ENDCHAR
STARTCHAR 307E
ENCODING 12414
SWIDTH 1020 0
DWIDTH 17 0
BBX 10 14 3 -2
BITMAP
0C00
0400
04C0
FF00
0400
4400
45C0
3E00
0400
0400
3C00
4780
44C0
3800
ENDCHAR
STARTCHAR 307F
ENCODING 12415
SWIDTH 1020 0
DWIDTH 17 0
BBX 12 14 2 -2
BITMAP
0100
1F00
0200
0240
0420
0420
0840
3F40
50C0
9070
6090
4080
0100
0600
ENDCHAR
STARTCHAR 3080
ENCODING 12416
SWIDTH 1020 0
DWIDTH 17 0
BBX 12 14 2 -2
BITMAP
1000
0800
0B00
8C40
7830
1010
3000
5040
5040
3040
1040
2020
10E0
0F00
ENDCHAR
STARTCHAR 3081
ENCODING 12417
SWIDTH 1020 0
DWIDTH 17 0
BBX 11 14 3 -2
BITMAP
0200
4200
2200
2200
3F80
2440
6440
9820
9840
9040
9840
6880
0100
0600
ENDCHAR
STARTCHAR 3082
ENCODING 12418
SWIDTH 1020 0
DWIDTH 17 0
BBX 11 14 3 -2
BITMAP
1000
0800
0800
9300
7C00
1000
9000
9200
7D80
1040
1040
1040
1060
0F80
ENDCHAR
STARTCHAR 3083
ENCODING 12419
SWIDTH 1020 0
DWIDTH 17 0
BBX 10 12 3 -3
BITMAP
2400
1200
1180
1E40
1040
F040
1780
0800
0800
0800
0800
0C00
ENDCHAR
STARTCHAR 3084
ENCODING 12420
SWIDTH 1020 0
DWIDTH 17 0
BBX 12 14 2 -2
BITMAP
2200
1180
1080
11E0
1610
0810
B810
4A20
09C0
0400
0400
0400
0400
0600
ENDCHAR
STARTCHAR 3085
ENCODING 12421
SWIDTH 1020 0
DWIDTH 17 0
BBX 9 11 4 -2
BITMAP
0C00
8400
8600
9D00
A500
E580
A500
A900
1E00
0800
3000
ENDCHAR
STARTCHAR 3086
ENCODING 12422
SWIDTH 1020 0
DWIDTH 17 0
BBX 11 14 3 -2
BITMAP
0600
0200
8200
87C0
8A40
B220
C220
D220
9240
9280
1F00
0400
0800
1000
ENDCHAR
STARTCHAR 3087
ENCODING 12423
SWIDTH 1020 0
DWIDTH 17 0
BBX 8 11 4 -2
BITMAP
10
08
08
0B
0C
08
08
08
FE
8B
70
ENDCHAR
STARTCHAR 3088
ENCODING 12424
SWIDTH 1020 0
DWIDTH 17 0
BBX 10 14 3 -2
BITMAP
0800
0400
0400
0400
05C0
0600
0400
0400
0400
0400
7F00
8580
4840
3000
ENDCHAR
STARTCHAR 3089
ENCODING 12425
SWIDTH 1020 0
DWIDTH 17 0
BBX 9 14 4 -2
BITMAP
2000
1C00
8400
4000
4000
8000
8000
9F00
E080
C080
0080
0100
0600
1800
ENDCHAR
STARTCHAR 308A
ENCODING 12426
SWIDTH 1020 0
DWIDTH 17 0
BBX 7 14 5 -2
BITMAP
80
88
B4
A4
C2
82
82
82
82
04
04
08
10
60
ENDCHAR
STARTCHAR 308B
ENCODING 12427
SWIDTH 1020 0
DWIDTH 17 0
BBX 10 14 3 -2
BITMAP
0200
5F00
2200
0400
0800
1000
1F80
3040
6040
8040
0880
3680
1300
0C00
ENDCHAR
STARTCHAR 308C
ENCODING 12428
SWIDTH 1020 0
DWIDTH 17 0
BBX 13 14 2 -2
BITMAP
1000
0800
1060
8840
79C0
1240
1440
2880
5080
7080
D088
1050
1020
1000
ENDCHAR
STARTCHAR 308D
ENCODING 12429
SWIDTH 1020 0
DWIDTH 17 0
BBX 10 13 3 -1
BITMAP
4F00
3200
0400
0400
0800
1300
3CC0
6040
C040
0040
0080
0300
1C00
ENDCHAR
STARTCHAR 308E
ENCODING 12430
SWIDTH 1020 0
DWIDTH 17 0
BBX 9 11 4 -2
BITMAP
2000
2000
2000
F000
2F00
7080
A080
E080
A100
2200
2C00
ENDCHAR
STARTCHAR 308F
ENCODING 12431
SWIDTH 1020 0
DWIDTH 17 0
BBX 12 14 2 -2
BITMAP
1000
0800
0800
8C00
7840
0BB0
3C10
3810
2810
5010
9020
1040
1080
1100
ENDCHAR
STARTCHAR 3090
ENCODING 12432
SWIDTH 1020 0
DWIDTH 17 0
BBX 11 13 3 -1
BITMAP
4700
3A00
0400
0400
1F80
2840
C840
9020
9020
9040
67C0
6480
0300
ENDCHAR
STARTCHAR 3091
ENCODING 12433
SWIDTH 1020 0
DWIDTH 17 0
BBX 12 13 2 -1
BITMAP
1780
1900
0600
0FC0
1040
2440
0A80
0F00
0800
10C0
2B20
C610
80E0
ENDCHAR
STARTCHAR 3092
ENCODING 12434
SWIDTH 1020 0
DWIDTH 17 0
BBX 11 14 3 -2
BITMAP
0800
0C00
0B00
FC00
1040
2860
7480
C700
8C00
1400
2400
2000
2080
1FC0
ENDCHAR
STARTCHAR 3093
ENCODING 12435
SWIDTH 1020 0
DWIDTH 17 0
BBX 12 13 2 -2
BITMAP
0400
0600
0400
0800
0800
1000
1600
3A00
2210
2210
4210
C220
81C0
ENDCHAR
STARTCHAR 309B
ENCODING 12443
SWIDTH 1020 0
DWIDTH 17 0
BBX 0 0 0 0
BITMAP
ENDCHAR
STARTCHAR 309C
ENCODING 12444
SWIDTH 1020 0
DWIDTH 17 0
BBX 0 0 0 0
BITMAP
ENDCHAR
STARTCHAR 309D
ENCODING 12445
SWIDTH 1020 0
DWIDTH 17 0
BBX 9 10 3 1
BITMAP
8000
4000
4000
2000
1000
0800
0400
0300
0180
1E80
ENDCHAR
STARTCHAR 309E
ENCODING 12446
SWIDTH 1020 0
DWIDTH 17 0
BBX 10 11 3 0
BITMAP
8080
8240
41C0
2080
3000
1000
0C00
0600
0300
0180
0E00
ENDCHAR
STARTCHAR 30A1
ENCODING 12449
SWIDTH 1020 0
DWIDTH 17 0
BBX 9 11 4 -2
BITMAP
0100
3F80
C100
1200
1400
1800
1000
2000
2000
4000
4000
ENDCHAR
STARTCHAR 30A2
ENCODING 12450
SWIDTH 1020 0
DWIDTH 17 0
BBX 12 13 3 -2
BITMAP
00F0
FF60
0040
0880
0500
0400
0400
0800
0800
1000
1000
2000
4000
ENDCHAR
STARTCHAR 30A3
ENCODING 12451
SWIDTH 1020 0
DWIDTH 17 0
BBX 8 12 3 -3
BITMAP
01
01
02
04
0C
14
24
C4
04
04
04
04
ENDCHAR
STARTCHAR 30A4
ENCODING 12452
SWIDTH 1020 0
DWIDTH 17 0
BBX 10 14 2 -2
BITMAP
0040
0040
0080
0100
0200
0600
0A00
3200
4200
8200
0200
0200
0200
0200
ENDCHAR
STARTCHAR 30A5
ENCODING 12453
SWIDTH 1020 0
DWIDTH 17 0
BBX 8 11 5 -2
BITMAP
10
10
92
FF
82
82
84
04
08
10
60
ENDCHAR
STARTCHAR 30A6
ENCODING 12454
SWIDTH 1020 0
DWIDTH 17 0
BBX 10 14 4 -2
BITMAP
0800
0800
8800
8FC0
F080
8080
8080
8100
0100
0200
0400
0800
1000
2000
ENDCHAR
STARTCHAR 30A7
ENCODING 12455
SWIDTH 1020 0
DWIDTH 17 0
BBX 10 8 3 -1
BITMAP
0F80
3400
0400
0400
0400
0400
0400
FFC0
ENDCHAR
STARTCHAR 30A8
ENCODING 12456
SWIDTH 1020 0
DWIDTH 17 0
BBX 12 10 2 0
BITMAP
01E0
3E00
0200
0200
0200
0200
0200
0200
0400
FFF0
ENDCHAR
STARTCHAR 30A9
ENCODING 12457
SWIDTH 1020 0
DWIDTH 17 0
BBX 10 11 3 -3
BITMAP
0400
0200
0400
7FC0
0400
0C00
1400
2400
4400
8C00
0400
ENDCHAR
STARTCHAR 30AA
ENCODING 12458
SWIDTH 1020 0
DWIDTH 17 0
BBX 13 14 1 -2
BITMAP
0180
0080
0080
0098
3FE0
0180
0280
0480
0880
1080
2080
4480
8380
0080
ENDCHAR
STARTCHAR 30AB
ENCODING 12459
SWIDTH 1020 0
DWIDTH 17 0
BBX 12 14 2 -2
BITMAP
0200
0200
0200
0220
7FF0
0420
0420
0820
0840
1040
1040
2680
4180
8100
ENDCHAR
STARTCHAR 30AC
ENCODING 12460
SWIDTH 1020 0
DWIDTH 17 0
BBX 14 14 2 -2
BITMAP
0208
0214
0208
0420
7FE0
0420
0420
0840
0840
1040
2040
2480
C380
8100
ENDCHAR
STARTCHAR 30AD
ENCODING 12461
SWIDTH 1020 0
DWIDTH 17 0
BBX 12 14 2 -2
BITMAP
0800
0400
0400
07C0
7C00
0400
0230
07C0
FA00
0200
0200
0200
0300
0100
ENDCHAR
STARTCHAR 30AE
ENCODING 12462
SWIDTH 1020 0
DWIDTH 17 0
BBX 13 14 2 -2
BITMAP
0850
0428
0420
07C0
7C00
0400
0230
07C0
FA00
0200
0200
0200
0300
0100
ENDCHAR
STARTCHAR 30AF
ENCODING 12463
SWIDTH 1020 0
DWIDTH 17 0
BBX 10 14 3 -2
BITMAP
0800
0400
0840
0FC0
1040
2080
4080
8100
0200
0600
0C00
1800
2000
C000
ENDCHAR
STARTCHAR 30B0
ENCODING 12464
SWIDTH 1020 0
DWIDTH 17 0
BBX 13 14 3 -2
BITMAP
0810
0C28
0850
1FC0
1080
2080
4100
8100
0200
0400
0800
1000
2000
C000
ENDCHAR
STARTCHAR 30B1
ENCODING 12465
SWIDTH 1020 0
DWIDTH 17 0
BBX 12 14 2 -2
BITMAP
0800
0C00
0800
1070
1F80
2100
4100
8100
0200
0200
0400
0400
0800
1000
ENDCHAR
STARTCHAR 30B2
ENCODING 12466
SWIDTH 1020 0
DWIDTH 17 0
BBX 14 15 2 -2
BITMAP
0010
082C
0C14
0818
1070
1F80
2100
4100
8100
0200
0200
0400
0400
0800
1000
ENDCHAR
STARTCHAR 30B3
ENCODING 12467
SWIDTH 1020 0
DWIDTH 17 0
BBX 9 10 4 0
BITMAP
0380
FC80
0080
0080
0100
0100
0100
0100
0100
FF00
ENDCHAR
STARTCHAR 30B4
ENCODING 12468
SWIDTH 1020 0
DWIDTH 17 0
BBX 13 14 3 -1
BITMAP
0010
0048
0020
0070
7FC0
0040
0080
0080
0080
0080
0080
0080
0180
FE00
ENDCHAR
STARTCHAR 30B5
ENCODING 12469
SWIDTH 1020 0
DWIDTH 17 0
BBX 13 14 2 -2
BITMAP
2080
10C0
0880
1080
11F8
FE80
1080
1080
1080
1100
0100
0200
0400
0800
ENDCHAR
STARTCHAR 30B6
ENCODING 12470
SWIDTH 1020 0
DWIDTH 17 0
BBX 14 15 2 -2
BITMAP
0010
20A8
10DC
0890
1080
11F8
FE80
1080
1080
1080
1100
0100
0200
0400
0800
ENDCHAR
STARTCHAR 30B7
ENCODING 12471
SWIDTH 1020 0
DWIDTH 17 0
BBX 11 12 3 -1
BITMAP
4000
3800
0820
0040
6040
1080
0180
0100
0200
0C00
9800
7000
ENDCHAR
STARTCHAR 30B8
ENCODING 12472
SWIDTH 1020 0
DWIDTH 17 0
BBX 11 15 3 -2
BITMAP
0040
00A0
0040
7000
0820
0020
E040
1080
1080
0100
0200
0400
0800
7000
2000
ENDCHAR
STARTCHAR 30B9
ENCODING 12473
SWIDTH 1020 0
DWIDTH 17 0
BBX 11 12 2 -1
BITMAP
0040
3FE0
0080
0080
0100
0300
0200
0500
0880
1040
2020
C020
ENDCHAR
STARTCHAR 30BA
ENCODING 12474
SWIDTH 1020 0
DWIDTH 17 0
BBX 14 14 2 -1
BITMAP
0008
0024
0050
1FC0
2080
0080
0100
0200
0200
0500
0880
1040
2020
C020
ENDCHAR
STARTCHAR 30BB
ENCODING 12475
SWIDTH 1020 0
DWIDTH 17 0
BBX 12 13 2 -1
BITMAP
1000
0800
0800
0830
08E0
0F40
3840
C880
0900
0800
0800
0800
07E0
ENDCHAR
STARTCHAR 30BC
ENCODING 12476
SWIDTH 1020 0
DWIDTH 17 0
BBX 14 13 2 -1
BITMAP
100C
0814
0808
0830
08E0
0F60
1840
E880
0900
0800
0800
0800
07E0
ENDCHAR
STARTCHAR 30BD
ENCODING 12477
SWIDTH 1020 0
DWIDTH 17 0
BBX 10 13 3 -2
BITMAP
0040
8040
4040
20C0
2080
2080
0100
0200
0200
0400
0800
1000
2000
ENDCHAR
STARTCHAR 30BE
ENCODING 12478
SWIDTH 1020 0
DWIDTH 17 0
BBX 13 15 3 -2
BITMAP
0010
0028
0090
8040
4040
40C0
2080
2080
0100
0100
0200
0400
0800
1000
2000
ENDCHAR
STARTCHAR 30BF
ENCODING 12479
SWIDTH 1020 0
DWIDTH 17 0
BBX 10 14 3 -2
BITMAP
0400
0400
0840
0FC0
1040
3080
4880
8500
0200
0200
0400
0800
1000
6000
ENDCHAR
STARTCHAR 30C0
ENCODING 12480
SWIDTH 1020 0
DWIDTH 17 0
BBX 13 14 3 -1
BITMAP
0458
0C38
0850
1FC0
1080
2080
5900
8500
0200
0400
0400
0800
1000
6000
ENDCHAR
STARTCHAR 30C1
ENCODING 12481
SWIDTH 1020 0
DWIDTH 17 0
BBX 12 14 2 -2
BITMAP
0080
01C0
0600
3A00
0200
0210
FFE0
0200
0200
0400
0400
0800
0800
3000
ENDCHAR
STARTCHAR 30C2
ENCODING 12482
SWIDTH 1020 0
DWIDTH 17 0
BBX 14 14 2 -2
BITMAP
0080
01D0
062C
3A10
0200
0230
FFC8
0200
0200
0400
0400
0800
0800
1000
ENDCHAR
STARTCHAR 30C3
ENCODING 12483
SWIDTH 1020 0
DWIDTH 17 0
BBX 8 10 4 -2
BITMAP
11
91
49
42
02
04
04
08
10
60
ENDCHAR
STARTCHAR 30C4
ENCODING 12484
SWIDTH 1020 0
DWIDTH 17 0
BBX 10 13 3 -2
BITMAP
0040
1840
8840
4440
4480
2080
0100
0100
0200
0400
0400
0800
3000
ENDCHAR
STARTCHAR 30C5
ENCODING 12485
SWIDTH 1020 0
DWIDTH 17 0
BBX 13 15 3 -2
BITMAP
0010
0028
0050
1840
8840
4440
4480
2080
0100
0100
0200
0400
0400
0800
3000
ENDCHAR
STARTCHAR 30C6
ENCODING 12486
SWIDTH 1020 0
DWIDTH 17 0
BBX 12 13 3 -2
BITMAP
1F80
2000
0000
00E0
FF10
0400
0400
0400
0800
0800
1000
1000
2000
ENDCHAR
STARTCHAR 30C7
ENCODING 12487
SWIDTH 1020 0
DWIDTH 17 0
BBX 14 15 2 -2
BITMAP
0010
002C
0FD4
1018
0000
0070
FF80
0200
0200
0200
0400
0400
0800
0800
1000
ENDCHAR
STARTCHAR 30C8
ENCODING 12488
SWIDTH 1020 0
DWIDTH 17 0
BBX 6 14 6 -2
BITMAP
80
80
80
80
80
C0
B0
8C
84
80
80
80
80
80
ENDCHAR
STARTCHAR 30C9
ENCODING 12489
SWIDTH 1020 0
DWIDTH 17 0
BBX 8 15 6 -2
BITMAP
04
8B
85
84
80
80
80
F0
8C
84
80
80
80
80
80
ENDCHAR
STARTCHAR 30CA
ENCODING 12490
SWIDTH 1020 0
DWIDTH 17 0
BBX 13 14 2 -2
BITMAP
0200
0300
0200
0200
02F0
FF08
0200
0200
0400
0400
0400
0800
1000
2000
ENDCHAR
STARTCHAR 30CB
ENCODING 12491
SWIDTH 1020 0
DWIDTH 17 0
BBX 11 10 3 0
BITMAP
0780
3800
0000
0000
0000
0000
0000
0000
00C0
FF20
ENDCHAR
STARTCHAR 30CC
ENCODING 12492
SWIDTH 1020 0
DWIDTH 17 0
BBX 10 13 3 -2
BITMAP
00C0
7F40
0080
0080
1100
0B00
0600
0700
0900
1000
2000
4000
8000
ENDCHAR
STARTCHAR 30CD
ENCODING 12493
SWIDTH 1020 0
DWIDTH 17 0
BBX 12 14 2 -2
BITMAP
0600
0300
0000
01E0
3EC0
0100
0200
0600
1AE0
2230
C210
0200
0200
0200
ENDCHAR
STARTCHAR 30CE
ENCODING 12494
SWIDTH 1020 0
DWIDTH 17 0
BBX 9 12 3 0
BITMAP
0080
0080
0100
0100
0200
0200
0400
0800
0800
1000
2000
C000
ENDCHAR
STARTCHAR 30CF
ENCODING 12495
SWIDTH 1020 0
DWIDTH 17 0
BBX 11 12 2 -1
BITMAP
0100
1100
0880
0880
1040
1040
1040
2020
2020
4020
4020
8020
ENDCHAR
STARTCHAR 30D0
ENCODING 12496
SWIDTH 1020 0
DWIDTH 17 0
BBX 12 13 2 -1
BITMAP
0030
0150
1120
0880
0880
1040
1040
1040
2020
2020
4020
4020
8020
ENDCHAR
STARTCHAR 30D1
ENCODING 12497
SWIDTH 1020 0
DWIDTH 17 0
BBX 12 13 2 -1
BITMAP
0070
0150
1150
08A0
0880
1080
1040
1040
2020
2020
4020
4020
8020
ENDCHAR
STARTCHAR 30D2
ENCODING 12498
SWIDTH 1020 0
DWIDTH 17 0
BBX 8 13 5 -1
BITMAP
80
80
80
80
86
8C
B0
C0
80
80
80
80
7F
ENDCHAR
STARTCHAR 30D3
ENCODING 12499
SWIDTH 1020 0
DWIDTH 17 0
BBX 10 13 4 -1
BITMAP
8080
8140
C080
8000
8300
8C00
B000
C000
8000
8000
8000
8000
7F80
ENDCHAR
STARTCHAR 30D4
ENCODING 12500
SWIDTH 1020 0
DWIDTH 17 0
BBX 10 13 4 -1
BITMAP
8180
8240
C280
8100
8300
8C00
B000
C000
8000
8000
8000
8000
7F80
ENDCHAR
STARTCHAR 30D5
ENCODING 12501
SWIDTH 1020 0
DWIDTH 17 0
BBX 11 13 3 -2
BITMAP
0040
1FE0
E040
0080
0080
0100
0100
0200
0400
0400
0800
3000
4000
ENDCHAR
STARTCHAR 30D6
ENCODING 12502
SWIDTH 1020 0
DWIDTH 17 0
BBX 13 15 3 -2
BITMAP
0010
0028
0050
1FC0
E080
0080
0080
0100
0200
0200
0400
0800
1000
2000
4000
ENDCHAR
STARTCHAR 30D7
ENCODING 12503
SWIDTH 1020 0
DWIDTH 17 0
BBX 13 15 3 -2
BITMAP
0038
0048
0028
01D0
FEC0
0080
0080
0100
0100
0200
0400
0400
0800
1000
6000
ENDCHAR
STARTCHAR 30D8
ENCODING 12504
SWIDTH 1020 0
DWIDTH 17 0
BBX 12 11 2 0
BITMAP
0400
0A00
1200
1100
2080
E080
4040
0020
0030
0010
0010
ENDCHAR
STARTCHAR 30D9
ENCODING 12505
SWIDTH 1020 0
DWIDTH 17 0
BBX 12 13 2 -1
BITMAP
0020
0090
0440
0A00
1200
1100
2080
E080
4040
0020
0030
0010
0010
ENDCHAR
STARTCHAR 30DA
ENCODING 12506
SWIDTH 1020 0
DWIDTH 17 0
BBX 12 13 2 -1
BITMAP
00E0
0120
0CA0
1440
1200
2100
2100
C080
4040
0060
0020
0010
0010
ENDCHAR
STARTCHAR 30DB
ENCODING 12507
SWIDTH 1020 0
DWIDTH 17 0
BBX 12 14 2 -2
BITMAP
0200
0200
0200
03F0
7E00
0200
1280
1240
2220
4230
4210
9210
0E00
0200
ENDCHAR
STARTCHAR 30DC
ENCODING 12508
SWIDTH 1020 0
DWIDTH 17 0
BBX 12 15 2 -2
BITMAP
0020
0250
0220
0200
03F0
7E00
0200
1280
1240
2220
4230
4210
9210
0E00
0200
ENDCHAR
STARTCHAR 30DD
ENCODING 12509
SWIDTH 1020 0
DWIDTH 17 0
BBX 12 15 2 -2
BITMAP
0070
0290
0250
0220
03F0
7E00
0200
1280
1240
2220
4230
4210
9210
0E00
0200
ENDCHAR
STARTCHAR 30DE
ENCODING 12510
SWIDTH 1020 0
DWIDTH 17 0
BBX 11 11 3 -1
BITMAP
07E0
F840
0080
0080
4100
2200
1C00
0C00
0400
0200
0200
ENDCHAR
STARTCHAR 30DF
ENCODING 12511
SWIDTH 1020 0
DWIDTH 17 0
BBX 9 14 4 -2
BITMAP
4000
3800
0600
0100
0000
6000
1C00
0600
0000
0000
C000
3C00
0700
0080
ENDCHAR
STARTCHAR 30E0
ENCODING 12512
SWIDTH 1020 0
DWIDTH 17 0
BBX 11 13 3 -2
BITMAP
0800
0400
0400
0800
0800
0800
1000
1100
2080
2080
41C0
7E20
C020
ENDCHAR
STARTCHAR 30E1
ENCODING 12513
SWIDTH 1020 0
DWIDTH 17 0
BBX 10 14 2 -2
BITMAP
0080
0040
0040
0080
1080
0D00
0200
0300
0480
08C0
1000
2000
4000
8000
ENDCHAR
STARTCHAR 30E2
ENCODING 12514
SWIDTH 1020 0
DWIDTH 17 0
BBX 12 12 2 -1
BITMAP
01C0
3E00
0400
0400
0400
07F0
F800
0800
0800
0800
0400
03E0
ENDCHAR
STARTCHAR 30E3
ENCODING 12515
SWIDTH 1020 0
DWIDTH 17 0
BBX 10 11 3 -3
BITMAP
1000
1000
1040
0F80
3880
C900
0A00
0800
0400
0400
0400
ENDCHAR
STARTCHAR 30E4
ENCODING 12516
SWIDTH 1020 0
DWIDTH 17 0
BBX 12 14 2 -2
BITMAP
0800
0800
0810
0470
07A0
3C40
C440
0480
0400
0200
0200
0200
0200
0200
ENDCHAR
STARTCHAR 30E5
ENCODING 12517
SWIDTH 1020 0
DWIDTH 17 0
BBX 10 8 3 -1
BITMAP
3F00
0100
0200
0200
0200
0200
0280
FF40
ENDCHAR
STARTCHAR 30E6
ENCODING 12518
SWIDTH 1020 0
DWIDTH 17 0
BBX 12 11 2 0
BITMAP
0080
1FC0
0080
0080
0080
0080
0100
0100
0100
0130
FFC0
ENDCHAR
STARTCHAR 30E7
ENCODING 12519
SWIDTH 1020 0
DWIDTH 17 0
BBX 8 10 4 -2
BITMAP
01
7F
01
01
7E
02
02
02
FE
02
ENDCHAR
STARTCHAR 30E8
ENCODING 12520
SWIDTH 1020 0
DWIDTH 17 0
BBX 9 12 4 -1
BITMAP
0080
FF80
0100
0100
0100
FF00
0100
0100
0100
0100
FF00
0100
ENDCHAR
STARTCHAR 30E9
ENCODING 12521
SWIDTH 1020 0
DWIDTH 17 0
BBX 10 13 3 -2
BITMAP
3F80
0000
0000
07C0
F8C0
0080
0180
0100
0200
0400
0800
1000
2000
ENDCHAR
STARTCHAR 30EA
ENCODING 12522
SWIDTH 1020 0
DWIDTH 17 0
BBX 7 14 5 -2
BITMAP
04
82
82
82
82
84
84
84
84
04
08
08
10
20
ENDCHAR
STARTCHAR 30EB
ENCODING 12523
SWIDTH 1020 0
DWIDTH 17 0
BBX 12 13 2 -1
BITMAP
0200
0100
1100
1200
1A00
1200
1210
1210
2220
2240
2280
4300
8200
ENDCHAR
STARTCHAR 30EC
ENCODING 12524
SWIDTH 1020 0
DWIDTH 17 0
BBX 9 13 5 -2
BITMAP
8000
8000
8000
8000
8080
8100
8200
8400
8800
9000
A000
C000
8000
ENDCHAR
STARTCHAR 30ED
ENCODING 12525
SWIDTH 1020 0
DWIDTH 17 0
BBX 9 12 4 -1
BITMAP
8000
8380
FD00
8100
8100
8100
8100
8100
8100
8100
FE00
8000
ENDCHAR
STARTCHAR 30EE
ENCODING 12526
SWIDTH 1020 0
DWIDTH 17 0
BBX 8 11 4 -2
BITMAP
80
87
79
81
82
82
02
04
08
10
20
ENDCHAR
STARTCHAR 30EF
ENCODING 12527
SWIDTH 1020 0
DWIDTH 17 0
BBX 9 13 4 -2
BITMAP
8080
FF80
8080
8080
8100
8100
8100
0200
0200
0400
0800
1000
6000
ENDCHAR
STARTCHAR 30F0
ENCODING 12528
SWIDTH 1020 0
DWIDTH 17 0
BBX 12 14 2 -2
BITMAP
0100
0100
0100
3FE0
0100
1100
1100
1100
1100
FFF0
0100
0100
0100
0300
ENDCHAR
STARTCHAR 30F1
ENCODING 12529
SWIDTH 1020 0
DWIDTH 17 0
BBX 12 10 2 0
BITMAP
07E0
3840
0080
0500
0200
0200
0200
0200
0200
FFF0
ENDCHAR
STARTCHAR 30F2
ENCODING 12530
SWIDTH 1020 0
DWIDTH 17 0
BBX 9 13 4 -2
BITMAP
0080
FF80
0180
0100
0F00
F200
0200
0400
0400
0800
1000
2000
4000
ENDCHAR
STARTCHAR 30F3
ENCODING 12531
SWIDTH 1020 0
DWIDTH 17 0
BBX 10 11 4 -1
BITMAP
8040
4040
2080
2080
0100
0200
0400
0C00
1800
A000
C000
ENDCHAR
STARTCHAR 30F4
ENCODING 12532
SWIDTH 1020 0
DWIDTH 17 0
BBX 13 15 3 -2
BITMAP
0020
0858
0430
8420
87C0
7840
4080
4080
C080
0100
0100
0200
0400
0800
3000
ENDCHAR
STARTCHAR 30F5
ENCODING 12533
SWIDTH 1020 0
DWIDTH 17 0
BBX 9 11 3 -2
BITMAP
0400
0400
0880
7F80
0880
1100
1100
2100
2100
4E00
8200
ENDCHAR
STARTCHAR 30F6
ENCODING 12534
SWIDTH 1020 0
DWIDTH 17 0
BBX 9 11 4 -2
BITMAP
2000
3000
2000
7F80
4400
8400
0800
0800
1000
1000
6000
ENDCHAR
STARTCHAR 30FC
ENCODING 12540
SWIDTH 1020 0
DWIDTH 17 0
BBX 14 2 1 4
BITMAP
0078
FF84
ENDCHAR
STARTCHAR 30FD
ENCODING 12541
SWIDTH 1020 0
DWIDTH 17 0
BBX 8 9 4 1
BITMAP
80
40
30
08
04
06
03
01
01
ENDCHAR
STARTCHAR 30FE
ENCODING 12542
SWIDTH 1020 0
DWIDTH 17 0
BBX 10 11 4 0
BITMAP
0180
0240
8140
4100
3000
1800
0C00
0600
0600
0200
0200
ENDCHAR
STARTCHAR 3105
ENCODING 12549
SWIDTH 1020 0
DWIDTH 17 0
BBX 11 14 3 -2
BITMAP
2000
2000
4000
C0C0
FF60
C060
0040
0040
0040
00C0
0080
0180
0F00
0200
ENDCHAR
STARTCHAR 3106
ENCODING 12550
SWIDTH 1020 0
DWIDTH 17 0
BBX 11 14 3 -2
BITMAP
2000
3000
2000
41C0
DE60
E0C0
0080
0180
1B00
0600
0700
19C0
30C0
C040
ENDCHAR
STARTCHAR 3107
ENCODING 12551
SWIDTH 1020 0
DWIDTH 17 0
BBX 12 12 2 -1
BITMAP
0030
9FF0
6030
4010
4010
4010
4010
4010
4030
4030
4030
0020
ENDCHAR
STARTCHAR 3108
ENCODING 12552
SWIDTH 1020 0
DWIDTH 17 0
BBX 12 10 2 1
BITMAP
01F0
FE00
6000
6000
2000
2000
2000
2000
2000
1FF0
ENDCHAR
STARTCHAR 3109
ENCODING 12553
SWIDTH 1020 0
DWIDTH 17 0
BBX 12 14 2 -2
BITMAP
1000
1800
2000
2020
4FD0
F810
0C30
0830
1020
1060
2040
40C0
8780
0100
ENDCHAR
STARTCHAR 310A
ENCODING 12554
SWIDTH 1020 0
DWIDTH 17 0
BBX 12 13 2 -2
BITMAP
0400
0300
0200
0200
0400
05F0
FE00
4800
0900
18C0
1060
33B0
3C20
ENDCHAR
STARTCHAR 310B
ENCODING 12555
SWIDTH 1020 0
DWIDTH 17 0
BBX 10 14 3 -2
BITMAP
0E00
F700
0400
0C00
0880
1F40
0040
00C0
0080
0080
0180
0300
1E00
0400
ENDCHAR
STARTCHAR 310C
ENCODING 12556
SWIDTH 1020 0
DWIDTH 17 0
BBX 11 14 3 -2
BITMAP
0600
2600
2400
4400
45E0
DE20
E860
0840
1040
1040
20C0
4080
8780
0300
ENDCHAR
STARTCHAR 310D
ENCODING 12557
SWIDTH 1020 0
DWIDTH 17 0
BBX 9 13 4 -2
BITMAP
2100
3180
2100
6300
4200
C400
8400
8800
8400
4600
6300
3300
3180
ENDCHAR
STARTCHAR 310E
ENCODING 12558
SWIDTH 1020 0
DWIDTH 17 0
BBX 13 14 2 -2
BITMAP
0010
FFF8
8400
0800
0840
1FB0
0020
0020
0020
0060
0040
00C0
0780
0100
ENDCHAR
STARTCHAR 310F
ENCODING 12559
SWIDTH 1020 0
DWIDTH 17 0
BBX 13 12 2 -1
BITMAP
00F0
3F08
3000
3000
3000
2000
2000
2000
6000
4000
8000
8000
ENDCHAR
STARTCHAR 3110
ENCODING 12560
SWIDTH 1020 0
DWIDTH 17 0
BBX 8 14 4 -2
BITMAP
03
81
41
41
41
41
41
43
4D
71
01
01
03
01
ENDCHAR
STARTCHAR 3111
ENCODING 12561
SWIDTH 1020 0
DWIDTH 17 0
BBX 7 14 5 -2
BITMAP
04
06
08
10
20
20
40
80
40
20
10
0C
0C
04
ENDCHAR
STARTCHAR 3112
ENCODING 12562
SWIDTH 1020 0
DWIDTH 17 0
BBX 12 12 2 -1
BITMAP
01F0
FF00
0300
0300
0300
0300
0300
0300
0300
0300
0300
0100
ENDCHAR
STARTCHAR 3113
ENCODING 12563
SWIDTH 1020 0
DWIDTH 17 0
BBX 11 12 3 -1
BITMAP
0C00
8440
4440
4440
4440
4440
5FC0
6400
0400
0400
07E0
F800
ENDCHAR
STARTCHAR 3114
ENCODING 12564
SWIDTH 1020 0
DWIDTH 17 0
BBX 8 16 4 -3
BITMAP
02
03
06
0C
19
33
46
04
0C
14
64
84
04
04
06
04
ENDCHAR
STARTCHAR 3115
ENCODING 12565
SWIDTH 1020 0
DWIDTH 17 0
BBX 11 13 3 -1
BITMAP
0040
3FE0
0040
0040
00C0
3F00
3000
2000
2000
2000
6000
4000
8000
ENDCHAR
STARTCHAR 3116
ENCODING 12566
SWIDTH 1020 0
DWIDTH 17 0
BBX 10 12 3 -2
BITMAP
0FC0
F040
4040
4040
5040
4C40
4440
4240
4040
4040
7FC0
60C0
ENDCHAR
STARTCHAR 3117
ENCODING 12567
SWIDTH 1020 0
DWIDTH 17 0
BBX 11 14 3 -2
BITMAP
0040
0FE0
F060
1040
1040
1040
1080
1380
1100
1000
1000
1000
1000
1000
ENDCHAR
STARTCHAR 3118
ENCODING 12568
SWIDTH 1020 0
DWIDTH 17 0
BBX 12 14 2 -2
BITMAP
0600
0600
0600
0470
3F80
C400
0400
07E0
0820
0060
0040
0080
0100
0200
ENDCHAR
STARTCHAR 3119
ENCODING 12569
SWIDTH 1020 0
DWIDTH 17 0
BBX 11 12 3 0
BITMAP
0400
0600
0C00
0800
1800
1000
3000
2080
6040
C7E0
F820
C020
ENDCHAR
STARTCHAR 311A
ENCODING 12570
SWIDTH 1020 0
DWIDTH 17 0
BBX 11 14 3 -2
BITMAP
0040
C0E0
60C0
3180
1100
0A00
0400
0400
0400
0400
0400
0400
0600
0400
ENDCHAR
STARTCHAR 311B
ENCODING 12571
SWIDTH 1020 0
DWIDTH 17 0
BBX 12 12 2 -1
BITMAP
01F0
FE00
0200
0200
0600
1E00
3000
2000
2000
3020
18E0
0F80
ENDCHAR
STARTCHAR 311C
ENCODING 12572
SWIDTH 1020 0
DWIDTH 17 0
BBX 12 14 2 -2
BITMAP
0600
0200
0200
03F0
FE00
4200
0200
1E00
3000
2000
2000
3020
1DC0
0700
ENDCHAR
STARTCHAR 311D
ENCODING 12573
SWIDTH 1020 0
DWIDTH 17 0
BBX 13 12 2 -1
BITMAP
00C0
18C0
10C0
10C0
11F8
FE80
1080
1080
0880
0800
0800
07E0
ENDCHAR
STARTCHAR 311E
ENCODING 12574
SWIDTH 1020 0
DWIDTH 17 0
BBX 11 13 3 -1
BITMAP
0040
3FE0
C400
0400
4400
4FC0
FCC0
C880
1080
1080
2100
4100
C200
ENDCHAR
STARTCHAR 311F
ENCODING 12575
SWIDTH 1020 0
DWIDTH 17 0
BBX 13 10 2 1
BITMAP
6000
9000
1000
0800
0400
0600
0300
0180
00E0
0038
ENDCHAR
STARTCHAR 3120
ENCODING 12576
SWIDTH 1020 0
DWIDTH 17 0
BBX 10 12 3 0
BITMAP
0800
1800
1080
2180
6300
6600
1C00
0800
1100
2080
6F40
F040
ENDCHAR
STARTCHAR 3121
ENCODING 12577
SWIDTH 1020 0
DWIDTH 17 0
BBX 11 12 3 -1
BITMAP
01C0
1EC0
7080
0080
0180
2300
1A00
0600
0F80
18C0
2060
C020
ENDCHAR
STARTCHAR 3122
ENCODING 12578
SWIDTH 1020 0
DWIDTH 17 0
BBX 10 14 3 -2
BITMAP
0180
7EC0
2180
2100
4100
4FC0
F040
0040
00C0
0080
0180
0100
0200
0400
ENDCHAR
STARTCHAR 3123
ENCODING 12579
SWIDTH 1020 0
DWIDTH 17 0
BBX 11 12 3 -1
BITMAP
6000
4000
4000
4000
8040
87E0
F820
0040
0040
0080
0100
0200
ENDCHAR
STARTCHAR 3124
ENCODING 12580
SWIDTH 1020 0
DWIDTH 17 0
BBX 13 14 2 -2
BITMAP
0200
0300
0200
0200
0670
1F80
E600
0E00
0A00
1A00
1200
2200
4230
81F8
ENDCHAR
STARTCHAR 3125
ENCODING 12581
SWIDTH 1020 0
DWIDTH 17 0
BBX 12 12 2 -1
BITMAP
0400
0600
0400
0C00
0800
1800
1000
2000
2000
40F0
FF10
4000
ENDCHAR
STARTCHAR 3126
ENCODING 12582
SWIDTH 1020 0
DWIDTH 17 0
BBX 13 12 2 -1
BITMAP
2300
1300
1200
1200
1200
3200
2200
2200
2200
4200
4210
83F8
ENDCHAR
STARTCHAR 3127
ENCODING 12583
SWIDTH 1020 0
DWIDTH 17 0
BBX 13 3 2 4
BITMAP
0010
0FF8
F000
ENDCHAR
STARTCHAR 3128
ENCODING 12584
SWIDTH 1020 0
DWIDTH 17 0
BBX 11 13 3 -1
BITMAP
0200
0180
0100
0100
0300
6200
1A00
0400
0F00
0980
10C0
2060
C020
ENDCHAR
STARTCHAR 3129
ENCODING 12585
SWIDTH 1020 0
DWIDTH 17 0
BBX 12 11 2 -1
BITMAP
0020
0030
C030
4030
4030
4030
4030
4030
4030
43F0
7C30
ENDCHAR
STARTCHAR 3231
ENCODING 12849
SWIDTH 1020 0
DWIDTH 17 0
BBX 17 16 0 -3
BITMAP
200400
482200
482200
88A100
88A900
BEF100
952100
9A2480
ABF880
A87080
C8B100
88A900
492700
4A2200
282200
202400
ENDCHAR
STARTCHAR 32A3
ENCODING 12963
SWIDTH 1020 0
DWIDTH 17 0
BBX 17 16 0 -3
BITMAP
07F000
180C00
201A00
4FE200
408100
808100
848080
847880
848080
848100
848100
448500
5FFA00
200400
180800
07F000
ENDCHAR
STARTCHAR 338E
ENCODING 13198
SWIDTH 1020 0
DWIDTH 17 0
BBX 16 11 0 -3
BITMAP
F63F
4A22
4A42
4A42
4A26
4A38
4A40
4A3E
DB43
0041
007E
ENDCHAR
STARTCHAR 338F
ENCODING 13199
SWIDTH 1020 0
DWIDTH 17 0
BBX 16 15 0 -3
BITMAP
4000
4000
4000
4000
4E3B
4844
4846
5846
6844
4C38
4440
463C
E742
0081
007E
ENDCHAR
STARTCHAR 339C
ENCODING 13212
SWIDTH 1020 0
DWIDTH 17 0
BBX 17 9 0 -1
BITMAP
7E5F00
C96900
494900
494900
494900
494900
494900
494900
FB6F80
ENDCHAR
STARTCHAR 339D
ENCODING 13213
SWIDTH 1020 0
DWIDTH 17 0
BBX 15 9 1 -1
BITMAP
39EC
4492
8092
8092
8092
8092
8492
4492
39B6
ENDCHAR
STARTCHAR 339E
ENCODING 13214
SWIDTH 1020 0
DWIDTH 17 0
BBX 16 13 0 -1
BITMAP
4000
4000
4000
4000
4E7E
4849
4849
5849
6849
4C49
4449
4649
E77B
ENDCHAR
STARTCHAR 33A1
ENCODING 13217
SWIDTH 1020 0
DWIDTH 17 0
BBX 14 14 2 -1
BITMAP
0018
0024
0018
002C
0010
DCE0
6330
4210
4210
4210
4210
4210
4210
EF78
ENDCHAR
STARTCHAR 33C4
ENCODING 13252
SWIDTH 1020 0
DWIDTH 17 0
BBX 15 9 1 -1
BITMAP
3C3C
4242
8040
8080
8080
8080
C242
6462
181C
ENDCHAR
STARTCHAR 33CE
ENCODING 13262
SWIDTH 1020 0
DWIDTH 17 0
BBX 15 13 1 -1
BITMAP
CD86
88CC
90CC
90CC
A0D4
A0D4
F0F4
90B4
90B4
88B4
88A4
84A4
CFEE
ENDCHAR
STARTCHAR 33D1
ENCODING 13265
SWIDTH 1020 0
DWIDTH 17 0
BBX 14 13 1 -1
BITMAP
2000
E000
2000
2000
2270
2788
2308
2208
2208
2208
2208
2208
F79C
ENDCHAR
STARTCHAR 33D2
ENCODING 13266
SWIDTH 1020 0
DWIDTH 17 0
BBX 16 15 0 -3
BITMAP
2000
E000
2000
2000
271F
28A2
28A2
28A2
28A2
289C
28A0
291E
7621
0041
003E
ENDCHAR
STARTCHAR 33D5
ENCODING 13269
SWIDTH 1020 0
DWIDTH 17 0
BBX 15 13 1 -1
BITMAP
0044
004C
0004
0004
FE44
92C4
9244
9244
9244
9244
9244
9244
FEEE
ENDCHAR
STARTCHAR 4E00
ENCODING 19968
SWIDTH 1020 0
DWIDTH 17 0
BBX 14 2 1 4
BITMAP
003C
FFC0
ENDCHAR
STARTCHAR 4E01
ENCODING 19969
SWIDTH 1020 0
DWIDTH 17 0
BBX 13 13 2 -3
BITMAP
01F8
FE00
0200
0200
0200
0200
0200
0200
0200
0200
0200
0A00
0600
ENDCHAR
STARTCHAR 4E03
ENCODING 19971
SWIDTH 1020 0
DWIDTH 17 0
BBX 14 14 1 -2
BITMAP
0200
0200
0400
0400
0400
043C
3FC0
C400
0400
0408
0408
0408
0208
01FC
ENDCHAR
STARTCHAR 4E07
ENCODING 19975
SWIDTH 1020 0
DWIDTH 17 0
BBX 13 13 2 -2
BITMAP
0FF8
F400
0400
0400
07C0
0840
0840
0880
1080
1080
2280
4100
8100
ENDCHAR
STARTCHAR 4E08
ENCODING 19976
SWIDTH 1020 0
DWIDTH 17 0
BBX 13 16 2 -3
BITMAP
0100
0100
0100
0100
0170
FF88
2100
1200
0A00
0600
0200
0600
0900
10C0
6078
8000
ENDCHAR
STARTCHAR 4E09
ENCODING 19977
SWIDTH 1020 0
DWIDTH 17 0
BBX 14 11 1 -1
BITMAP
3FF0
0000
0000
0000
0020
0FC0
0000
0000
0000
001C
FFE0
ENDCHAR
STARTCHAR 4E0A
ENCODING 19978
SWIDTH 1020 0
DWIDTH 17 0
BBX 15 14 1 -1
BITMAP
0200
0300
0200
0200
0200
0200
0230
03C0
0200
0200
0200
0200
0200
FFFE
ENDCHAR
STARTCHAR 4E0B
ENCODING 19979
SWIDTH 1020 0
DWIDTH 17 0
BBX 13 14 2 -3
BITMAP
FFF8
0400
0400
0400
0480
0460
0410
0400
0400
0400
0400
0400
0400
0400
ENDCHAR
STARTCHAR 4E0C
ENCODING 19980
SWIDTH 1020 0
DWIDTH 17 0
BBX 13 13 2 -2
BITMAP
01F8
FE80
0880
0880
0880
0880
0880
0880
1080
1080
2080
4080
8080
ENDCHAR
STARTCHAR 4E0D
ENCODING 19981
SWIDTH 1020 0
DWIDTH 17 0
BBX 13 14 2 -3
BITMAP
0FF8
F100
0200
0400
0400
0C40
1420
6410
8408
0400
0400
0400
0400
0400
ENDCHAR
STARTCHAR 4E0E
ENCODING 19982
SWIDTH 1020 0
DWIDTH 17 0
BBX 12 15 2 -2
BITMAP
1000
1000
1FC0
1000
1000
13F0
2C20
0020
00A0
7F20
8040
0040
0140
0080
0080
ENDCHAR
STARTCHAR 4E0F
ENCODING 19983
SWIDTH 1020 0
DWIDTH 17 0
BBX 11 14 3 -2
BITMAP
7FE0
8800
8840
4BC0
4C40
4840
4980
7680
0080
0080
0080
0500
0300
0100
ENDCHAR
STARTCHAR 4E10
ENCODING 19984
SWIDTH 1020 0
DWIDTH 17 0
BBX 13 15 2 -3
BITMAP
0010
FFE8
0400
4400
23E0
2400
2410
3FE0
0020
0020
0020
0220
0140
00C0
0080
ENDCHAR
STARTCHAR 4E11
ENCODING 19985
SWIDTH 1020 0
DWIDTH 17 0
BBX 15 13 1 -1
BITMAP
0020
1FF0
0220
0220
0220
0220
04FE
FF20
0420
0420
0440
0440
7FFC
ENDCHAR
STARTCHAR 4E14
ENCODING 19988
SWIDTH 1020 0
DWIDTH 17 0
BBX 15 14 1 -2
BITMAP
0820
0FE0
0820
0820
0820
0FA0
0840
0840
08C0
0F40
0840
0840
085C
F7A2
ENDCHAR
STARTCHAR 4E15
ENCODING 19989
SWIDTH 1020 0
DWIDTH 17 0
BBX 13 13 2 -2
BITMAP
0FF0
7100
0200
0400
0C80
1440
2430
4410
8400
0400
0400
0478
FB80
ENDCHAR
STARTCHAR 4E16
ENCODING 19990
SWIDTH 1020 0
DWIDTH 17 0
BBX 14 14 1 -1
BITMAP
0040
0220
1220
1240
1240
124C
FFF0
1240
1240
1240
11E0
1200
1000
1FF8
ENDCHAR
STARTCHAR 4E18
ENCODING 19992
SWIDTH 1020 0
DWIDTH 17 0
BBX 14 13 1 -1
BITMAP
0020
10C0
1700
1800
1000
1070
0FC0
0840
0840
0840
0840
0880
FFFC
ENDCHAR
STARTCHAR 4E19
ENCODING 19993
SWIDTH 1020 0
DWIDTH 17 0
BBX 13 14 2 -3
BITMAP
1FF8
E200
8200
43F0
7C20
4620
4920
48A0
50A0
6020
4020
40A0
4060
4000
ENDCHAR
STARTCHAR 4E1E
ENCODING 19998
SWIDTH 1020 0
DWIDTH 17 0
BBX 14 14 2 -2
BITMAP
0080
1F80
0100
0620
0420
3A40
5380
1280
2240
4220
921C
8E00
0430
FBC0
ENDCHAR
STARTCHAR 4E1F
ENCODING 19999
SWIDTH 1020 0
DWIDTH 17 0
BBX 14 14 1 -1
BITMAP
0060
0380
3D00
0100
07F0
1900
0100
017C
FF80
0200
0440
0830
10F0
1F18
ENDCHAR
STARTCHAR 4E26
ENCODING 20006
SWIDTH 1020 0
DWIDTH 17 0
BBX 14 15 2 -2
BITMAP
0080
1080
0880
0900
03F0
7D00
0900
0920
4920
2940
2940
1980
0900
0918
F6E4
ENDCHAR
STARTCHAR 4E2B
ENCODING 20011
SWIDTH 1020 0
DWIDTH 17 0
BBX 9 16 4 -3
BITMAP
0100
8080
4100
2200
2400
0800
0800
0800
0800
0800
0800
0800
0800
0800
0800
0800
ENDCHAR
STARTCHAR 4E2D
ENCODING 20013
SWIDTH 1020 0
DWIDTH 17 0
BBX 11 16 3 -3
BITMAP
0800
0400
0400
8420
8FE0
F420
8440
8440
9FE0
E400
0400
0400
0400
0400
0400
0800
ENDCHAR
STARTCHAR 4E2E
ENCODING 20014
SWIDTH 1020 0
DWIDTH 17 0
BBX 14 14 2 -2
BITMAP
0040
3FC0
4840
0840
0940
7E40
0840
0940
7EC0
8840
0828
0828
0818
080C
ENDCHAR
STARTCHAR 4E30
ENCODING 20016
SWIDTH 1020 0
DWIDTH 17 0
BBX 13 16 2 -3
BITMAP
0400
0200
0200
02E0
7F00
0200
02E0
3F00
0200
03F8
FE00
0200
0200
0200
0200
0400
ENDCHAR
STARTCHAR 4E31
ENCODING 20017
SWIDTH 1020 0
DWIDTH 17 0
BBX 11 16 3 -3
BITMAP
0400
1200
9A20
9220
9220
9240
9240
9220
F3C0
1200
2200
2200
4200
8200
8200
0200
ENDCHAR
STARTCHAR 4E32
ENCODING 20018
SWIDTH 1020 0
DWIDTH 17 0
BBX 11 16 3 -3
BITMAP
0400
0400
4440
7F80
4480
4440
7F80
8420
FFC0
8440
8460
FF80
0400
0400
0400
0400
ENDCHAR
STARTCHAR 4E33
ENCODING 20019
SWIDTH 1020 0
DWIDTH 17 0
BBX 11 16 3 -3
BITMAP
1200
0A00
1280
7FC0
5280
52C0
7F00
9240
7FC0
9240
9240
EFA0
2200
4200
8200
8200
ENDCHAR
STARTCHAR 4E36
ENCODING 20022
SWIDTH 1020 0
DWIDTH 17 0
BBX 5 6 6 2
BITMAP
80
40
20
10
08
08
ENDCHAR
STARTCHAR 4E38
ENCODING 20024
SWIDTH 1020 0
DWIDTH 17 0
BBX 13 16 2 -3
BITMAP
0800
0400
0400
0400
0880
7F80
0880
0900
3900
0900
1500
1108
2108
2108
40F8
8000
ENDCHAR
STARTCHAR 4E39
ENCODING 20025
SWIDTH 1020 0
DWIDTH 17 0
BBX 15 16 1 -3
BITMAP
0800
0820
07E0
0820
0920
0920
08A0
083C
FFE2
0820
1020
1020
1020
20A0
4060
8020
ENDCHAR
STARTCHAR 4E3B
ENCODING 20027
SWIDTH 1020 0
DWIDTH 17 0
BBX 14 15 2 -2
BITMAP
0800
0400
0200
0200
0030
7FC0
0200
0200
0220
3FC0
0200
0200
0200
027C
FD80
ENDCHAR
STARTCHAR 4E3C
ENCODING 20028
SWIDTH 1020 0
DWIDTH 17 0
BBX 13 16 2 -3
BITMAP
0080
0880
0880
0880
0FF0
7880
0E80
0980
08B8
FFC0
1080
1080
2080
2080
4080
8080
ENDCHAR
STARTCHAR 4E3F
ENCODING 20031
SWIDTH 1020 0
DWIDTH 17 0
BBX 10 10 2 0
BITMAP
0040
0040
0080
0100
0100
0200
0400
0800
1000
E000
ENDCHAR
STARTCHAR 4E42
ENCODING 20034
SWIDTH 1020 0
DWIDTH 17 0
BBX 13 13 2 -2
BITMAP
0040
2080
2080
1080
1100
0900
0600
0200
0200
0500
0880
10E0
E018
ENDCHAR
STARTCHAR 4E43
ENCODING 20035
SWIDTH 1020 0
DWIDTH 17 0
BBX 12 14 2 -3
BITMAP
0040
1F80
6880
0880
0880
08F0
0820
1020
1020
2020
2020
4020
4140
80C0
ENDCHAR
STARTCHAR 4E45
ENCODING 20037
SWIDTH 1020 0
DWIDTH 17 0
BBX 13 15 2 -2
BITMAP
0800
0400
0800
0800
0F80
1100
2100
4200
4200
0500
0480
0880
1040
2020
C038
ENDCHAR
STARTCHAR 4E47
ENCODING 20039
SWIDTH 1020 0
DWIDTH 17 0
BBX 12 14 3 -2
BITMAP
0300
0C00
3800
C800
0800
0800
09E0
FE00
0800
0800
0820
0820
0820
07F0
ENDCHAR
STARTCHAR 4E48
ENCODING 20040
SWIDTH 1020 0
DWIDTH 17 0
BBX 11 14 3 -2
BITMAP
0400
0400
0800
0800
1200
2100
4200
4400
8800
0900
1080
2040
3FA0
4000
ENDCHAR
STARTCHAR 4E4B
ENCODING 20043
SWIDTH 1020 0
DWIDTH 17 0
BBX 14 14 2 -2
BITMAP
0800
0400
0400
0040
1F80
6100
0200
0400
0800
1000
2000
D000
0F84
0078
ENDCHAR
STARTCHAR 4E4D
ENCODING 20045
SWIDTH 1020 0
DWIDTH 17 0
BBX 12 16 2 -3
BITMAP
0800
0400
0800
1000
1FF0
2200
2200
43E0
8200
0200
03E0
0200
0200
0200
0200
0200
ENDCHAR
STARTCHAR 4E4E
ENCODING 20046
SWIDTH 1020 0
DWIDTH 17 0
BBX 13 15 2 -3
BITMAP
00E0
1F00
6220
2220
1240
1280
02F8
FF00
0200
0200
0200
0200
0A00
0600
0400
ENDCHAR
STARTCHAR 4E4F
ENCODING 20047
SWIDTH 1020 0
DWIDTH 17 0
BBX 14 14 2 -2
BITMAP
0040
0380
3C00
4400
0400
00C0
7F00
0200
0400
0800
1000
E000
1E00
01FC
ENDCHAR
STARTCHAR 4E52
ENCODING 20050
SWIDTH 1020 0
DWIDTH 17 0
BBX 14 15 2 -3
BITMAP
0040
1180
1E00
1000
1070
1F80
1100
1100
1118
EEE4
0800
0800
1000
6000
8000
ENDCHAR
STARTCHAR 4E53
ENCODING 20051
SWIDTH 1020 0
DWIDTH 17 0
BBX 13 14 2 -2
BITMAP
0040
1180
1E00
1000
1060
1F90
1100
1100
1118
EEE0
0100
00C0
0020
0010
ENDCHAR
STARTCHAR 4E56
ENCODING 20054
SWIDTH 1020 0
DWIDTH 17 0
BBX 13 15 2 -3
BITMAP
01C0
3E00
0200
03F8
FF00
1290
3B60
D290
1310
F2F8
0200
0200
0200
0200
0200
ENDCHAR
STARTCHAR 4E58
ENCODING 20056
SWIDTH 1020 0
DWIDTH 17 0
BBX 14 15 2 -3
BITMAP
01C0
3E00
4200
FFF0
12A0
3340
53A0
1310
F7E0
0A80
1240
2220
C21C
0200
0200
ENDCHAR
STARTCHAR 4E59
ENCODING 20057
SWIDTH 1020 0
DWIDTH 17 0
BBX 12 13 3 -2
BITMAP
0100
FE00
0400
0800
1000
1000
2000
4000
4020
8020
8020
4030
3FC0
ENDCHAR
STARTCHAR 4E5A
ENCODING 20058
SWIDTH 1020 0
DWIDTH 17 0
BBX 6 14 6 -2
BITMAP
80
80
80
80
80
80
80
80
80
80
88
84
84
7C
ENDCHAR
STARTCHAR 4E5C
ENCODING 20060
SWIDTH 1020 0
DWIDTH 17 0
BBX 13 14 2 -2
BITMAP
1000
1000
1000
1040
13C0
1C40
F080
1080
1480
1390
1090
1010
1008
0FF8
ENDCHAR
STARTCHAR 4E5D
ENCODING 20061
SWIDTH 1020 0
DWIDTH 17 0
BBX 14 15 1 -2
BITMAP
0400
0200
0200
0200
0240
1FC0
2440
0440
0480
0480
0884
0884
1084
2084
C07C
ENDCHAR
STARTCHAR 4E5E
ENCODING 20062
SWIDTH 1020 0
DWIDTH 17 0
BBX 13 15 2 -2
BITMAP
0800
0800
1000
11F0
2E00
4000
4080
9F00
0200
0400
0810
1010
1010
1010
0FF8
ENDCHAR
STARTCHAR 4E5F
ENCODING 20063
SWIDTH 1020 0
DWIDTH 17 0
BBX 13 15 2 -2
BITMAP
0200
0200
0200
2200
2220
23C0
2E40
7240
A240
2340
22D0
2208
2008
2008
1FF8
ENDCHAR
STARTCHAR 4E69
ENCODING 20073
SWIDTH 1020 0
DWIDTH 17 0
BBX 12 16 3 -3
BITMAP
0200
4200
4200
4200
4200
3E00
4200
4200
CA00
FA00
8A00
9210
9210
9A10
E1F0
8000
ENDCHAR
STARTCHAR 4E73
ENCODING 20083
SWIDTH 1020 0
DWIDTH 17 0
BBX 13 14 2 -1
BITMAP
0680
3D00
E500
5500
4900
1F00
E900
1100
0F00
3908
C908
0908
2908
18F8
ENDCHAR
STARTCHAR 4E7E
ENCODING 20094
SWIDTH 1020 0
DWIDTH 17 0
BBX 14 16 1 -3
BITMAP
0800
0840
0840
3F80
4898
4F60
3300
3EF0
2220
3C40
0880
7F84
8904
0904
08FC
0800
ENDCHAR
STARTCHAR 4E7F
ENCODING 20095
SWIDTH 1020 0
DWIDTH 17 0
BBX 13 16 2 -3
BITMAP
0400
0B00
7700
9500
4900
2900
4900
7100
2500
7B00
9100
5500
5308
B308
1108
00F0
ENDCHAR
STARTCHAR 4E82
ENCODING 20098
SWIDTH 1020 0
DWIDTH 17 0
BBX 14 15 2 -2
BITMAP
0680
7C80
9480
4C80
7880
9080
BE80
EA80
B680
8A80
BA88
9A88
AA88
864C
8230
ENDCHAR
STARTCHAR 4E83
ENCODING 20099
SWIDTH 1020 0
DWIDTH 17 0
BBX 15 15 1 -3
BITMAP
0500
2520
1620
07C0
3E40
1540
35C0
6540
3BC0
5540
B544
2BC4
2144
4124
811A
ENDCHAR
STARTCHAR 4E84
ENCODING 20100
SWIDTH 1020 0
DWIDTH 17 0
BBX 14 14 1 -2
BITMAP
0880
0840
3E40
0840
B740
7F40
8240
BC40
2640
3C40
2640
3C44
1444
FF7C
ENDCHAR
STARTCHAR 4E85
ENCODING 20101
SWIDTH 1020 0
DWIDTH 17 0
BBX 3 15 6 -3
BITMAP
20
40
40
40
40
40
40
40
40
40
40
40
C0
40
40
ENDCHAR
STARTCHAR 4E86
ENCODING 20102
SWIDTH 1020 0
DWIDTH 17 0
BBX 9 14 4 -2
BITMAP
FF80
0200
0400
1800
0800
0800
0400
0400
0400
0400
0400
2800
1800
0800
ENDCHAR
STARTCHAR 4E88
ENCODING 20104
SWIDTH 1020 0
DWIDTH 17 0
BBX 12 15 2 -3
BITMAP
0040
3F80
0100
0E00
0210
0FF0
F220
0220
0200
0200
0200
0200
0A00
0600
0200
ENDCHAR
STARTCHAR 4E8B
ENCODING 20107
SWIDTH 1020 0
DWIDTH 17 0
BBX 14 16 2 -3
BITMAP
0400
0600
0430
FFC0
2440
3FC0
23C0
3C40
1FE0
2458
FFE4
0440
3FA0
0400
0C00
0400
ENDCHAR
STARTCHAR 4E8C
ENCODING 20108
SWIDTH 1020 0
DWIDTH 17 0
BBX 14 9 2 0
BITMAP
0FC0
3000
0000
0000
0000
0000
0000
00FC
FF00
ENDCHAR
STARTCHAR 4E8D
ENCODING 20109
SWIDTH 1020 0
DWIDTH 17 0
BBX 13 14 2 -3
BITMAP
07C0
3800
0000
0018
FFE0
0200
0200
0200
0200
0200
0200
0A00
0600
0400
ENDCHAR
STARTCHAR 4E8E
ENCODING 20110
SWIDTH 1020 0
DWIDTH 17 0
BBX 13 13 2 -2
BITMAP
3FE0
0200
0200
0200
02F8
FF00
0200
0200
0200
0200
1200
0A00
0600
ENDCHAR
STARTCHAR 4E91
ENCODING 20113
SWIDTH 1020 0
DWIDTH 17 0
BBX 13 13 2 -2
BITMAP
00C0
1F00
0000
0000
01F8
FE00
0400
0400
0840
1020
1020
3FD0
0010
ENDCHAR
STARTCHAR 4E92
ENCODING 20114
SWIDTH 1020 0
DWIDTH 17 0
BBX 13 12 2 -1
BITMAP
7FF0
0800
0800
0B80
0C80
1080
1080
1100
1F00
0100
0100
FFF8
ENDCHAR
STARTCHAR 4E93
ENCODING 20115
SWIDTH 1020 0
DWIDTH 17 0
BBX 14 14 1 -3
BITMAP
1FE0
0000
0000
007C
7FC0
0440
0840
0840
0840
0840
1040
2040
4040
8040
ENDCHAR
STARTCHAR 4E94
ENCODING 20116
SWIDTH 1020 0
DWIDTH 17 0
BBX 14 12 1 -1
BITMAP
00F0
3F00
0200
0200
0220
1DE0
0440
0440
0440
0440
0440
FFFC
ENDCHAR
STARTCHAR 4E95
ENCODING 20117
SWIDTH 1020 0
DWIDTH 17 0
BBX 13 16 2 -3
BITMAP
0080
0880
0880
0880
08A0
7FD0
0880
0880
09F8
FE80
1080
1080
2080
2080
4080
8080
ENDCHAR
STARTCHAR 4E99
ENCODING 20121
SWIDTH 1020 0
DWIDTH 17 0
BBX 13 13 2 -2
BITMAP
FFF0
0400
0840
0FC0
0840
1440
1280
1080
2480
0280
0100
0138
FEC0
ENDCHAR
STARTCHAR 4E9B
ENCODING 20123
SWIDTH 1020 0
DWIDTH 17 0
BBX 13 14 2 -2
BITMAP
0900
0900
0900
2920
4F40
4980
4910
4B10
34F8
C000
0FC0
1000
0018
FFE0
ENDCHAR
STARTCHAR 4E9E
ENCODING 20126
SWIDTH 1020 0
DWIDTH 17 0
BBX 13 14 2 -2
BITMAP
0020
7FD0
0900
0900
4920
35E0
4020
4020
4920
79C0
0900
0900
0938
F6C0
ENDCHAR
STARTCHAR 4E9F
ENCODING 20127
SWIDTH 1020 0
DWIDTH 17 0
BBX 13 13 2 -2
BITMAP
1FC0
2400
0500
0700
49F0
3A20
52E0
5220
6AD0
0B00
0600
0418
FBE0
ENDCHAR
STARTCHAR 4EA0
ENCODING 20128
SWIDTH 1020 0
DWIDTH 17 0
BBX 14 5 2 5
BITMAP
0800
0400
0200
0000
FFFC
ENDCHAR
STARTCHAR 4EA1
ENCODING 20129
SWIDTH 1020 0
DWIDTH 17 0
BBX 13 13 2 -1
BITMAP
0400
0200
0200
0000
FFF8
0800
1000
1000
1000
1000
1000
1000
1FF0
ENDCHAR
STARTCHAR 4EA2
ENCODING 20130
SWIDTH 1020 0
DWIDTH 17 0
BBX 13 16 2 -3
BITMAP
0400
0400
0200
0078
FF80
1000
0F80
0900
0900
0900
1100
1108
1108
2108
40F8
8000
ENDCHAR
STARTCHAR 4EA4
ENCODING 20132
SWIDTH 1020 0
DWIDTH 17 0
BBX 13 16 2 -3
BITMAP
0800
0400
0200
0FF0
F900
08C0
1020
20A0
4900
0500
0200
0600
0900
10C0
2078
C000
ENDCHAR
STARTCHAR 4EA5
ENCODING 20133
SWIDTH 1020 0
DWIDTH 17 0
BBX 13 16 2 -3
BITMAP
0400
0200
0200
01F8
FE00
0480
0880
1100
1E20
0440
0880
1100
6280
0460
1810
6000
ENDCHAR
STARTCHAR 4EA6
ENCODING 20134
SWIDTH 1020 0
DWIDTH 17 0
BBX 13 16 2 -3
BITMAP
0800
0400
0200
0078
FF80
0500
0500
2940
4930
4918
8910
0900
1100
1300
2100
C100
ENDCHAR
STARTCHAR 4EA8
ENCODING 20136
SWIDTH 1020 0
DWIDTH 17 0
BBX 13 16 2 -3
BITMAP
0400
0200
02F8
FD00
17C0
1880
17C0
1820
3FC0
0280
0100
0100
0100
0900
0600
0200
ENDCHAR
STARTCHAR 4EAB
ENCODING 20139
SWIDTH 1020 0
DWIDTH 17 0
BBX 14 16 2 -3
BITMAP
0400
0200
03F8
FC40
1FC0
1040
1F80
0040
1F80
0500
023C
FDC0
0100
0900
0600
0200
ENDCHAR
STARTCHAR 4EAC
ENCODING 20140
SWIDTH 1020 0
DWIDTH 17 0
BBX 13 16 2 -3
BITMAP
0400
0200
0210
FDE8
0040
1FC0
1040
1040
1FC0
1200
1280
1260
2210
CA10
0600
0200
ENDCHAR
STARTCHAR 4EAD
ENCODING 20141
SWIDTH 1020 0
DWIDTH 17 0
BBX 13 16 2 -3
BITMAP
0400
0200
02F0
7D00
0F80
1080
0F00
4018
7FF0
40C0
9F20
0200
0200
0A00
0600
0200
ENDCHAR
STARTCHAR 4EAE
ENCODING 20142
SWIDTH 1020 0
DWIDTH 17 0
BBX 13 16 2 -3
BITMAP
0400
0200
0270
7D80
1380
1C80
0F40
5008
3FF0
4920
8900
0900
1110
1110
2110
C0F0
ENDCHAR
STARTCHAR 4EB3
ENCODING 20147
SWIDTH 1020 0
DWIDTH 17 0
BBX 13 15 2 -2
BITMAP
0400
0400
03F0
7C00
1780
1880
0F00
4070
7FA0
8380
3C00
04F0
7F10
0408
03F8
ENDCHAR
STARTCHAR 4EB6
ENCODING 20150
SWIDTH 1020 0
DWIDTH 17 0
BBX 13 16 2 -3
BITMAP
0800
0600
1FF0
6060
3FC0
2B40
2D40
2E40
1F80
1040
0F80
1180
1E80
1F40
0078
FF80
ENDCHAR
STARTCHAR 4EB9
ENCODING 20153
SWIDTH 1020 0
DWIDTH 17 0
BBX 13 15 2 -2
BITMAP
0400
0210
FDE8
59A0
2EE0
4F60
3F60
3D28
BFD0
D050
9F80
1780
1880
1F80
FFF8
ENDCHAR
STARTCHAR 4EBA
ENCODING 20154
SWIDTH 1020 0
DWIDTH 17 0
BBX 15 14 1 -2
BITMAP
0100
0180
0100
0100
0200
0300
0280
0480
0440
0840
1020
1010
2018
C006
ENDCHAR
STARTCHAR 4EC0
ENCODING 20160
SWIDTH 1020 0
DWIDTH 17 0
BBX 13 16 2 -3
BITMAP
0880
0880
0880
1080
2080
2080
60F8
AF80
2080
2080
2080
2080
2080
2080
2080
2080
ENDCHAR
STARTCHAR 4EC1
ENCODING 20161
SWIDTH 1020 0
DWIDTH 17 0
BBX 14 16 1 -3
BITMAP
0800
0800
0800
1000
1000
33F0
5400
9000
1000
1000
1000
1008
1FF4
1000
1000
1000
ENDCHAR
STARTCHAR 4EC2
ENCODING 20162
SWIDTH 1020 0
DWIDTH 17 0
BBX 12 16 2 -3
BITMAP
1100
0880
1080
1100
2170
2F90
6110
A110
A110
2110
2210
2220
2220
24A0
2860
2000
ENDCHAR
STARTCHAR 4EC3
ENCODING 20163
SWIDTH 1020 0
DWIDTH 17 0
BBX 14 16 1 -3
BITMAP
0800
0400
0800
10FC
1720
3020
5020
9020
1020
1020
1020
1020
1020
10A0
1060
0040
ENDCHAR
STARTCHAR 4EC4
ENCODING 20164
SWIDTH 1020 0
DWIDTH 17 0
BBX 14 15 2 -3
BITMAP
2000
1FF0
2100
2100
2100
2100
2100
2100
2180
4280
4240
4420
8820
9018
2004
ENDCHAR
STARTCHAR 4EC6
ENCODING 20166
SWIDTH 1020 0
DWIDTH 17 0
BBX 13 16 2 -3
BITMAP
0900
0480
0880
1080
1080
30C0
50B0
9088
1088
1080
1080
1080
1080
1080
1080
1080
ENDCHAR
STARTCHAR 4EC7
ENCODING 20167
SWIDTH 1020 0
DWIDTH 17 0
BBX 15 16 1 -3
BITMAP
0900
0880
0880
1100
1100
3120
57E0
9120
1120
1120
1120
1224
1224
1424
181E
1000
ENDCHAR
STARTCHAR 4EC8
ENCODING 20168
SWIDTH 1020 0
DWIDTH 17 0
BBX 15 15 1 -2
BITMAP
0480
0880
0840
1040
1240
3120
5120
9120
1210
1210
1210
1408
1408
180E
1000
ENDCHAR
STARTCHAR 4EC9
ENCODING 20169
SWIDTH 1020 0
DWIDTH 17 0
BBX 13 16 2 -3
BITMAP
1000
0800
1220
13C0
2240
2240
6240
A240
A240
2440
2440
2448
2448
2848
2838
2000
ENDCHAR
STARTCHAR 4ECA
ENCODING 20170
SWIDTH 1020 0
DWIDTH 17 0
BBX 15 16 1 -3
BITMAP
0100
0100
0300
0280
0440
0820
1210
610C
8002
07E0
1840
0040
0080
0080
0080
0100
ENDCHAR
STARTCHAR 4ECB
ENCODING 20171
SWIDTH 1020 0
DWIDTH 17 0
BBX 15 16 1 -3
BITMAP
0100
0100
0100
0280
0440
0820
1490
644C
8482
0480
0480
0880
0880
1080
2080
0080
ENDCHAR
STARTCHAR 4ECD
ENCODING 20173
SWIDTH 1020 0
DWIDTH 17 0
BBX 14 16 1 -3
BITMAP
0800
0800
0830
17D0
11A0
3120
512C
9118
1108
1108
1208
1208
1288
1470
1810
1000
ENDCHAR
STARTCHAR 4ED4
ENCODING 20180
SWIDTH 1020 0
DWIDTH 17 0
BBX 15 16 1 -3
BITMAP
0800
0410
0BF0
1020
10C0
3040
5040
903E
17E0
1020
1020
1020
1220
1140
10C0
1080
ENDCHAR
STARTCHAR 4ED5
ENCODING 20181
SWIDTH 1020 0
DWIDTH 17 0
BBX 15 16 1 -3
BITMAP
0880
0440
0840
0840
1040
3040
5040
907E
17C0
1040
1040
1040
1040
17BC
1000
1000
ENDCHAR
STARTCHAR 4ED6
ENCODING 20182
SWIDTH 1020 0
DWIDTH 17 0
BBX 14 16 1 -3
BITMAP
0880
0880
0880
1480
1280
1498
74F0
9790
9C90
1490
14B0
14A4
1204
1204
11F8
1000
ENDCHAR
STARTCHAR 4ED7
ENCODING 20183
SWIDTH 1020 0
DWIDTH 17 0
BBX 15 16 1 -3
BITMAP
0040
0420
0820
0820
1040
37FC
5040
9240
1140
1140
10C0
10C0
10A0
1110
160E
1000
ENDCHAR
STARTCHAR 4ED8
ENCODING 20184
SWIDTH 1020 0
DWIDTH 17 0
BBX 14 16 1 -3
BITMAP
0840
0420
0820
0820
1020
303C
57E0
9020
1220
1120
1120
1020
1020
10A0
1060
1020
ENDCHAR
STARTCHAR 4ED9
ENCODING 20185
SWIDTH 1020 0
DWIDTH 17 0
BBX 13 16 1 -3
BITMAP
0880
0840
0840
1040
1048
3248
5448
9448
1448
1448
1448
1448
1448
13B8
1000
1000
ENDCHAR
STARTCHAR 4EDA
ENCODING 20186
SWIDTH 1020 0
DWIDTH 17 0
BBX 14 15 2 -2
BITMAP
0400
0200
0600
0900
0880
1040
2230
421C
8240
4220
2220
4220
4240
43C0
3C40
ENDCHAR
STARTCHAR 4EDC
ENCODING 20188
SWIDTH 1020 0
DWIDTH 17 0
BBX 15 14 1 -2
BITMAP
0800
0800
1000
1078
17C0
3040
5040
9040
1040
1040
1040
104C
17B2
1000
ENDCHAR
STARTCHAR 4EDD
ENCODING 20189
SWIDTH 1020 0
DWIDTH 17 0
BBX 14 15 2 -2
BITMAP
0400
0200
0600
0900
0880
1040
2020
401C
9FC0
0200
0200
0200
0200
03F8
FC00
ENDCHAR
STARTCHAR 4EDE
ENCODING 20190
SWIDTH 1020 0
DWIDTH 17 0
BBX 13 16 1 -3
BITMAP
0800
0400
0808
13F8
1048
3088
5088
9288
1188
1088
1110
1110
1110
1250
1430
1000
ENDCHAR
STARTCHAR 4EDF
ENCODING 20191
SWIDTH 1020 0
DWIDTH 17 0
BBX 14 16 1 -3
BITMAP
0800
0810
0828
11C0
1640
3040
5040
97FC
1040
1040
1040
1040
1040
1040
1040
0040
ENDCHAR
STARTCHAR 4EE1
ENCODING 20193
SWIDTH 1020 0
DWIDTH 17 0
BBX 13 16 2 -3
BITMAP
1000
0900
1200
1230
23C0
2400
6840
B380
A080
2100
2200
2210
2208
2408
23F8
2000
ENDCHAR
STARTCHAR 4EE3
ENCODING 20195
SWIDTH 1020 0
DWIDTH 17 0
BBX 14 16 1 -3
BITMAP
0900
0480
08A0
0890
1080
3080
50FC
9780
1080
1080
1040
1048
1028
1024
101C
1000
ENDCHAR
STARTCHAR 4EE4
ENCODING 20196
SWIDTH 1020 0
DWIDTH 17 0
BBX 15 16 1 -3
BITMAP
0200
0100
0300
0480
0440
0A40
1220
2118
404E
9FC0
0080
0100
0D00
0200
0180
0080
ENDCHAR
STARTCHAR 4EE5
ENCODING 20197
SWIDTH 1020 0
DWIDTH 17 0
BBX 12 14 3 -2
BITMAP
0040
9040
8840
8440
8040
8040
8080
8080
8880
B080
C140
C230
0410
1800
ENDCHAR
STARTCHAR 4EE8
ENCODING 20200
SWIDTH 1020 0
DWIDTH 17 0
BBX 14 15 1 -2
BITMAP
0400
0800
1010
17E8
1000
3000
5000
93F0
1000
1000
1000
100C
17F0
1000
1000
ENDCHAR
STARTCHAR 4EE9
ENCODING 20201
SWIDTH 1020 0
DWIDTH 17 0
BBX 13 16 2 -3
BITMAP
1000
0900
1100
1100
2100
2100
6100
A1F0
A100
2100
2100
2100
2100
3FF8
2000
2000
ENDCHAR
STARTCHAR 4EF0
ENCODING 20208
SWIDTH 1020 0
DWIDTH 17 0
BBX 14 16 1 -3
BITMAP
1000
0900
1180
165C
2468
6448
A448
A448
2448
2768
2450
2040
2040
2040
2040
2080
ENDCHAR
STARTCHAR 4EF1
ENCODING 20209
SWIDTH 1020 0
DWIDTH 17 0
BBX 15 16 1 -3
BITMAP
0800
0480
0880
0940
1120
1220
3310
548E
9800
10F0
1320
1020
1040
1040
1080
1000
ENDCHAR
STARTCHAR 4EF2
ENCODING 20210
SWIDTH 1020 0
DWIDTH 17 0
BBX 14 16 1 -3
BITMAP
0840
0440
0840
1040
125C
33E8
5248
9248
12F8
1340
1040
1040
1040
1040
1040
1040
ENDCHAR
STARTCHAR 4EF3
ENCODING 20211
SWIDTH 1020 0
DWIDTH 17 0
BBX 14 16 1 -3
BITMAP
0800
0840
1440
1440
2440
2448
6450
A7E0
2440
2440
2440
2444
25C4
2644
203C
2000
ENDCHAR
STARTCHAR 4EF4
ENCODING 20212
SWIDTH 1020 0
DWIDTH 17 0
BBX 13 16 1 -3
BITMAP
0800
0610
09F8
0910
1110
1170
3190
5110
9130
12D0
1210
1210
1210
1430
1410
1010
ENDCHAR
STARTCHAR 4EF5
ENCODING 20213
SWIDTH 1020 0
DWIDTH 17 0
BBX 14 16 1 -3
BITMAP
0800
0480
0900
0908
11F0
1240
3440
5840
907C
17C0
1040
1040
1040
1040
1040
1000
ENDCHAR
STARTCHAR 4EF6
ENCODING 20214
SWIDTH 1020 0
DWIDTH 17 0
BBX 15 16 1 -3
BITMAP
0840
0840
0A40
1140
1240
33F8
5440
9840
1046
1FF8
1040
1040
1040
1040
1040
1040
ENDCHAR
STARTCHAR 4EF7
ENCODING 20215
SWIDTH 1020 0
DWIDTH 17 0
BBX 15 16 1 -3
BITMAP
0880
0480
0880
0940
1120
1210
3230
552E
9920
1220
1220
1220
1220
1420
1420
1000
ENDCHAR
STARTCHAR 4EFB
ENCODING 20219
SWIDTH 1020 0
DWIDTH 17 0
BBX 14 16 1 -3
BITMAP
0800
0C00
0818
10E0
1740
3040
5040
904C
1FF0
1040
1040
1040
1048
17B4
1000
1000
ENDCHAR
STARTCHAR 4EFD
ENCODING 20221
SWIDTH 1020 0
DWIDTH 17 0
BBX 15 16 1 -3
BITMAP
0800
0840
0A40
1120
2220
2410
6408
A87E
37A0
2120
2120
2220
2220
24A0
2440
2800
ENDCHAR
STARTCHAR 4EFF
ENCODING 20223
SWIDTH 1020 0
DWIDTH 17 0
BBX 14 16 1 -3
BITMAP
0800
0880
0840
1040
107C
2F80
6080
A108
21F8
2108
2110
2210
2210
2410
28E0
2000
ENDCHAR
STARTCHAR 4F00
ENCODING 20224
SWIDTH 1020 0
DWIDTH 17 0
BBX 15 16 1 -3
BITMAP
0800
0480
0840
0940
1120
1220
3210
5490
948E
1900
1140
1120
1210
13F0
1410
1000
ENDCHAR
STARTCHAR 4F01
ENCODING 20225
SWIDTH 1020 0
DWIDTH 17 0
BBX 15 15 1 -2
BITMAP
0200
0100
0300
0280
0440
0940
1120
2118
5206
91E0
1100
1100
1100
1108
EEF4
ENDCHAR
STARTCHAR 4F02
ENCODING 20226
SWIDTH 1020 0
DWIDTH 17 0
BBX 14 16 1 -3
BITMAP
0880
0440
0840
084C
17F0
1040
3478
53C8
9448
1448
1448
1470
1450
1040
1040
1080
ENDCHAR
STARTCHAR 4F04
ENCODING 20228
SWIDTH 1020 0
DWIDTH 17 0
BBX 14 16 1 -3
BITMAP
0800
0408
0BF8
0848
1490
12E8
3380
5480
947C
1788
1088
10A8
1098
1090
1080
1000
ENDCHAR
STARTCHAR 4F05
ENCODING 20229
SWIDTH 1020 0
DWIDTH 17 0
BBX 15 16 1 -3
BITMAP
0900
0480
0880
0880
17F8
1080
3090
5490
9490
14B0
17E0
1084
1084
1084
104E
1030
ENDCHAR
STARTCHAR 4F08
ENCODING 20232
SWIDTH 1020 0
DWIDTH 17 0
BBX 14 16 1 -3
BITMAP
0800
0400
0880
0840
1040
1240
3100
5508
9504
1504
1490
1490
1048
1028
1018
1000
ENDCHAR
STARTCHAR 4F09
ENCODING 20233
SWIDTH 1020 0
DWIDTH 17 0
BBX 15 16 1 -3
BITMAP
0800
0880
0840
1004
17F8
3000
5220
91E0
1120
1120
1220
1224
1224
1222
141E
1800
ENDCHAR
STARTCHAR 4F0A
ENCODING 20234
SWIDTH 1020 0
DWIDTH 17 0
BBX 15 15 1 -2
BITMAP
0800
0808
17F0
1090
109E
77F0
9090
1090
1768
1100
1100
1200
1200
1400
1800
ENDCHAR
STARTCHAR 4F0B
ENCODING 20235
SWIDTH 1020 0
DWIDTH 17 0
BBX 15 16 1 -3
BITMAP
0800
0808
10F8
1710
1120
3128
527C
9388
9310
1290
1260
1420
1460
1990
1A0E
1400
ENDCHAR
STARTCHAR 4F0D
ENCODING 20237
SWIDTH 1020 0
DWIDTH 17 0
BBX 15 16 1 -3
BITMAP
1000
0800
1000
17FC
1080
7080
5090
93F0
1510
1110
1110
1120
1120
11FE
1E00
1000
ENDCHAR
STARTCHAR 4F0E
ENCODING 20238
SWIDTH 1020 0
DWIDTH 17 0
BBX 15 16 1 -3
BITMAP
0880
0480
0880
0888
17F0
1080
3080
51F0
9220
1320
1140
10C0
10C0
1130
161E
1000
ENDCHAR
STARTCHAR 4F0F
ENCODING 20239
SWIDTH 1020 0
DWIDTH 17 0
BBX 15 16 1 -3
BITMAP
0880
0880
08C0
10B0
1090
3080
53F8
9C80
10C0
1140
1140
1120
1220
1410
141E
1800
ENDCHAR
STARTCHAR 4F10
ENCODING 20240
SWIDTH 1020 0
DWIDTH 17 0
BBX 14 16 1 -3
BITMAP
0800
0480
08A0
0890
1080
3088
33F4
5490
9090
10A0
1040
10C8
1124
1E14
100C
1000
ENDCHAR
STARTCHAR 4F11
ENCODING 20241
SWIDTH 1020 0
DWIDTH 17 0
BBX 15 16 1 -3
BITMAP
0080
0840
0880
1080
1088
3774
50C0
90A0
11A0
1290
1290
1488
1886
1080
1080
1080
ENDCHAR
STARTCHAR 4F12
ENCODING 20242
SWIDTH 1020 0
DWIDTH 17 0
BBX 14 16 1 -3
BITMAP
0800
0618
0AE0
0900
1200
123C
33E0
5220
9220
1220
1220
1420
1420
1820
1020
1020
ENDCHAR
STARTCHAR 4F13
ENCODING 20243
SWIDTH 1020 0
DWIDTH 17 0
BBX 14 16 1 -3
BITMAP
0800
0400
080C
0BF0
1040
1080
30A0
5190
9288
1484
1884
1080
1080
1080
1080
1000
ENDCHAR
STARTCHAR 4F14
ENCODING 20244
SWIDTH 1020 0
DWIDTH 17 0
BBX 15 16 1 -3
BITMAP
0800
0400
0C08
13F8
1410
1550
3140
5140
9140
1140
1140
1244
1244
1444
143E
1000
ENDCHAR
STARTCHAR 4F15
ENCODING 20245
SWIDTH 1020 0
DWIDTH 17 0
BBX 15 16 1 -3
BITMAP
0080
0880
0880
1080
1080
27F0
6080
A080
2FFC
2180
2140
2120
2220
2410
280C
2002
ENDCHAR
STARTCHAR 4F18
ENCODING 20248
SWIDTH 1020 0
DWIDTH 17 0
BBX 14 16 1 -3
BITMAP
0880
0480
08A0
0890
1080
10B8
37C0
50C0
90C0
1180
1180
1184
1284
1244
143C
1800
ENDCHAR
STARTCHAR 4F19
ENCODING 20249
SWIDTH 1020 0
DWIDTH 17 0
BBX 15 16 1 -3
BITMAP
0880
0840
0840
1040
1088
3488
5490
9260
12C0
10C0
1120
1110
1210
1208
140C
1802
ENDCHAR
STARTCHAR 4F1D
ENCODING 20253
SWIDTH 1020 0
DWIDTH 17 0
BBX 14 16 1 -3
BITMAP
0800
0400
0800
0830
13C0
1000
3004
57F8
9080
10A0
1120
1110
1208
13F8
1008
1000
ENDCHAR
STARTCHAR 4F22
ENCODING 20258
SWIDTH 1020 0
DWIDTH 17 0
BBX 14 16 1 -3
BITMAP
0800
0400
0BF8
0A20
1320
1220
322C
53F0
9060
1060
10A0
1120
1220
1CA0
1060
1020
ENDCHAR
STARTCHAR 4F2C
ENCODING 20268
SWIDTH 1020 0
DWIDTH 17 0
BBX 15 16 1 -3
BITMAP
0800
0610
0AF0
0B10
1210
1210
31E0
5280
9280
1240
1240
1420
1420
1410
180E
1000
ENDCHAR
STARTCHAR 4F2D
ENCODING 20269
SWIDTH 1020 0
DWIDTH 17 0
BBX 14 16 1 -3
BITMAP
0800
0480
0880
0840
103C
13C0
3120
5130
9220
13C0
1080
1090
1108
1238
13CC
1000
ENDCHAR
STARTCHAR 4F2F
ENCODING 20271
SWIDTH 1020 0
DWIDTH 17 0
BBX 13 15 1 -2
BITMAP
0440
0840
0880
1280
31F8
5208
9208
1208
11E8
1208
1208
1208
1210
13F0
1000
ENDCHAR
STARTCHAR 4F30
ENCODING 20272
SWIDTH 1020 0
DWIDTH 17 0
BBX 14 16 1 -3
BITMAP
0880
0440
0880
1080
108C
17F0
7080
9080
1290
13F0
1210
1210
1210
13F8
1200
1000
ENDCHAR
STARTCHAR 4F33
ENCODING 20275
SWIDTH 1020 0
DWIDTH 17 0
BBX 14 16 1 -3
BITMAP
0800
0490
08A0
0AA0
12A0
12A0
32AC
5FF0
92A0
12A0
12A0
12D0
1200
1208
13F4
1000
ENDCHAR
STARTCHAR 4F34
ENCODING 20276
SWIDTH 1020 0
DWIDTH 17 0
BBX 15 16 1 -3
BITMAP
0880
0840
0850
1250
1150
3160
53D8
9040
1044
17FA
1040
1040
1040
1040
1040
1000
ENDCHAR
STARTCHAR 4F36
ENCODING 20278
SWIDTH 1020 0
DWIDTH 17 0
BBX 15 15 1 -2
BITMAP
0080
0880
0880
1140
1120
7310
9488
988E
1010
17E0
1020
1040
1380
1040
1020
ENDCHAR
STARTCHAR 4F38
ENCODING 20280
SWIDTH 1020 0
DWIDTH 17 0
BBX 13 16 1 -3
BITMAP
0880
0440
0840
0A40
13F8
3248
5248
93F8
1248
1258
13E8
1040
1040
1040
1040
1040
ENDCHAR
STARTCHAR 4F3A
ENCODING 20282
SWIDTH 1020 0
DWIDTH 17 0
BBX 13 16 1 -3
BITMAP
0800
0400
0878
0B88
1008
31E8
5208
9248
13C8
1248
11E8
1208
1008
1028
1018
1008
ENDCHAR
STARTCHAR 4F3B
ENCODING 20283
SWIDTH 1020 0
DWIDTH 17 0
BBX 14 16 1 -3
BITMAP
0800
0400
08F8
0B90
1490
1290
32A0
5280
90FC
1780
1080
1080
1080
1080
1080
1080
ENDCHAR
STARTCHAR 4F3C
ENCODING 20284
SWIDTH 1020 0
DWIDTH 17 0
BBX 14 16 1 -3
BITMAP
1000
0810
1108
1090
1090
3410
5410
9410
9410
15A0
1520
1258
1444
1084
1300
1000
ENDCHAR
STARTCHAR 4F3D
ENCODING 20285
SWIDTH 1020 0
DWIDTH 17 0
BBX 14 16 1 -3
BITMAP
1000
0A00
1200
1200
1220
31FC
5EA4
92A4
12A4
12A4
14A4
149C
14A0
1A80
1900
1000
ENDCHAR
STARTCHAR 4F3E
ENCODING 20286
SWIDTH 1020 0
DWIDTH 17 0
BBX 14 16 1 -3
BITMAP
0800
0400
0808
0FF4
1040
1080
30A0
5190
9288
1484
1880
1080
1080
1084
1778
1000
ENDCHAR
STARTCHAR 4F3F
ENCODING 20287
SWIDTH 1020 0
DWIDTH 17 0
BBX 14 16 1 -3
BITMAP
0800
0400
0A08
0AF8
1308
1208
3210
5210
91E8
1200
10A0
1110
1208
1204
1404
1000
ENDCHAR
STARTCHAR 4F41
ENCODING 20289
SWIDTH 1020 0
DWIDTH 17 0
BBX 14 16 1 -3
BITMAP
0800
0440
0880
0880
1110
1108
3208
57F4
9004
1238
13C8
1210
1210
1238
13C0
1000
ENDCHAR
STARTCHAR 4F43
ENCODING 20291
SWIDTH 1020 0
DWIDTH 17 0
BBX 13 15 1 -2
BITMAP
0800
0800
1408
15F8
3648
5448
9448
13F8
1448
1448
1448
1458
17A8
1400
1000
ENDCHAR
STARTCHAR 4F46
ENCODING 20294
SWIDTH 1020 0
DWIDTH 17 0
BBX 15 16 1 -3
BITMAP
0800
0800
0A00
1270
1390
1210
7210
93D0
1210
1210
13E0
1200
1000
1FFE
1000
1000
ENDCHAR
STARTCHAR 4F47
ENCODING 20295
SWIDTH 1020 0
DWIDTH 17 0
BBX 14 16 1 -3
BITMAP
0800
0880
0840
1204
13F8
3408
5400
903C
17C0
1040
1040
1040
1040
10C0
1040
1040
ENDCHAR
STARTCHAR 4F48
ENCODING 20296
SWIDTH 1020 0
DWIDTH 17 0
BBX 14 16 1 -3
BITMAP
0880
0880
0880
1084
1778
3140
5240
9678
17C8
1A48
1250
1270
1250
1040
1040
0040
ENDCHAR
STARTCHAR 4F49
ENCODING 20297
SWIDTH 1020 0
DWIDTH 17 0
BBX 14 16 1 -3
BITMAP
0800
0480
0880
0880
1080
13F0
3080
5080
91FC
1680
1120
1110
1210
12E8
1508
1000
ENDCHAR
STARTCHAR 4F4C
ENCODING 20300
SWIDTH 1020 0
DWIDTH 17 0
BBX 14 15 1 -2
BITMAP
0840
1140
1140
2140
2948
65D0
6560
A540
2540
2540
25C4
2544
2E44
2038
2000
ENDCHAR
STARTCHAR 4F4D
ENCODING 20301
SWIDTH 1020 0
DWIDTH 17 0
BBX 15 16 1 -3
BITMAP
0800
0480
0880
0840
1008
37F4
5010
9210
1220
1120
1120
1120
1040
10FE
1700
1000
ENDCHAR
STARTCHAR 4F4E
ENCODING 20302
SWIDTH 1020 0
DWIDTH 17 0
BBX 14 16 1 -3
BITMAP
0800
0810
0C20
13C0
1240
3240
5258
93E0
1240
1220
1220
12A4
1314
120C
11E4
1000
ENDCHAR
STARTCHAR 4F4F
ENCODING 20303
SWIDTH 1020 0
DWIDTH 17 0
BBX 15 16 1 -3
BITMAP
0800
0900
0880
1040
1000
37F8
5080
9080
1080
13F8
1080
1080
1080
17FE
1000
1000
ENDCHAR
STARTCHAR 4F50
ENCODING 20304
SWIDTH 1020 0
DWIDTH 17 0
BBX 14 16 1 -3
BITMAP
1080
0880
1080
1100
2108
2FF4
6200
A200
A410
27E8
2840
3040
2040
27FC
2800
2000
ENDCHAR
STARTCHAR 4F51
ENCODING 20305
SWIDTH 1020 0
DWIDTH 17 0
BBX 15 16 1 -3
BITMAP
0800
0440
0840
1040
1040
17FE
7080
9100
1308
11F0
1310
1510
1910
11F8
1100
1000
ENDCHAR
STARTCHAR 4F52
ENCODING 20306
SWIDTH 1020 0
DWIDTH 17 0
BBX 15 16 1 -3
BITMAP
0880
0440
0880
0880
14B0
13D0
3290
5290
9294
1FE8
10C0
1120
1120
1210
140C
1002
ENDCHAR
STARTCHAR 4F53
ENCODING 20307
SWIDTH 1020 0
DWIDTH 17 0
BBX 15 16 1 -3
BITMAP
0900
0480
0880
0880
1090
17E8
30C0
51C0
92A0
1290
1488
18EE
1380
1080
1080
1080
ENDCHAR
STARTCHAR 4F54
ENCODING 20308
SWIDTH 1020 0
DWIDTH 17 0
BBX 14 16 1 -3
BITMAP
0880
0480
0880
0880
1080
30FC
5080
9080
1290
1370
1210
1210
1210
13F0
1200
1000
ENDCHAR
STARTCHAR 4F55
ENCODING 20309
SWIDTH 1020 0
DWIDTH 17 0
BBX 14 16 1 -3
BITMAP
0800
0800
0800
17FC
1010
1410
7390
9290
1290
13D0
1210
1010
1010
1050
1030
1000
ENDCHAR
STARTCHAR 4F56
ENCODING 20310
SWIDTH 1020 0
DWIDTH 17 0
BBX 14 16 1 -3
BITMAP
0800
0400
0890
0890
1050
1220
3120
5528
9544
1544
14D0
1490
1148
1228
1418
1000
ENDCHAR
STARTCHAR 4F57
ENCODING 20311
SWIDTH 1020 0
DWIDTH 17 0
BBX 14 15 1 -2
BITMAP
0480
0840
0A04
13F8
3208
3100
5110
9118
1160
1180
1104
1104
1104
10FC
1000
ENDCHAR
STARTCHAR 4F58
ENCODING 20312
SWIDTH 1020 0
DWIDTH 17 0
BBX 14 16 2 -3
BITMAP
0200
0200
0600
0900
1080
2040
4FB0
801C
00E0
3F00
1300
12C0
2220
CA30
0600
0400
ENDCHAR
STARTCHAR 4F59
ENCODING 20313
SWIDTH 1020 0
DWIDTH 17 0
BBX 14 16 2 -3
BITMAP
0200
0200
0600
0900
1080
2040
5FB0
821C
0200
7FE0
1200
12C0
2220
CA20
0600
0400
ENDCHAR
STARTCHAR 4F5A
ENCODING 20314
SWIDTH 1020 0
DWIDTH 17 0
BBX 15 16 1 -3
BITMAP
0880
0440
0A40
1140
1240
13F8
7440
9880
91FC
1640
10C0
1120
1110
1210
140C
0802
ENDCHAR
STARTCHAR 4F5B
ENCODING 20315
SWIDTH 1020 0
DWIDTH 17 0
BBX 14 16 1 -3
BITMAP
0040
08E0
0940
1178
17C8
1150
73E8
5540
9544
17FC
1144
1158
1248
1240
1440
1040
ENDCHAR
STARTCHAR 4F5C
ENCODING 20316
SWIDTH 1020 0
DWIDTH 17 0
BBX 14 16 2 -3
BITMAP
0800
0900
0900
1200
13FC
7480
5480
98F8
1080
1080
10F8
1080
1080
1080
1080
1080
ENDCHAR
STARTCHAR 4F5D
ENCODING 20317
SWIDTH 1020 0
DWIDTH 17 0
BBX 13 15 2 -2
BITMAP
0900
1100
1208
23F8
2410
6410
ABD0
2250
2250
2390
2210
2010
20D0
2020
2000
ENDCHAR
STARTCHAR 4F5E
ENCODING 20318
SWIDTH 1020 0
DWIDTH 17 0
BBX 14 16 1 -3
BITMAP
0800
0800
0870
1380
1000
33FC
5480
90A0
90FC
1F20
1220
1240
11C0
10A0
1310
1400
ENDCHAR
STARTCHAR 4F5F
ENCODING 20319
SWIDTH 1020 0
DWIDTH 17 0
BBX 15 15 1 -2
BITMAP
0880
0900
1120
12E0
3520
5540
90C0
11A0
1210
148E
1840
1000
1180
1040
1040
ENDCHAR
STARTCHAR 4F60
ENCODING 20320
SWIDTH 1020 0
DWIDTH 17 0
BBX 14 15 1 -2
BITMAP
0880
0900
1108
12F8
3310
5450
9840
9240
1350
1248
1444
1844
1140
10C0
1080
ENDCHAR
STARTCHAR 4F61
ENCODING 20321
SWIDTH 1020 0
DWIDTH 17 0
BBX 15 16 1 -3
BITMAP
0800
0480
0880
08C0
1120
1210
3288
548E
9890
1298
1490
1490
1490
1490
1370
1000
ENDCHAR
STARTCHAR 4F62
ENCODING 20322
SWIDTH 1020 0
DWIDTH 17 0
BBX 15 16 1 -3
BITMAP
0800
0600
0A1C
13E0
1200
1210
32F8
5310
9210
1238
13C0
1200
1200
120C
13F2
1000
ENDCHAR
STARTCHAR 4F63
ENCODING 20323
SWIDTH 1020 0
DWIDTH 17 0
BBX 13 15 1 -2
BITMAP
0C00
0AF8
1348
2248
2248
63F8
A248
2248
23F8
2448
2448
2448
2468
2858
2000
ENDCHAR
STARTCHAR 4F64
ENCODING 20324
SWIDTH 1020 0
DWIDTH 17 0
BBX 14 16 1 -3
BITMAP
0800
0400
08FC
0B00
1100
11F0
3220
5220
92A0
1260
1220
1264
1294
1314
100C
1004
ENDCHAR
STARTCHAR 4F67
ENCODING 20327
SWIDTH 1020 0
DWIDTH 17 0
BBX 14 16 1 -3
BITMAP
0800
0480
0880
0890
10E0
1080
308C
57F0
9080
10E0
1090
1090
1080
1080
1080
1000
ENDCHAR
STARTCHAR 4F69
ENCODING 20329
SWIDTH 1020 0
DWIDTH 17 0
BBX 15 16 1 -3
BITMAP
0800
0800
1478
1790
2410
25F0
6490
A5F0
26B0
26B0
26B0
27CC
288C
2886
3082
0080
ENDCHAR
STARTCHAR 4F6A
ENCODING 20330
SWIDTH 1020 0
DWIDTH 17 0
BBX 14 15 1 -2
BITMAP
0800
0800
141C
13E8
1208
3328
52E8
92A8
12A8
12C8
1288
1208
13F8
1208
1000
ENDCHAR
STARTCHAR 4F6B
ENCODING 20331
SWIDTH 1020 0
DWIDTH 17 0
BBX 15 16 1 -3
BITMAP
0100
0900
0900
11E0
1220
1540
34C0
50A0
9118
1226
1DF0
1220
1220
1220
13D0
1200
ENDCHAR
STARTCHAR 4F6C
ENCODING 20332
SWIDTH 1020 0
DWIDTH 17 0
BBX 14 15 1 -2
BITMAP
0480
0880
1088
10B0
37E0
50C0
97FC
1900
1210
1520
1AC8
1308
1208
11F8
1000
ENDCHAR
STARTCHAR 4F6E
ENCODING 20334
SWIDTH 1020 0
DWIDTH 17 0
BBX 15 15 1 -2
BITMAP
0880
0880
1140
1140
1220
3210
53EC
9C02
1260
13A0
1220
1220
12E0
1300
1000
ENDCHAR
STARTCHAR 4F6F
ENCODING 20335
SWIDTH 1020 0
DWIDTH 17 0
BBX 15 16 1 -3
BITMAP
0800
0610
0920
1120
1058
33E4
5040
93F8
1040
1044
17FA
1040
1040
1040
1040
1040
ENDCHAR
STARTCHAR 4F70
ENCODING 20336
SWIDTH 1020 0
DWIDTH 17 0
BBX 14 15 1 -2
BITMAP
0800
0804
17F8
1080
1480
72F8
9310
1210
1250
13B0
1210
1210
12F0
1310
1000
ENDCHAR
STARTCHAR 4F73
ENCODING 20339
SWIDTH 1020 0
DWIDTH 17 0
BBX 14 16 1 -3
BITMAP
0880
0480
0880
1080
11F0
3280
5080
97F8
1080
1080
11F0
1280
1080
10BC
1F40
1000
ENDCHAR
STARTCHAR 4F74
ENCODING 20340
SWIDTH 1020 0
DWIDTH 17 0
BBX 15 16 1 -3
BITMAP
0800
0400
0BFC
0920
1120
11E0
3120
5160
91A0
1120
11FE
1620
1020
1020
1020
1020
ENDCHAR
STARTCHAR 4F75
ENCODING 20341
SWIDTH 1020 0
DWIDTH 17 0
BBX 15 16 1 -3
BITMAP
0820
0610
0920
1120
1048
37B0
5120
9120
113E
1FE0
1120
1120
1220
1220
1420
1020
ENDCHAR
STARTCHAR 4F76
ENCODING 20342
SWIDTH 1020 0
DWIDTH 17 0
BBX 14 15 1 -2
BITMAP
0840
0880
1080
109C
17E0
3080
5088
9370
1410
13F0
1210
1210
1210
13E0
1200
ENDCHAR
STARTCHAR 4F77
ENCODING 20343
SWIDTH 1020 0
DWIDTH 17 0
BBX 15 15 1 -2
BITMAP
0A10
0BE0
1220
1260
13A0
3220
53D0
9288
1250
1260
1220
1250
1388
120E
1000
ENDCHAR
STARTCHAR 4F78
ENCODING 20344
SWIDTH 1020 0
DWIDTH 17 0
BBX 14 15 1 -2
BITMAP
0810
0860
1180
1280
1080
31FC
5680
9080
14F0
1310
1210
1210
1210
13E0
1400
ENDCHAR
STARTCHAR 4F79
ENCODING 20345
SWIDTH 1020 0
DWIDTH 17 0
BBX 14 16 1 -3
BITMAP
0800
0480
0900
09E0
1240
1448
3BB0
5310
92F0
1290
12A0
14E4
1484
1484
187C
1000
ENDCHAR
STARTCHAR 4F7A
ENCODING 20346
SWIDTH 1020 0
DWIDTH 17 0
BBX 14 16 1 -3
BITMAP
0800
0900
0880
10C0
1140
3220
5210
942C
9BC0
1080
10A0
13D0
1080
1088
1F74
1000
ENDCHAR
STARTCHAR 4F7B
ENCODING 20347
SWIDTH 1020 0
DWIDTH 17 0
BBX 14 16 1 -3
BITMAP
0840
0940
0940
1140
1948
3550
5360
9120
1350
1548
1940
1144
1244
1244
143C
1800
ENDCHAR
STARTCHAR 4F7C
ENCODING 20348
SWIDTH 1020 0
DWIDTH 17 0
BBX 15 16 1 -3
BITMAP
0800
0480
0840
0808
17F4
1120
3110
5228
9528
10C0
10C0
1040
10A0
1110
120E
1400
ENDCHAR
STARTCHAR 4F7D
ENCODING 20349
SWIDTH 1020 0
DWIDTH 17 0
BBX 15 15 1 -2
BITMAP
0840
0880
1080
1098
2EE8
2350
6140
A240
2440
34A0
2CA0
2110
2208
240E
2000
ENDCHAR
STARTCHAR 4F7E
ENCODING 20350
SWIDTH 1020 0
DWIDTH 17 0
BBX 15 16 1 -3
BITMAP
0800
0840
0920
1120
1210
3208
567E
9BA0
1220
13E0
1220
11E0
1220
1220
1260
1020
ENDCHAR
STARTCHAR 4F7F
ENCODING 20351
SWIDTH 1020 0
DWIDTH 17 0
BBX 15 16 1 -3
BITMAP
0840
0840
0840
1044
17F8
3248
53F8
9250
1248
13B0
1280
1180
1140
1220
141E
1800
ENDCHAR
STARTCHAR 4F80
ENCODING 20352
SWIDTH 1020 0
DWIDTH 17 0
BBX 13 15 1 -2
BITMAP
0808
11C8
1E88
24A8
24A8
64A8
67E8
ACA8
24A8
24A8
2488
2488
28A8
2898
2008
ENDCHAR
STARTCHAR 4F81
ENCODING 20353
SWIDTH 1020 0
DWIDTH 17 0
BBX 14 16 1 -3
BITMAP
0800
0480
0A80
0A80
1290
17E0
3480
5888
9774
1140
1140
1240
1244
1244
142C
1810
ENDCHAR
STARTCHAR 4F82
ENCODING 20354
SWIDTH 1020 0
DWIDTH 17 0
BBX 14 15 1 -2
BITMAP
0880
0C40
13B8
1210
1220
32C0
5340
9280
147C
1780
1484
1484
1844
183C
1000
ENDCHAR
STARTCHAR 4F83
ENCODING 20355
SWIDTH 1020 0
DWIDTH 17 0
BBX 15 16 1 -3
BITMAP
0800
0800
0A70
1390
1210
3210
53E0
9220
12B0
12A0
12A0
12A4
12A4
14A2
149E
1800
ENDCHAR
STARTCHAR 4F84
ENCODING 20356
SWIDTH 1020 0
DWIDTH 17 0
BBX 15 16 1 -3
BITMAP
0800
0400
0878
0B80
10A0
1110
3238
53C8
9040
1040
13F8
1040
1040
1044
17BA
1000
ENDCHAR
STARTCHAR 4F85
ENCODING 20357
SWIDTH 1020 0
DWIDTH 17 0
BBX 14 16 1 -3
BITMAP
0800
0480
0840
0840
17FC
10A0
3110
5220
93C8
1090
10A0
1140
16A0
1918
1608
1000
ENDCHAR
STARTCHAR 4F86
ENCODING 20358
SWIDTH 1020 0
DWIDTH 17 0
BBX 14 16 2 -3
BITMAP
0400
0200
0200
07F0
7A40
1240
2240
3AA0
4B30
0700
0A80
1240
2220
C21C
0200
0200
ENDCHAR
STARTCHAR 4F87
ENCODING 20359
SWIDTH 1020 0
DWIDTH 17 0
BBX 14 16 1 -3
BITMAP
0080
0840
0880
17F8
1090
13F0
34A0
53D0
9488
17F8
1088
1150
1130
1210
1418
1004
ENDCHAR
STARTCHAR 4F88
ENCODING 20360
SWIDTH 1020 0
DWIDTH 17 0
BBX 13 16 2 -3
BITMAP
1000
0880
1100
11F0
2220
6540
A080
A340
2C90
2178
2320
2CA0
2040
2080
2300
2C00
ENDCHAR
STARTCHAR 4F89
ENCODING 20361
SWIDTH 1020 0
DWIDTH 17 0
BBX 15 16 1 -3
BITMAP
0800
0480
0880
08B0
1740
1120
3250
5588
98FE
1300
1270
11A0
1020
1040
10C0
1040
ENDCHAR
STARTCHAR 4F8B
ENCODING 20363
SWIDTH 1020 0
DWIDTH 17 0
BBX 13 16 1 -3
BITMAP
1008
0808
1008
17C8
1228
3228
55A8
94A8
1B28
1B28
1128
1208
1408
1828
1018
1008
ENDCHAR
STARTCHAR 4F8D
ENCODING 20365
SWIDTH 1020 0
DWIDTH 17 0
BBX 14 16 1 -3
BITMAP
0880
0440
0840
1040
13F8
3040
507C
97A0
1020
17FC
1120
1120
10A0
10A0
1060
1020
ENDCHAR
STARTCHAR 4F8F
ENCODING 20367
SWIDTH 1020 0
DWIDTH 17 0
BBX 15 16 1 -3
BITMAP
0880
0C40
0A40
1340
12F0
3540
5840
907C
17C0
11E0
1150
1248
144E
1840
1040
1080
ENDCHAR
STARTCHAR 4F90
ENCODING 20368
SWIDTH 1020 0
DWIDTH 17 0
BBX 15 16 1 -3
BITMAP
0800
0480
0880
0880
1100
1518
37E8
5548
9548
1548
1550
1550
1550
155E
1AA0
1000
ENDCHAR
STARTCHAR 4F91
ENCODING 20369
SWIDTH 1020 0
DWIDTH 17 0
BBX 14 16 1 -3
BITMAP
0880
0880
0880
1100
17FC
3100
5210
93F0
1550
19B0
1110
11F0
1110
1110
1170
1010
ENDCHAR
STARTCHAR 4F92
ENCODING 20370
SWIDTH 1020 0
DWIDTH 17 0
BBX 14 15 1 -2
BITMAP
0880
0840
1408
13F8
1490
3480
5120
93FC
1620
1220
1140
10C0
11B0
1210
1408
ENDCHAR
STARTCHAR 4F94
ENCODING 20372
SWIDTH 1020 0
DWIDTH 17 0
BBX 15 16 1 -3
BITMAP
0800
0480
0920
1210
1268
15C8
3240
5250
95E8
1440
107E
1FC0
1040
1040
1040
1080
ENDCHAR
STARTCHAR 4F95
ENCODING 20373
SWIDTH 1020 0
DWIDTH 17 0
BBX 14 15 1 -2
BITMAP
0800
0808
17F4
10C0
1480
34FC
57A8
94A8
14A8
14A8
14A8
14A8
14A8
1418
1008
ENDCHAR
STARTCHAR 4F96
ENCODING 20374
SWIDTH 1020 0
DWIDTH 17 0
BBX 15 16 1 -3
BITMAP
0200
0100
0300
0480
0840
1030
2FCC
502A
8FF0
14A0
14A0
1FE0
14A0
14A0
14E0
0020
ENDCHAR
STARTCHAR 4F97
ENCODING 20375
SWIDTH 1020 0
DWIDTH 17 0
BBX 14 15 1 -2
BITMAP
0800
0C7C
1388
1208
13F8
3208
5368
93A8
1328
12C8
1308
1208
1428
1418
1008
ENDCHAR
STARTCHAR 4F98
ENCODING 20376
SWIDTH 1020 0
DWIDTH 17 0
BBX 14 16 1 -3
BITMAP
0800
0480
0840
0C0C
13F8
1430
3440
5180
9280
109C
17E0
1080
1084
1084
108C
1070
ENDCHAR
STARTCHAR 4F9A
ENCODING 20378
SWIDTH 1020 0
DWIDTH 17 0
BBX 14 16 1 -3
BITMAP
0900
0480
0900
0904
11F8
1208
3468
5BC8
9248
13C8
1248
13A8
1208
1050
1030
1010
ENDCHAR
STARTCHAR 4F9B
ENCODING 20379
SWIDTH 1020 0
DWIDTH 17 0
BBX 14 15 1 -2
BITMAP
0820
0920
1120
1120
3128
57F4
9120
1120
17FC
1000
1120
1118
1204
1C04
1000
ENDCHAR
STARTCHAR 4F9C
ENCODING 20380
SWIDTH 1020 0
DWIDTH 17 0
BBX 15 15 1 -2
BITMAP
0840
0880
11B0
1150
1190
3150
5114
97FA
1190
1250
1210
1210
1230
1410
1000
ENDCHAR
STARTCHAR 4F9D
ENCODING 20381
SWIDTH 1020 0
DWIDTH 17 0
BBX 15 16 1 -3
BITMAP
0800
0880
0880
10C0
103C
37C0
5090
9188
1250
1220
1720
1A10
12D0
130C
1202
1000
ENDCHAR
STARTCHAR 4F9E
ENCODING 20382
SWIDTH 1020 0
DWIDTH 17 0
BBX 13 15 1 -2
BITMAP
0A00
1200
1200
22C0
24B8
6FA8
6528
A528
2528
2528
2228
2338
24A0
2800
2000
ENDCHAR
STARTCHAR 4FAE
ENCODING 20398
SWIDTH 1020 0
DWIDTH 17 0
BBX 14 16 1 -3
BITMAP
0A00
0900
1200
13F8
2600
69F0
6290
A290
221C
2FF0
2290
2490
236C
20A0
2060
2020
ENDCHAR
STARTCHAR 4FAF
ENCODING 20399
SWIDTH 1020 0
DWIDTH 17 0
BBX 14 16 1 -3
BITMAP
0800
0810
13E0
1020
201C
6FE0
A300
A3F0
2480
2080
2FFC
20C0
2120
2210
2418
2804
ENDCHAR
STARTCHAR 4FB2
ENCODING 20402
SWIDTH 1020 0
DWIDTH 17 0
BBX 15 15 1 -2
BITMAP
0C00
0AF8
1300
1270
1380
3218
53E0
9348
1330
1520
1510
1510
19C8
198E
1000
ENDCHAR
STARTCHAR 4FB3
ENCODING 20403
SWIDTH 1020 0
DWIDTH 17 0
BBX 14 16 1 -3
BITMAP
0080
0880
0880
1290
1290
1290
3290
55A8
99C8
1880
10B8
13C0
1080
1080
17FC
1000
ENDCHAR
STARTCHAR 4FB5
ENCODING 20405
SWIDTH 1020 0
DWIDTH 17 0
BBX 14 16 1 -3
BITMAP
0800
0800
13F0
1024
1FF8
3070
5788
94FC
1708
19E0
1020
1340
1080
1140
1238
1C04
ENDCHAR
STARTCHAR 4FB6
ENCODING 20406
SWIDTH 1020 0
DWIDTH 17 0
BBX 14 16 1 -3
BITMAP
0800
0800
0A08
11F0
1110
3110
51E8
9240
1080
129C
1368
1208
1208
1208
13F4
1000
ENDCHAR
STARTCHAR 4FB7
ENCODING 20407
SWIDTH 1020 0
DWIDTH 17 0
BBX 14 16 1 -3
BITMAP
0800
0800
0AF0
1310
1210
33E0
5208
93FC
1208
1568
15A8
1528
15C8
1848
1830
1000
ENDCHAR
STARTCHAR 4FB9
ENCODING 20409
SWIDTH 1020 0
DWIDTH 17 0
BBX 15 15 1 -2
BITMAP
0800
1018
1220
17E0
2A20
643C
65E0
A220
2220
263C
22C0
2580
2860
301E
2000
ENDCHAR
STARTCHAR 4FBA
ENCODING 20410
SWIDTH 1020 0
DWIDTH 17 0
BBX 15 16 1 -3
BITMAP
0080
0880
0C88
1490
14B0
17D0
3080
5140
9220
1298
14A6
19E0
1220
1040
1040
1000
ENDCHAR
STARTCHAR 4FBB
ENCODING 20411
SWIDTH 1020 0
DWIDTH 17 0
BBX 14 15 1 -2
BITMAP
0960
0910
1208
1C20
13F0
3220
5220
93F0
1340
1140
1144
1144
1244
143C
1800
ENDCHAR
STARTCHAR 4FBF
ENCODING 20415
SWIDTH 1020 0
DWIDTH 17 0
BBX 15 15 1 -2
BITMAP
0800
0FFC
1040
1478
3790
5270
9390
12B8
15C0
1280
1180
1180
1260
141E
1800
ENDCHAR
STARTCHAR 4FC0
ENCODING 20416
SWIDTH 1020 0
DWIDTH 17 0
BBX 14 15 1 -2
BITMAP
0830
08C0
1708
1490
12A0
3320
51C0
913C
16E0
1240
1240
11C0
11B8
1208
1C00
ENDCHAR
STARTCHAR 4FC1
ENCODING 20417
SWIDTH 1020 0
DWIDTH 17 0
BBX 15 15 1 -2
BITMAP
0920
09E0
1520
1560
1580
3410
53F0
9090
109C
1FE0
1140
1120
1210
140C
1002
ENDCHAR
STARTCHAR 4FC2
ENCODING 20418
SWIDTH 1020 0
DWIDTH 17 0
BBX 14 16 1 -3
BITMAP
0800
0410
0868
1380
1120
1240
7180
9110
1238
15C8
1160
1158
1244
1D44
10C0
1080
ENDCHAR
STARTCHAR 4FC3
ENCODING 20419
SWIDTH 1020 0
DWIDTH 17 0
BBX 15 16 1 -3
BITMAP
1000
0800
13F0
1210
2220
62F0
A380
A080
2290
22E8
2280
2480
2780
2840
303C
200A
ENDCHAR
STARTCHAR 4FC4
ENCODING 20420
SWIDTH 1020 0
DWIDTH 17 0
BBX 14 16 1 -3
BITMAP
1080
0840
1040
11D0
2E50
6240
6FFC
A248
22C8
2330
2E20
2264
2294
260C
2204
2004
ENDCHAR
STARTCHAR 4FC5
ENCODING 20421
SWIDTH 1020 0
DWIDTH 17 0
BBX 15 15 1 -2
BITMAP
08A0
0890
1090
10F8
1780
3490
5290
92E0
10A0
1390
1490
108E
1280
1180
1080
ENDCHAR
STARTCHAR 4FC7
ENCODING 20423
SWIDTH 1020 0
DWIDTH 17 0
BBX 15 15 1 -2
BITMAP
0900
1A00
167C
16A0
2A20
7120
6120
A378
2520
2920
2920
2120
263E
22C0
2000
ENDCHAR
STARTCHAR 4FC9
ENCODING 20425
SWIDTH 1020 0
DWIDTH 17 0
BBX 15 15 1 -2
BITMAP
0800
0BF8
1080
1090
17F0
3110
5114
97EA
1210
13F0
1210
1210
1210
13E0
1200
ENDCHAR
STARTCHAR 4FCA
ENCODING 20426
SWIDTH 1020 0
DWIDTH 17 0
BBX 15 16 1 -3
BITMAP
0880
0880
0900
1120
1230
35C8
5130
9288
1498
11F0
1320
14C0
1040
11A0
121C
0402
ENDCHAR
STARTCHAR 4FCB
ENCODING 20427
SWIDTH 1020 0
DWIDTH 17 0
BBX 14 15 1 -2
BITMAP
0A10
0BE0
1220
1230
13C0
3410
57F0
9490
1490
1760
1408
1404
1404
13FC
1000
ENDCHAR
STARTCHAR 4FCD
ENCODING 20429
SWIDTH 1020 0
DWIDTH 17 0
BBX 15 15 1 -2
BITMAP
0880
0880
1230
13D0
1220
33E0
5220
91D0
1290
12A0
1240
1220
1290
130E
1000
ENDCHAR
STARTCHAR 4FCE
ENCODING 20430
SWIDTH 1020 0
DWIDTH 17 0
BBX 14 14 2 -2
BITMAP
1000
2470
23A0
3A20
4A20
83E0
9220
2220
2220
33E0
4A20
8220
8238
1DC4
ENDCHAR
STARTCHAR 4FCF
ENCODING 20431
SWIDTH 1020 0
DWIDTH 17 0
BBX 13 16 1 -3
BITMAP
0880
0850
0A58
1150
1160
3248
53B8
9208
11E8
1208
1268
1388
1208
1228
1218
1010
ENDCHAR
STARTCHAR 4FD0
ENCODING 20432
SWIDTH 1020 0
DWIDTH 17 0
BBX 13 16 1 -3
BITMAP
1010
0808
1088
1708
1928
3128
5FE8
9328
13A8
1568
1928
1108
1108
1128
1118
1008
ENDCHAR
STARTCHAR 4FD1
ENCODING 20433
SWIDTH 1020 0
DWIDTH 17 0
BBX 13 16 1 -3
BITMAP
0800
0400
0BF0
1020
14C0
3278
53C8
9248
13F8
1248
13F8
1248
1248
1248
1258
1008
ENDCHAR
STARTCHAR 4FD3
ENCODING 20435
SWIDTH 1020 0
DWIDTH 17 0
BBX 14 15 1 -2
BITMAP
0800
0FF8
1050
1290
14A0
3520
5490
9250
1000
13F8
1080
1080
1080
17FC
1000
ENDCHAR
STARTCHAR 4FD4
ENCODING 20436
SWIDTH 1020 0
DWIDTH 17 0
BBX 15 15 1 -2
BITMAP
0A10
0BF0
1210
11D0
1210
32D0
5310
9210
13F0
1340
1144
1144
1244
1426
1018
ENDCHAR
STARTCHAR 4FD6
ENCODING 20438
SWIDTH 1020 0
DWIDTH 17 0
BBX 14 16 1 -3
BITMAP
0800
0400
0BFC
0840
1080
11B0
3288
5484
9080
1290
1370
1210
1210
1210
13E0
1000
ENDCHAR
STARTCHAR 4FD7
ENCODING 20439
SWIDTH 1020 0
DWIDTH 17 0
BBX 15 16 1 -3
BITMAP
0800
0900
1120
1210
1488
3880
5140
9120
1210
1408
1AF6
1320
1220
1220
13D0
1000
ENDCHAR
STARTCHAR 4FD8
ENCODING 20440
SWIDTH 1020 0
DWIDTH 17 0
BBX 15 16 1 -3
BITMAP
0800
0808
0870
1790
1290
3260
5178
93A0
1040
1046
17F8
1040
1040
10C0
1040
1040
ENDCHAR
STARTCHAR 4FD9
ENCODING 20441
SWIDTH 1020 0
DWIDTH 17 0
BBX 14 16 1 -3
BITMAP
0020
0A20
09C0
10A0
1190
1280
31FC
5740
9248
15F8
1A48
1250
1270
1250
1040
1040
ENDCHAR
STARTCHAR 4FDA
ENCODING 20442
SWIDTH 1020 0
DWIDTH 17 0
BBX 15 15 1 -2
BITMAP
0800
0A78
13C8
1248
33F8
5248
9248
13F0
1040
1048
13F0
1040
1044
17BA
1000
ENDCHAR
STARTCHAR 4FDB
ENCODING 20443
SWIDTH 1020 0
DWIDTH 17 0
BBX 15 16 1 -3
BITMAP
0100
0880
0900
11E0
1240
1470
3B90
5490
9290
13E0
14C0
1144
1144
1244
143E
1000
ENDCHAR
STARTCHAR 4FDC
ENCODING 20444
SWIDTH 1020 0
DWIDTH 17 0
BBX 15 16 1 -3
BITMAP
0080
0880
0C98
13F0
1290
13F0
3290
5368
903E
1FC0
1118
12F0
1010
10A0
1060
1040
ENDCHAR
STARTCHAR 4FDD
ENCODING 20445
SWIDTH 1020 0
DWIDTH 17 0
BBX 15 15 1 -2
BITMAP
0C00
13F0
1210
2220
2270
6380
A080
23FC
2CC0
21A0
2290
2488
288E
3080
2080
ENDCHAR
STARTCHAR 4FDE
ENCODING 20446
SWIDTH 1020 0
DWIDTH 17 0
BBX 15 16 1 -3
BITMAP
0100
0100
0300
04C0
0820
17D0
202E
5220
9EA0
12A0
1EA0
16A0
1A20
12A0
1660
1220
ENDCHAR
STARTCHAR 4FDF
ENCODING 20447
SWIDTH 1020 0
DWIDTH 17 0
BBX 15 16 1 -3
BITMAP
0800
0480
0880
1120
1210
33E8
5100
91F0
1680
1088
17F4
10C0
1120
1210
140C
1802
ENDCHAR
STARTCHAR 4FE0
ENCODING 20448
SWIDTH 1020 0
DWIDTH 17 0
BBX 15 16 1 -3
BITMAP
0880
0840
0840
105C
17E0
3250
5250
92B0
15C8
18C0
10A0
10A0
1110
1208
140E
1800
ENDCHAR
STARTCHAR 4FE1
ENCODING 20449
SWIDTH 1020 0
DWIDTH 17 0
BBX 14 16 1 -3
BITMAP
0800
0880
0840
1008
17F4
3000
53F0
9000
13F0
1000
1270
1390
1210
1210
13E0
1000
ENDCHAR
STARTCHAR 4FEC
ENCODING 20460
SWIDTH 1020 0
DWIDTH 17 0
BBX 14 15 1 -2
BITMAP
0800
1090
1310
1510
2120
6FE0
6120
A3A0
2528
2548
2944
3144
217C
2104
2000
ENDCHAR
STARTCHAR 4FEE
ENCODING 20462
SWIDTH 1020 0
DWIDTH 17 0
BBX 15 15 1 -2
BITMAP
0880
1080
1178
2AA0
2E60
6860
A990
2A4E
28A0
2B30
28D8
2120
2240
2180
2600
ENDCHAR
STARTCHAR 4FEF
ENCODING 20463
SWIDTH 1020 0
DWIDTH 17 0
BBX 15 16 1 -3
BITMAP
0800
0880
0840
143C
17C8
3490
5510
973E
1350
1550
1530
1510
1910
1930
1910
1000
ENDCHAR
STARTCHAR 4FF1
ENCODING 20465
SWIDTH 1020 0
DWIDTH 17 0
BBX 15 16 1 -3
BITMAP
0800
0800
1230
13D0
1210
73F0
5210
93F0
1210
13F0
1214
1DEA
1130
1208
1404
0800
ENDCHAR
STARTCHAR 4FF3
ENCODING 20467
SWIDTH 1020 0
DWIDTH 17 0
BBX 14 15 1 -2
BITMAP
0920
0940
1140
1138
3740
5140
9338
1540
1140
177C
1A40
1240
1440
1440
1040
ENDCHAR
STARTCHAR 4FF4
ENCODING 20468
SWIDTH 1020 0
DWIDTH 17 0
BBX 14 15 1 -2
BITMAP
0A40
0920
1138
17E0
10A0
30C8
5328
9258
1210
11E8
1710
10E4
10C4
1334
1408
ENDCHAR
STARTCHAR 4FF5
ENCODING 20469
SWIDTH 1020 0
DWIDTH 17 0
BBX 15 16 1 -3
BITMAP
0080
0880
0880
13F8
1080
13F0
3080
507C
9790
1198
1260
1320
1E50
1288
110E
1000
ENDCHAR
STARTCHAR 4FF6
ENCODING 20470
SWIDTH 1020 0
DWIDTH 17 0
BBX 15 15 1 -2
BITMAP
0A00
1200
1280
2318
2270
6290
6F50
A250
2530
2AA0
2A30
3250
2648
2286
2000
ENDCHAR
STARTCHAR 4FF7
ENCODING 20471
SWIDTH 1020 0
DWIDTH 17 0
BBX 14 15 1 -2
BITMAP
0800
1700
1588
2578
25A8
67A8
65A8
A7D0
2980
2980
2984
2984
2B44
3138
2000
ENDCHAR
STARTCHAR 4FF8
ENCODING 20472
SWIDTH 1020 0
DWIDTH 17 0
BBX 15 16 1 -3
BITMAP
0080
0880
1080
17F0
1100
33F0
51F8
9EA0
1290
17EC
1882
11F8
1680
1080
1080
1080
ENDCHAR
STARTCHAR 4FFA
ENCODING 20474
SWIDTH 1020 0
DWIDTH 17 0
BBX 15 16 1 -3
BITMAP
0800
0880
0880
1100
17F8
3220
5290
94A8
1F66
15E0
1520
13D8
1108
1088
107C
2000
ENDCHAR
STARTCHAR 4FFE
ENCODING 20478
SWIDTH 1020 0
DWIDTH 17 0
BBX 15 16 1 -3
BITMAP
0880
0440
0880
1378
12C8
3278
5390
9290
13E8
1120
123E
15E0
1020
1020
1020
1020
ENDCHAR
STARTCHAR 5000
ENCODING 20480
SWIDTH 1020 0
DWIDTH 17 0
BBX 14 16 1 -3
BITMAP
0800
0A00
11F0
1200
13E0
3200
53E0
9208
1FF4
1290
12A0
1240
1220
1290
130C
2000
ENDCHAR
STARTCHAR 5005
ENCODING 20485
SWIDTH 1020 0
DWIDTH 17 0
BBX 14 16 1 -3
BITMAP
0100
0880
08C0
13F8
1530
1220
3130
56C8
9440
1040
11FC
1640
1040
1040
1040
1080
ENDCHAR
STARTCHAR 5006
ENCODING 20486
SWIDTH 1020 0
DWIDTH 17 0
BBX 14 15 1 -2
BITMAP
0800
103C
1FC0
2880
65FC
6688
A6A8
25A8
27D8
2448
2488
2488
24A8
2498
2010
ENDCHAR
STARTCHAR 5007
ENCODING 20487
SWIDTH 1020 0
DWIDTH 17 0
BBX 15 15 1 -2
BITMAP
0880
0C88
1478
1790
1600
3250
52F0
95D0
1550
1B70
1250
1244
1444
183E
1000
ENDCHAR
STARTCHAR 5009
ENCODING 20489
SWIDTH 1020 0
DWIDTH 17 0
BBX 15 16 1 -3
BITMAP
0200
0100
0300
0480
0A40
1370
2DCE
4840
8FC0
08C0
1700
1BE0
1C40
2840
47A0
0800
ENDCHAR
STARTCHAR 500B
ENCODING 20491
SWIDTH 1020 0
DWIDTH 17 0
BBX 13 16 1 -3
BITMAP
1000
0800
1408
13F8
1448
3448
5478
95C8
1548
15A8
1528
14E8
1408
1418
17E8
1000
ENDCHAR
STARTCHAR 500C
ENCODING 20492
SWIDTH 1020 0
DWIDTH 17 0
BBX 14 16 1 -3
BITMAP
0880
0880
0C40
147C
1788
3610
51F0
9220
1270
1380
1238
13D0
1210
1238
13C0
1200
ENDCHAR
STARTCHAR 500D
ENCODING 20493
SWIDTH 1020 0
DWIDTH 17 0
BBX 14 16 1 -3
BITMAP
0800
0480
0840
1000
17F8
3220
5120
914C
16B0
1210
11F0
1210
1210
1230
13C0
1000
ENDCHAR
STARTCHAR 500E
ENCODING 20494
SWIDTH 1020 0
DWIDTH 17 0
BBX 15 16 1 -3
BITMAP
0040
08A0
0940
1548
13F0
1550
3350
53F0
9350
1350
12FE
1D00
1130
1208
1408
1800
ENDCHAR
STARTCHAR 500F
ENCODING 20495
SWIDTH 1020 0
DWIDTH 17 0
BBX 15 15 1 -2
BITMAP
0880
1100
11F0
2320
6EC0
6C60
A898
2B66
2C50
28B8
23C0
20A0
2110
2208
2C00
ENDCHAR
STARTCHAR 5011
ENCODING 20497
SWIDTH 1020 0
DWIDTH 17 0
BBX 14 16 1 -3
BITMAP
1000
0840
15BC
26C8
23B8
6548
A5F8
A608
2408
2408
2408
2408
2408
2418
2408
2000
ENDCHAR
STARTCHAR 5012
ENCODING 20498
SWIDTH 1020 0
DWIDTH 17 0
BBX 13 16 1 -3
BITMAP
0008
1008
1008
2FC8
2228
6528
ABA8
A6A8
2228
23A8
2E08
2208
2388
3C28
2018
2008
ENDCHAR
STARTCHAR 5013
ENCODING 20499
SWIDTH 1020 0
DWIDTH 17 0
BBX 15 16 1 -3
BITMAP
0080
0840
0C90
12A0
12C0
10C0
3130
5290
9490
1490
12E0
12C0
1120
1110
1208
1406
ENDCHAR
STARTCHAR 5014
ENCODING 20500
SWIDTH 1020 0
DWIDTH 17 0
BBX 14 16 1 -3
BITMAP
0800
0C08
13F8
1208
1208
33F0
5228
9328
1528
1528
15F8
1524
1528
1928
19D8
1000
ENDCHAR
STARTCHAR 5015
ENCODING 20501
SWIDTH 1020 0
DWIDTH 17 0
BBX 14 15 1 -2
BITMAP
0830
08C0
1380
1098
17E0
3290
5294
9FE8
12A0
1280
11FC
1680
1080
17F8
1000
ENDCHAR
STARTCHAR 5016
ENCODING 20502
SWIDTH 1020 0
DWIDTH 17 0
BBX 15 16 1 -3
BITMAP
0880
0440
0840
10F0
1340
107C
77A0
9120
1038
13C0
1040
17FE
1040
1040
1040
1040
ENDCHAR
STARTCHAR 5017
ENCODING 20503
SWIDTH 1020 0
DWIDTH 17 0
BBX 13 15 1 -2
BITMAP
0800
1548
17F8
2548
2548
6778
6548
A738
2548
2548
2948
2948
2BA8
3198
2100
ENDCHAR
STARTCHAR 5018
ENCODING 20504
SWIDTH 1020 0
DWIDTH 17 0
BBX 13 16 1 -3
BITMAP
0800
0880
1090
1490
22A0
22A0
6488
A778
2408
24E8
2548
24E8
2508
2448
2430
2010
ENDCHAR
STARTCHAR 5019
ENCODING 20505
SWIDTH 1020 0
DWIDTH 17 0
BBX 15 16 1 -3
BITMAP
0800
0800
11F0
1020
2028
27D4
6580
A5F0
2640
2448
27F4
28A0
2090
2108
220C
2402
ENDCHAR
STARTCHAR 501A
ENCODING 20506
SWIDTH 1020 0
DWIDTH 17 0
BBX 14 16 1 -3
BITMAP
0880
0880
0880
17F8
1140
3130
5200
9FFC
9020
14A0
17A0
14A0
1720
10A0
1060
1020
ENDCHAR
STARTCHAR 501B
ENCODING 20507
SWIDTH 1020 0
DWIDTH 17 0
BBX 14 16 1 -3
BITMAP
0020
0920
0920
1128
17F0
1120
31E0
5120
91E0
1120
1124
1ED8
1120
1118
1208
1C00
ENDCHAR
STARTCHAR 501C
ENCODING 20508
SWIDTH 1020 0
DWIDTH 17 0
BBX 13 15 1 -2
BITMAP
0A08
0AF8
1348
1248
12F8
3248
53B8
9328
13E8
1528
14E8
1508
1428
1818
1000
ENDCHAR
STARTCHAR 501E
ENCODING 20510
SWIDTH 1020 0
DWIDTH 17 0
BBX 14 16 1 -3
BITMAP
0080
0840
0840
107C
1380
1278
3390
5210
91E8
1240
1250
1348
1248
1444
10C0
1080
ENDCHAR
STARTCHAR 501F
ENCODING 20511
SWIDTH 1020 0
DWIDTH 17 0
BBX 14 16 1 -3
BITMAP
0800
0920
0920
1120
11F8
3720
5120
91FC
1600
11F0
1210
1250
1390
1210
11E0
1220
ENDCHAR
STARTCHAR 5020
ENCODING 20512
SWIDTH 1020 0
DWIDTH 17 0
BBX 14 15 1 -2
BITMAP
0940
0920
1220
12F8
1340
3240
5EF8
9340
1240
13F8
1240
1240
127C
1380
1200
ENDCHAR
STARTCHAR 5021
ENCODING 20513
SWIDTH 1020 0
DWIDTH 17 0
BBX 13 16 1 -3
BITMAP
0800
0800
0AF0
1320
12E0
3320
52F0
9300
1408
17F8
1408
13E8
1408
1428
17D0
1000
ENDCHAR
STARTCHAR 5022
ENCODING 20514
SWIDTH 1020 0
DWIDTH 17 0
BBX 15 16 1 -3
BITMAP
0080
0880
0880
13F8
1490
13F0
309C
57E0
90B0
13C0
1290
14E0
1780
1840
183E
1000
ENDCHAR
STARTCHAR 5023
ENCODING 20515
SWIDTH 1020 0
DWIDTH 17 0
BBX 15 16 1 -3
BITMAP
1020
1420
1220
2240
2040
6FFC
6450
A7D0
24D0
2520
2920
2A30
2A50
3688
2306
2200
ENDCHAR
STARTCHAR 5025
ENCODING 20517
SWIDTH 1020 0
DWIDTH 17 0
BBX 15 16 1 -3
BITMAP
0800
0880
0840
1444
13B8
3408
5530
9208
1400
1038
13C0
1040
1040
107E
1780
1000
ENDCHAR
STARTCHAR 5026
ENCODING 20518
SWIDTH 1020 0
DWIDTH 17 0
BBX 15 16 1 -3
BITMAP
0800
0840
1490
12A0
12A0
77D8
5100
97FC
1210
1668
1BA6
1340
12D0
1210
1118
10E0
ENDCHAR
STARTCHAR 5027
ENCODING 20519
SWIDTH 1020 0
DWIDTH 17 0
BBX 14 15 1 -2
BITMAP
0880
0840
120C
13F8
1410
3030
51C0
900C
17F0
1040
1250
1248
1548
18C0
1080
ENDCHAR
STARTCHAR 5028
ENCODING 20520
SWIDTH 1020 0
DWIDTH 17 0
BBX 14 16 1 -3
BITMAP
0800
0A00
0AF8
1308
1208
33F0
5240
9240
13FC
1240
1558
15A8
1508
1908
19F0
1000
ENDCHAR
STARTCHAR 5029
ENCODING 20521
SWIDTH 1020 0
DWIDTH 17 0
BBX 14 16 1 -3
BITMAP
0880
0840
0880
1378
1080
33F0
50BC
9740
12F0
1310
11F0
1210
13F0
1250
1230
1210
ENDCHAR
STARTCHAR 502A
ENCODING 20522
SWIDTH 1020 0
DWIDTH 17 0
BBX 15 16 1 -3
BITMAP
1000
0900
1630
1450
2410
67F0
6410
A470
27C0
2140
2140
2244
2244
2444
243E
3800
ENDCHAR
STARTCHAR 502B
ENCODING 20523
SWIDTH 1020 0
DWIDTH 17 0
BBX 15 15 1 -2
BITMAP
0880
0880
1140
1120
3210
55E8
9406
1FF8
1550
1530
17D0
1550
1550
1430
0020
ENDCHAR
STARTCHAR 502C
ENCODING 20524
SWIDTH 1020 0
DWIDTH 17 0
BBX 14 16 1 -3
BITMAP
0080
0880
0898
10E0
1298
1370
3250
53B0
9210
13E0
1084
17F8
1080
1080
1080
1080
ENDCHAR
STARTCHAR 502D
ENCODING 20525
SWIDTH 1020 0
DWIDTH 17 0
BBX 15 16 1 -3
BITMAP
0800
0830
10C0
1380
11FC
37C0
51A0
9298
1D86
1124
1FF8
1220
1140
10E0
1190
1E08
ENDCHAR
STARTCHAR 502F
ENCODING 20527
SWIDTH 1020 0
DWIDTH 17 0
BBX 15 15 1 -2
BITMAP
0A20
1220
1260
2250
2350
6E90
62A8
A7A8
2B46
2B40
3250
2488
24F8
2408
2000
ENDCHAR
STARTCHAR 5030
ENCODING 20528
SWIDTH 1020 0
DWIDTH 17 0
BBX 15 16 1 -3
BITMAP
0080
0880
0880
13F0
1080
17F8
3120
5290
9528
19E0
1340
14C0
18C0
1120
161E
1000
ENDCHAR
STARTCHAR 5031
ENCODING 20529
SWIDTH 1020 0
DWIDTH 17 0
BBX 14 15 1 -2
BITMAP
0C10
0BF0
1220
12E0
1320
3230
53C0
9448
1448
13F0
1448
1444
15C4
1644
1038
ENDCHAR
STARTCHAR 5033
ENCODING 20531
SWIDTH 1020 0
DWIDTH 17 0
BBX 15 16 1 -3
BITMAP
0080
0880
088C
17F0
12B0
13D0
3270
5390
93F8
109E
1FF0
1070
1388
1180
1080
1000
ENDCHAR
STARTCHAR 5035
ENCODING 20533
SWIDTH 1020 0
DWIDTH 17 0
BBX 14 16 1 -3
BITMAP
0080
0840
0850
1350
1440
13F8
3D40
5140
9520
15E0
1520
1514
15D4
1E0C
1004
1000
ENDCHAR
STARTCHAR 5037
ENCODING 20535
SWIDTH 1020 0
DWIDTH 17 0
BBX 15 15 1 -2
BITMAP
0880
0880
10F8
1740
1120
3210
53E8
9406
1FF8
1080
12A0
1290
1688
1980
1000
ENDCHAR
STARTCHAR 503C
ENCODING 20540
SWIDTH 1020 0
DWIDTH 17 0
BBX 15 16 1 -3
BITMAP
0800
0840
0880
1080
17F8
3290
51F0
9210
11F0
1210
13D0
1270
1390
1214
15EA
1000
ENDCHAR
STARTCHAR 5040
ENCODING 20544
SWIDTH 1020 0
DWIDTH 17 0
BBX 15 16 1 -3
BITMAP
0020
0920
0928
17F4
11C0
1180
3270
5390
9290
129C
1DE0
1140
1120
1210
140C
1002
ENDCHAR
STARTCHAR 5041
ENCODING 20545
SWIDTH 1020 0
DWIDTH 17 0
BBX 15 15 1 -2
BITMAP
0830
11D0
1250
1260
2740
62B8
63D0
A270
2390
229E
2F70
2210
2250
2230
2000
ENDCHAR
STARTCHAR 5043
ENCODING 20547
SWIDTH 1020 0
DWIDTH 17 0
BBX 14 16 1 -3
BITMAP
1000
0C00
13F8
1510
15F0
34F0
5510
95E0
1450
17BC
14A0
1470
14C8
1500
13FC
1000
ENDCHAR
STARTCHAR 5045
ENCODING 20549
SWIDTH 1020 0
DWIDTH 17 0
BBX 14 15 1 -2
BITMAP
0830
08C0
1380
13FC
1490
33F0
5490
95F0
1490
17E8
1080
13F8
1080
10FC
1700
ENDCHAR
STARTCHAR 5046
ENCODING 20550
SWIDTH 1020 0
DWIDTH 17 0
BBX 15 16 1 -3
BITMAP
0080
08C0
0880
13F0
1090
1360
3118
57E4
9210
16E8
1B2E
12E0
1320
1220
13E0
1200
ENDCHAR
STARTCHAR 5047
ENCODING 20551
SWIDTH 1020 0
DWIDTH 17 0
BBX 15 15 1 -2
BITMAP
0800
1838
17C8
2508
6578
6680
A438
27C8
2450
27B0
2420
2430
2450
248C
0B02
ENDCHAR
STARTCHAR 5048
ENCODING 20552
SWIDTH 1020 0
DWIDTH 17 0
BBX 14 15 1 -2
BITMAP
0A10
0BF0
1210
13E0
1230
33C0
511C
92E8
16C8
1AC8
1328
1230
15D0
1030
1020
ENDCHAR
STARTCHAR 5049
ENCODING 20553
SWIDTH 1020 0
DWIDTH 17 0
BBX 14 16 1 -3
BITMAP
0880
0880
0890
13F0
1124
36D8
5230
93D0
1270
13C0
15F0
1440
17FC
1040
1040
1040
ENDCHAR
STARTCHAR 504A
ENCODING 20554
SWIDTH 1020 0
DWIDTH 17 0
BBX 14 15 1 -2
BITMAP
0410
08E0
1390
13F8
1290
3278
5380
949C
17E8
14A8
14D8
1508
1428
1418
1008
ENDCHAR
STARTCHAR 504B
ENCODING 20555
SWIDTH 1020 0
DWIDTH 17 0
BBX 15 15 1 -2
BITMAP
0A18
0BE8
1208
11F0
1310
7290
52AC
93D0
1490
14FE
1790
1890
1910
1210
1000
ENDCHAR
STARTCHAR 504C
ENCODING 20556
SWIDTH 1020 0
DWIDTH 17 0
BBX 14 15 1 -2
BITMAP
0A10
0910
117C
17A0
3160
5040
909C
1760
1110
11F0
1710
1910
1130
11C0
1000
ENDCHAR
STARTCHAR 504D
ENCODING 20557
SWIDTH 1020 0
DWIDTH 17 0
BBX 15 15 1 -2
BITMAP
0A10
11E0
1220
11E0
2220
61D0
6000
A7FC
2080
22B0
22C0
2580
2440
283C
2002
ENDCHAR
STARTCHAR 504E
ENCODING 20558
SWIDTH 1020 0
DWIDTH 17 0
BBX 15 15 1 -2
BITMAP
0A18
0BF0
1250
11F0
3250
53E8
9200
1FFC
1288
1250
1220
1220
1290
110C
1202
ENDCHAR
STARTCHAR 504F
ENCODING 20559
SWIDTH 1020 0
DWIDTH 17 0
BBX 14 15 1 -2
BITMAP
0040
0C60
1390
13F0
1210
3230
55C0
9604
15F8
16A8
1678
17A8
1AA8
1AA8
12B8
ENDCHAR
STARTCHAR 5051
ENCODING 20561
SWIDTH 1020 0
DWIDTH 17 0
BBX 15 15 1 -2
BITMAP
0C00
0C78
1790
1470
1590
3490
55F0
95B0
15B0
15D0
14AC
14BC
1B56
1802
1000
ENDCHAR
STARTCHAR 5053
ENCODING 20563
SWIDTH 1020 0
DWIDTH 17 0
BBX 14 15 1 -2
BITMAP
0C10
0BF0
1210
1270
1380
75F8
54A0
9490
15E8
1440
1440
19F8
1840
13FC
2400
ENDCHAR
STARTCHAR 5055
ENCODING 20565
SWIDTH 1020 0
DWIDTH 17 0
BBX 14 16 1 -3
BITMAP
1000
0C40
1648
1450
27E0
24C4
6544
A6BC
2280
23F8
2210
23D0
2210
2210
23F0
2000
ENDCHAR
STARTCHAR 5057
ENCODING 20567
SWIDTH 1020 0
DWIDTH 17 0
BBX 14 15 1 -2
BITMAP
0840
0850
1148
1254
1260
3040
51B8
93C8
1528
11D0
1130
11D0
1110
11F0
1000
ENDCHAR
STARTCHAR 505A
ENCODING 20570
SWIDTH 1020 0
DWIDTH 17 0
BBX 15 15 1 -2
BITMAP
1220
1440
2440
2440
2FFC
E490
A490
3760
2A60
2A20
2A20
2D50
2890
2108
2206
ENDCHAR
STARTCHAR 505B
ENCODING 20571
SWIDTH 1020 0
DWIDTH 17 0
BBX 14 15 1 -2
BITMAP
0800
09F8
1280
1084
17F8
3080
5588
92B8
1488
15B8
1688
1488
1490
1770
1400
ENDCHAR
STARTCHAR 505C
ENCODING 20572
SWIDTH 1020 0
DWIDTH 17 0
BBX 14 16 1 -3
BITMAP
0880
0880
08C0
177C
1210
33F0
52F0
9704
17FC
1418
1BE0
1040
1040
1040
11C0
1040
ENDCHAR
STARTCHAR 505D
ENCODING 20573
SWIDTH 1020 0
DWIDTH 17 0
BBX 14 16 1 -3
BITMAP
0040
0940
0948
1770
1148
1344
3538
5210
93F0
1250
1390
1250
1390
1250
1230
1010
ENDCHAR
STARTCHAR 505E
ENCODING 20574
SWIDTH 1020 0
DWIDTH 17 0
BBX 14 16 1 -3
BITMAP
0020
0CA0
0AA0
12FC
1FA0
12E0
7200
53F8
9080
107C
17C0
11A0
1290
148C
1880
1080
ENDCHAR
STARTCHAR 505F
ENCODING 20575
SWIDTH 1020 0
DWIDTH 17 0
BBX 14 16 1 -3
BITMAP
0080
0880
0880
12F0
1310
13D0
3210
5270
9380
13F8
1080
1090
13E0
1080
17FC
1000
ENDCHAR
STARTCHAR 5060
ENCODING 20576
SWIDTH 1020 0
DWIDTH 17 0
BBX 14 15 1 -2
BITMAP
0818
0FE0
1150
13F8
1550
7550
57A8
91A0
113C
1EE0
1240
11C0
10A0
1310
2400
ENDCHAR
STARTCHAR 5061
ENCODING 20577
SWIDTH 1020 0
DWIDTH 17 0
BBX 14 16 1 -3
BITMAP
0020
0920
0A20
1218
15E0
1120
31E0
5160
91A0
117C
16A0
12A0
1338
1200
12FC
1100
ENDCHAR
STARTCHAR 5062
ENCODING 20578
SWIDTH 1020 0
DWIDTH 17 0
BBX 15 16 1 -3
BITMAP
0040
0920
1220
1E20
2228
22A8
6FB0
62B0
A320
2660
2A50
3250
2288
2288
2306
2000
ENDCHAR
STARTCHAR 5063
ENCODING 20579
SWIDTH 1020 0
DWIDTH 17 0
BBX 14 16 1 -3
BITMAP
0100
0880
0840
13F8
1220
1120
3148
57B4
9210
13F0
1210
12D0
1330
1210
13F0
1200
ENDCHAR
STARTCHAR 5064
ENCODING 20580
SWIDTH 1020 0
DWIDTH 17 0
BBX 14 16 1 -3
BITMAP
0020
0A20
0940
1144
17F8
1140
34F8
5748
9550
1530
1610
1450
15B0
1430
17D0
1400
ENDCHAR
STARTCHAR 5065
ENCODING 20581
SWIDTH 1020 0
DWIDTH 17 0
BBX 15 16 1 -3
BITMAP
1040
0840
1048
11F8
224C
2DF0
6450
AAE8
2E50
22E8
243C
2DC0
2640
29C0
3020
201E
ENDCHAR
STARTCHAR 5068
ENCODING 20584
SWIDTH 1020 0
DWIDTH 17 0
BBX 15 15 1 -2
BITMAP
0960
0948
1350
15A8
1548
34C4
53B8
9480
10BC
17C0
11A0
1190
1688
1886
1000
ENDCHAR
STARTCHAR 5069
ENCODING 20585
SWIDTH 1020 0
DWIDTH 17 0
BBX 13 15 1 -2
BITMAP
0880
09E0
1240
1248
1FB8
3208
53F0
9210
13F0
1210
13F0
12A0
1110
1208
1C00
ENDCHAR
STARTCHAR 506A
ENCODING 20586
SWIDTH 1020 0
DWIDTH 17 0
BBX 13 15 1 -2
BITMAP
0808
0BF0
1010
11F0
1210
3270
5380
9478
1788
1488
1578
1488
1488
1378
1400
ENDCHAR
STARTCHAR 506B
ENCODING 20587
SWIDTH 1020 0
DWIDTH 17 0
BBX 14 16 1 -3
BITMAP
0040
0A20
1220
1228
15F0
2920
623C
62D0
AE10
32FC
2390
2250
2210
2230
2210
2010
ENDCHAR
STARTCHAR 506D
ENCODING 20589
SWIDTH 1020 0
DWIDTH 17 0
BBX 13 14 2 -2
BITMAP
1000
1000
2FF8
2080
2910
E7F0
A550
2550
25D0
2550
25D0
2550
2570
2690
ENDCHAR
STARTCHAR 506E
ENCODING 20590
SWIDTH 1020 0
DWIDTH 17 0
BBX 15 15 1 -2
BITMAP
0AF0
0B10
1210
13E0
1008
37F4
5220
93E0
1260
13A0
122E
1DF0
1020
1020
1020
ENDCHAR
STARTCHAR 506F
ENCODING 20591
SWIDTH 1020 0
DWIDTH 17 0
BBX 15 14 1 -2
BITMAP
0880
0840
107C
1780
1230
73D0
9210
13E8
1088
1150
1320
1D10
1148
1186
ENDCHAR
STARTCHAR 5070
ENCODING 20592
SWIDTH 1020 0
DWIDTH 17 0
BBX 15 15 1 -2
BITMAP
0A00
120C
17F8
22A8
2728
63D0
6E90
A280
208C
2FF0
2140
2120
2210
240E
3800
ENDCHAR
STARTCHAR 5072
ENCODING 20594
SWIDTH 1020 0
DWIDTH 17 0
BBX 14 15 1 -2
BITMAP
0C08
0BF8
1290
12B0
13D0
3290
5278
9380
1090
1648
1544
1510
1890
1078
1000
ENDCHAR
STARTCHAR 5073
ENCODING 20595
SWIDTH 1020 0
DWIDTH 17 0
BBX 14 16 1 -3
BITMAP
0080
0850
0A48
1288
1250
13B0
301C
57E0
9480
13F8
1548
1548
1548
1548
1558
1030
ENDCHAR
STARTCHAR 5074
ENCODING 20596
SWIDTH 1020 0
DWIDTH 17 0
BBX 13 16 1 -3
BITMAP
0008
1008
1888
2788
24A8
67A8
64A8
A7A8
24A8
25A8
26A8
2308
2488
2858
3008
0008
ENDCHAR
STARTCHAR 5075
ENCODING 20597
SWIDTH 1020 0
DWIDTH 17 0
BBX 14 16 1 -3
BITMAP
0840
0440
0840
107C
1248
31B8
5208
91E8
1208
11E8
1208
11F8
12A0
1110
1108
1608
ENDCHAR
STARTCHAR 5076
ENCODING 20598
SWIDTH 1020 0
DWIDTH 17 0
BBX 14 16 1 -3
BITMAP
1000
0C10
13F0
1290
23F0
2290
63E8
A280
24FC
2F88
24B8
2778
2408
2428
2418
0010
ENDCHAR
STARTCHAR 5077
ENCODING 20599
SWIDTH 1020 0
DWIDTH 17 0
BBX 15 16 1 -3
BITMAP
0100
0880
1180
1140
2220
25F8
6A0E
B590
26D0
23D0
24D0
23D0
2490
24B0
2590
0100
ENDCHAR
STARTCHAR 507A
ENCODING 20602
SWIDTH 1020 0
DWIDTH 17 0
BBX 15 15 1 -3
BITMAP
0800
0908
1108
11C8
1650
36A8
59C4
9160
121C
1E12
11F8
1210
13F0
1210
13E8
ENDCHAR
STARTCHAR 507D
ENCODING 20605
SWIDTH 1020 0
DWIDTH 17 0
BBX 14 16 1 -3
BITMAP
0880
0840
0A80
1280
10F0
37A0
5128
91D0
1114
12EC
1504
1778
1AC8
1208
1038
1000
ENDCHAR
STARTCHAR 5080
ENCODING 20608
SWIDTH 1020 0
DWIDTH 17 0
BBX 14 16 1 -3
BITMAP
0900
0880
0D10
15F0
1690
34F0
5590
9490
17E0
11E0
11A0
11B4
12AC
1284
144C
1830
ENDCHAR
STARTCHAR 5082
ENCODING 20610
SWIDTH 1020 0
DWIDTH 17 0
BBX 14 15 1 -2
BITMAP
0818
0CE0
1340
1238
1348
33F0
5350
95E8
1538
15A0
15A0
1AA4
1AA4
1D24
1018
ENDCHAR
STARTCHAR 5083
ENCODING 20611
SWIDTH 1020 0
DWIDTH 17 0
BBX 14 16 1 -3
BITMAP
0080
0880
0898
17E0
13F0
1080
37FC
5120
9240
1190
1268
11C0
1150
1248
1CC8
1080
ENDCHAR
STARTCHAR 5085
ENCODING 20613
SWIDTH 1020 0
DWIDTH 17 0
BBX 15 16 1 -3
BITMAP
0800
0890
108C
17F0
1490
73F0
54F0
9590
15F0
14B0
1024
17FA
1120
1020
1060
1040
ENDCHAR
STARTCHAR 5087
ENCODING 20615
SWIDTH 1020 0
DWIDTH 17 0
BBX 15 15 1 -2
BITMAP
0910
0924
17F8
1140
103C
37E0
5120
91E0
1160
11A0
111E
16E0
1020
1020
1020
ENDCHAR
STARTCHAR 508B
ENCODING 20619
SWIDTH 1020 0
DWIDTH 17 0
BBX 15 16 1 -3
BITMAP
0020
0920
0928
13F0
11F8
1320
36DC
5248
93F0
1270
13D0
1FFE
1210
1250
1230
1010
ENDCHAR
STARTCHAR 508C
ENCODING 20620
SWIDTH 1020 0
DWIDTH 17 0
BBX 14 15 1 -2
BITMAP
0A00
0BF8
1240
13F0
1240
33F8
5248
92FC
1308
16A8
1568
1550
1850
1030
1020
ENDCHAR
STARTCHAR 508D
ENCODING 20621
SWIDTH 1020 0
DWIDTH 17 0
BBX 15 16 1 -3
BITMAP
0880
0840
1058
13A4
1120
34A6
57DC
9448
105C
17A0
1090
1170
1110
1190
1260
1C00
ENDCHAR
STARTCHAR 508E
ENCODING 20622
SWIDTH 1020 0
DWIDTH 17 0
BBX 15 16 1 -3
BITMAP
0080
0840
084C
17B0
1290
1170
3250
5390
91D0
1250
13B0
17FE
1120
1190
120C
1400
ENDCHAR
STARTCHAR 5091
ENCODING 20625
SWIDTH 1020 0
DWIDTH 17 0
BBX 15 15 1 -2
BITMAP
0910
0910
1298
13F0
3750
513C
9290
1450
107C
17C0
11A0
1290
1488
1886
1080
ENDCHAR
STARTCHAR 5092
ENCODING 20626
SWIDTH 1020 0
DWIDTH 17 0
BBX 15 15 1 -2
BITMAP
0838
0BD0
1490
12E0
10A0
3120
50E0
9130
12D0
108C
1F70
11A0
1110
1208
0C06
ENDCHAR
STARTCHAR 5094
ENCODING 20628
SWIDTH 1020 0
DWIDTH 17 0
BBX 15 16 1 -3
BITMAP
0020
0A20
0940
1078
17C0
1170
33D0
57FC
9160
13D0
1160
1360
1550
194E
1140
1100
ENDCHAR
STARTCHAR 5095
ENCODING 20629
SWIDTH 1020 0
DWIDTH 17 0
BBX 14 16 1 -3
BITMAP
0040
0840
0840
129C
13E8
1320
3128
51F0
9320
15F8
1120
11F8
1120
113C
11C0
1000
ENDCHAR
STARTCHAR 5096
ENCODING 20630
SWIDTH 1020 0
DWIDTH 17 0
BBX 15 16 1 -3
BITMAP
0080
0840
08C0
1120
1190
3248
55F6
9A10
13E0
1230
13C0
1330
15D0
1510
19E0
1000
ENDCHAR
STARTCHAR 5098
ENCODING 20632
SWIDTH 1020 0
DWIDTH 17 0
BBX 15 16 1 -3
BITMAP
0100
0100
0300
0480
0940
1970
294E
D7A0
0940
09A0
1530
01FC
7F00
0100
0100
0100
ENDCHAR
STARTCHAR 5099
ENCODING 20633
SWIDTH 1020 0
DWIDTH 17 0
BBX 13 15 2 -2
BITMAP
0A40
1240
12F0
2740
2258
6FA0
A210
25F0
2C90
35D0
2490
25F0
24D0
24B0
2010
ENDCHAR
STARTCHAR 509A
ENCODING 20634
SWIDTH 1020 0
DWIDTH 17 0
BBX 15 14 1 -1
BITMAP
0C20
1220
1240
27C0
6E7C
6590
ABD0
3150
2620
2220
2530
2550
2888
110E
ENDCHAR
STARTCHAR 509B
ENCODING 20635
SWIDTH 1020 0
DWIDTH 17 0
BBX 15 16 1 -3
BITMAP
0100
0880
0880
1438
17D0
1520
3290
5480
9160
1210
161E
19E0
1220
1220
11D0
1200
ENDCHAR
STARTCHAR 509C
ENCODING 20636
SWIDTH 1020 0
DWIDTH 17 0
BBX 14 15 1 -2
BITMAP
0840
0888
1170
12A0
1540
3180
5700
93F0
1440
107C
17C8
1248
1248
13B8
1000
ENDCHAR
STARTCHAR 509D
ENCODING 20637
SWIDTH 1020 0
DWIDTH 17 0
BBX 13 15 1 -2
BITMAP
0A10
0BF0
1250
1390
11E0
3208
53F8
9488
12A8
1298
13A8
1548
1328
1118
1000
ENDCHAR
STARTCHAR 509E
ENCODING 20638
SWIDTH 1020 0
DWIDTH 17 0
BBX 14 16 1 -3
BITMAP
0020
0A20
0920
1140
12B8
1080
33F0
5080
97FC
1100
1218
13E0
1440
1840
107C
1380
ENDCHAR
STARTCHAR 50A2
ENCODING 20642
SWIDTH 1020 0
DWIDTH 17 0
BBX 15 16 1 -3
BITMAP
0100
0880
1448
15FC
2608
2470
6380
A188
2670
21C0
2260
2CD0
2348
254E
20C0
3040
ENDCHAR
STARTCHAR 50A3
ENCODING 20643
SWIDTH 1020 0
DWIDTH 17 0
BBX 15 15 1 -2
BITMAP
0840
0880
13F8
1080
13F0
3104
5FF8
9290
16A8
19B4
10C2
13B0
1090
1180
1080
ENDCHAR
STARTCHAR 50AC
ENCODING 20652
SWIDTH 1020 0
DWIDTH 17 0
BBX 14 15 1 -2
BITMAP
0840
0A48
1248
1278
31C0
5120
93F8
1640
1A78
12C0
12F8
1240
123C
13C0
1200
ENDCHAR
STARTCHAR 50AD
ENCODING 20653
SWIDTH 1020 0
DWIDTH 17 0
BBX 14 16 1 -3
BITMAP
0080
0840
144C
17F0
24F8
654C
A7F0
A5E8
2648
27F8
26F8
2648
26F8
2A68
2A58
2000
ENDCHAR
STARTCHAR 50AE
ENCODING 20654
SWIDTH 1020 0
DWIDTH 17 0
BBX 13 16 2 -3
BITMAP
1000
0A40
1348
2FF0
2A70
6FD0
69F0
AB90
2760
2420
27E0
24A0
2760
2420
27E0
2000
ENDCHAR
STARTCHAR 50AF
ENCODING 20655
SWIDTH 1020 0
DWIDTH 17 0
BBX 14 15 1 -3
BITMAP
0880
0C88
13F8
1248
33B0
5350
92B0
1310
13E8
1080
1648
1514
1490
1068
0010
ENDCHAR
STARTCHAR 50B0
ENCODING 20656
SWIDTH 1020 0
DWIDTH 17 0
BBX 13 16 1 -3
BITMAP
1080
0CC8
1688
1488
2370
24C8
67F8
A4C8
27F8
24C8
27F8
24C8
26C8
29E8
2998
2000
ENDCHAR
STARTCHAR 50B1
ENCODING 20657
SWIDTH 1020 0
DWIDTH 17 0
BBX 15 16 1 -3
BITMAP
1000
0A90
1290
1490
2490
2B68
6540
AC40
3440
2538
2540
2540
26C0
2220
241E
2000
ENDCHAR
STARTCHAR 50B2
ENCODING 20658
SWIDTH 1020 0
DWIDTH 17 0
BBX 14 16 1 -3
BITMAP
1000
0A20
1220
2260
2FA0
623C
65D0
A258
2DD0
2530
27A0
2510
2970
2E48
328C
2300
ENDCHAR
STARTCHAR 50B3
ENCODING 20659
SWIDTH 1020 0
DWIDTH 17 0
BBX 14 16 1 -3
BITMAP
0880
0880
10B8
17C0
14F0
3790
55F0
93E0
1490
1768
1024
1FF8
1120
10A0
1060
1020
ENDCHAR
STARTCHAR 50B4
ENCODING 20660
SWIDTH 1020 0
DWIDTH 17 0
BBX 15 16 1 -3
BITMAP
0800
0C00
0AFC
1300
12B0
32D0
5290
92E0
1328
12FC
1368
135C
13A0
1204
13FA
1000
ENDCHAR
STARTCHAR 50B5
ENCODING 20661
SWIDTH 1020 0
DWIDTH 17 0
BBX 14 16 1 -3
BITMAP
0880
0880
10F8
1780
13F0
3088
5F74
9430
13D0
13D0
12D0
1330
13F0
1120
1210
1410
ENDCHAR
STARTCHAR 50B6
ENCODING 20662
SWIDTH 1020 0
DWIDTH 17 0
BBX 14 16 1 -3
BITMAP
0800
0850
0848
1450
13E0
2540
6550
A5A8
2530
27F0
2710
2794
2B74
2F4C
2904
3000
ENDCHAR
STARTCHAR 50B7
ENCODING 20663
SWIDTH 1020 0
DWIDTH 17 0
BBX 14 16 1 -3
BITMAP
0A00
0B00
13F8
1630
17D0
31E0
5230
93C0
17FC
1208
13F8
1D50
1250
14D0
1330
2400
ENDCHAR
STARTCHAR 50B8
ENCODING 20664
SWIDTH 1020 0
DWIDTH 17 0
BBX 15 16 1 -3
BITMAP
0880
0840
0840
10FC
1748
1370
71A8
5790
91B8
1298
13E8
14A0
1110
1218
140C
1002
ENDCHAR
STARTCHAR 50BA
ENCODING 20666
SWIDTH 1020 0
DWIDTH 17 0
BBX 15 16 1 -3
BITMAP
1000
0900
1218
13F0
2330
2520
6A10
A3E8
A40E
3BF0
2040
2250
2248
2444
28C8
2000
ENDCHAR
STARTCHAR 50BB
ENCODING 20667
SWIDTH 1020 0
DWIDTH 17 0
BBX 14 16 1 -3
BITMAP
0080
0880
0C88
13F8
1528
34E8
5518
97E0
1110
1288
1DF0
1340
14C0
10A0
131C
1C00
ENDCHAR
STARTCHAR 50BD
ENCODING 20669
SWIDTH 1020 0
DWIDTH 17 0
BBX 15 16 1 -3
BITMAP
1100
08C0
1078
13A0
2120
21FC
6608
A1F0
A270
2390
21E8
2240
27FE
2040
2040
2040
ENDCHAR
STARTCHAR 50BE
ENCODING 20670
SWIDTH 1020 0
DWIDTH 17 0
BBX 14 15 1 -3
BITMAP
0800
11FC
1820
24C8
24B8
6588
A6F8
2498
27E8
2488
28F8
2050
2088
2104
2000
ENDCHAR
STARTCHAR 50BF
ENCODING 20671
SWIDTH 1020 0
DWIDTH 17 0
BBX 13 16 2 -3
BITMAP
1000
0810
17E0
1480
26F0
6488
AF70
A220
25D0
23F8
2490
2B50
2A90
2A60
2020
2000
ENDCHAR
STARTCHAR 50C1
ENCODING 20673
SWIDTH 1020 0
DWIDTH 17 0
BBX 14 16 1 -3
BITMAP
1000
0830
11D0
1290
21A0
61DC
66C0
A1B0
228C
2C00
26D0
254C
2514
24C8
2038
2000
ENDCHAR
STARTCHAR 50C2
ENCODING 20674
SWIDTH 1020 0
DWIDTH 17 0
BBX 15 16 1 -3
BITMAP
0880
0840
0A70
1394
17F8
3290
53E0
92F8
1390
13E8
1096
1F68
1220
11C0
11B8
1E00
ENDCHAR
STARTCHAR 50C4
ENCODING 20676
SWIDTH 1020 0
DWIDTH 17 0
BBX 14 16 1 -3
BITMAP
0800
0808
0BF4
14A8
13F8
32A8
53F0
9200
11F0
103C
13C0
1150
1248
1544
18C0
1040
ENDCHAR
STARTCHAR 50C5
ENCODING 20677
SWIDTH 1020 0
DWIDTH 17 0
BBX 15 16 1 -3
BITMAP
0800
0920
0920
10FC
1720
30E0
5150
93F8
1258
13E0
1078
13C0
13F8
1040
17BE
1000
ENDCHAR
STARTCHAR 50C6
ENCODING 20678
SWIDTH 1020 0
DWIDTH 17 0
BBX 15 16 1 -3
BITMAP
1000
0840
1040
1438
25C0
20F0
6350
AD70
2570
25C0
23FC
2440
2C40
2380
207E
2000
ENDCHAR
STARTCHAR 50C7
ENCODING 20679
SWIDTH 1020 0
DWIDTH 17 0
BBX 15 15 1 -3
BITMAP
0808
0BB8
14A8
12A8
31B8
56C8
90C0
1130
1248
1DA6
1250
1190
1220
10C0
1700
ENDCHAR
STARTCHAR 50C8
ENCODING 20680
SWIDTH 1020 0
DWIDTH 17 0
BBX 14 16 1 -3
BITMAP
0800
0AF0
0B20
11E0
1230
33C0
54F8
9750
1558
16A0
13F0
1120
10C0
10C0
1338
1404
ENDCHAR
STARTCHAR 50C9
ENCODING 20681
SWIDTH 1020 0
DWIDTH 17 0
BBX 15 16 1 -3
BITMAP
0200
0100
0300
0480
0840
11E0
2E18
552E
9BE0
1520
1FC0
1840
0880
1560
2310
4400
ENDCHAR
STARTCHAR 50CA
ENCODING 20682
SWIDTH 1020 0
DWIDTH 17 0
BBX 15 16 1 -3
BITMAP
0800
0808
0BF4
14A8
13D8
32D0
53E8
9280
17FC
1110
13E8
1D26
1150
1108
1108
10F0
ENDCHAR
STARTCHAR 50CB
ENCODING 20683
SWIDTH 1020 0
DWIDTH 17 0
BBX 15 16 1 -3
BITMAP
0880
0880
0940
11A0
12D0
356E
5840
92F0
1310
13F0
12F0
1310
13F0
10A0
1318
1400
ENDCHAR
STARTCHAR 50CE
ENCODING 20686
SWIDTH 1020 0
DWIDTH 17 0
BBX 14 15 1 -2
BITMAP
0840
13B8
1550
23A8
64C4
627C
A1A0
2120
27F8
2120
21FC
26A0
2118
2204
2C00
ENDCHAR
STARTCHAR 50CF
ENCODING 20687
SWIDTH 1020 0
DWIDTH 17 0
BBX 15 16 1 -3
BITMAP
0100
0900
12E0
1340
14B0
3FD0
5490
97E0
1188
16F0
1340
14E0
1B50
1D4C
10C2
0080
ENDCHAR
STARTCHAR 50D1
ENCODING 20689
SWIDTH 1020 0
DWIDTH 17 0
BBX 15 15 1 -3
BITMAP
1000
0870
1380
109C
1760
3210
55E8
9926
15C0
13F8
1528
15E8
14E8
1430
1410
ENDCHAR
STARTCHAR 50D3
ENCODING 20691
SWIDTH 1020 0
DWIDTH 17 0
BBX 15 16 1 -3
BITMAP
0880
0840
0AF8
1350
11E8
1244
77BA
9238
13D0
11F0
12F0
1310
13F0
10A0
1318
1400
ENDCHAR
STARTCHAR 50D4
ENCODING 20692
SWIDTH 1020 0
DWIDTH 17 0
BBX 14 16 1 -3
BITMAP
0820
0A20
0940
13F8
1550
35F0
5750
9630
15D0
17E0
1420
1FFC
1120
1120
1060
1020
ENDCHAR
STARTCHAR 50D5
ENCODING 20693
SWIDTH 1020 0
DWIDTH 17 0
BBX 15 15 1 -2
BITMAP
0950
0D50
1350
1168
36B4
5140
91F0
1280
13F0
108C
1FF0
1120
1210
1408
1006
ENDCHAR
STARTCHAR 50D6
ENCODING 20694
SWIDTH 1020 0
DWIDTH 17 0
BBX 14 16 1 -3
BITMAP
0080
0880
1098
17E0
2070
23A0
63F0
A220
23F0
2148
2FB4
2210
23F0
2210
23E0
2200
ENDCHAR
STARTCHAR 50D7
ENCODING 20695
SWIDTH 1020 0
DWIDTH 17 0
BBX 14 16 1 -3
BITMAP
0800
0910
09A8
15E8
1770
3310
54EC
9474
1B88
1890
13F0
1110
1120
1260
1420
1800
ENDCHAR
STARTCHAR 50DA
ENCODING 20698
SWIDTH 1020 0
DWIDTH 17 0
BBX 15 16 1 -3
BITMAP
0880
0880
1080
177C
1528
3210
53F8
9626
9BE0
1270
13C0
1260
1258
1544
18C0
1000
ENDCHAR
STARTCHAR 50DB
ENCODING 20699
SWIDTH 1020 0
DWIDTH 17 0
BBX 15 16 1 -3
BITMAP
1000
1120
1520
2520
27C4
2D3C
6768
A590
2720
2520
2EF0
3530
24C8
28C8
3084
2102
ENDCHAR
STARTCHAR 50DD
ENCODING 20701
SWIDTH 1020 0
DWIDTH 17 0
BBX 15 16 1 -3
BITMAP
0800
0C18
13F0
1218
23F0
22E0
624C
A3F0
2444
25B8
2710
24DE
2730
2930
3110
2110
ENDCHAR
STARTCHAR 50E0
ENCODING 20704
SWIDTH 1020 0
DWIDTH 17 0
BBX 15 16 1 -3
BITMAP
0800
0830
09D0
1290
11A0
37DC
50A0
9190
168E
1AF0
1390
1270
1390
1290
1370
1000
ENDCHAR
STARTCHAR 50E3
ENCODING 20707
SWIDTH 1020 0
DWIDTH 17 0
BBX 15 16 1 -3
BITMAP
0800
0910
0920
11F8
1620
11FC
7730
92C8
1646
1AF0
1310
1270
1390
1210
13F0
1200
ENDCHAR
STARTCHAR 50E4
ENCODING 20708
SWIDTH 1020 0
DWIDTH 17 0
BBX 14 16 1 -3
BITMAP
0800
0CD8
0BF0
12D0
1368
1438
73C8
9270
1390
13E8
1280
11FC
1680
1080
1080
1000
ENDCHAR
STARTCHAR 50E5
ENCODING 20709
SWIDTH 1020 0
DWIDTH 17 0
BBX 14 16 1 -3
BITMAP
0880
0880
1090
13E0
20BC
2760
62A8
A770
21FC
2600
27F8
2140
2144
2244
243C
3800
ENDCHAR
STARTCHAR 50E6
ENCODING 20710
SWIDTH 1020 0
DWIDTH 17 0
BBX 15 16 1 -3
BITMAP
1000
0C20
1220
1030
2FA8
2920
6FF8
A930
2E60
2360
2B60
2BE0
32A4
26A4
2316
2208
ENDCHAR
STARTCHAR 50E7
ENCODING 20711
SWIDTH 1020 0
DWIDTH 17 0
BBX 14 16 1 -3
BITMAP
0020
0510
08A0
14A8
13DC
3358
5368
9348
13B4
1210
11F8
1110
11F0
1110
11F0
1100
ENDCHAR
STARTCHAR 50E8
ENCODING 20712
SWIDTH 1020 0
DWIDTH 17 0
BBX 14 16 1 -3
BITMAP
0880
0880
0BF8
12A0
1124
17F8
7350
92B0
12F0
1310
13F0
11F0
1340
11B0
1208
1400
ENDCHAR
STARTCHAR 50E9
ENCODING 20713
SWIDTH 1020 0
DWIDTH 17 0
BBX 14 16 1 -3
BITMAP
1000
0840
15BC
16A8
15B8
36A8
5338
9508
14E8
14A8
1568
15E8
1528
1578
1428
0008
ENDCHAR
STARTCHAR 50EA
ENCODING 20714
SWIDTH 1020 0
DWIDTH 17 0
BBX 13 16 1 -3
BITMAP
0800
0870
0BA0
10C0
1078
13D0
7140
96C0
14F8
13A8
1318
13E8
1328
13C8
1218
1008
ENDCHAR
STARTCHAR 50EC
ENCODING 20716
SWIDTH 1020 0
DWIDTH 17 0
BBX 14 16 1 -3
BITMAP
0800
0940
1240
1200
13F8
3640
5BF8
9240
13F8
1240
13FC
1200
1548
1524
1924
1000
ENDCHAR
STARTCHAR 50ED
ENCODING 20717
SWIDTH 1020 0
DWIDTH 17 0
BBX 14 16 1 -3
BITMAP
1000
0800
17F8
1760
2AA8
6774
6234
A5D4
2C88
23F0
2210
2250
23B0
2210
23F0
2200
ENDCHAR
STARTCHAR 50EE
ENCODING 20718
SWIDTH 1020 0
DWIDTH 17 0
BBX 15 16 1 -3
BITMAP
0100
0880
1080
1778
1120
30FC
5F10
93F8
12B0
13D0
13E0
1280
13F0
1080
1FFE
1000
ENDCHAR
STARTCHAR 50EF
ENCODING 20719
SWIDTH 1020 0
DWIDTH 17 0
BBX 14 16 1 -3
BITMAP
0880
0850
0A50
1160
13D8
10E0
7150
926C
1E90
15F8
1750
1B5C
1230
1210
1410
1000
ENDCHAR
STARTCHAR 50F0
ENCODING 20720
SWIDTH 1020 0
DWIDTH 17 0
BBX 13 16 2 -3
BITMAP
2080
1080
FFF0
1690
7FF0
56E0
5AE0
39A0
5A90
9688
1200
0600
0900
10C0
2030
C008
ENDCHAR
STARTCHAR 50F1
ENCODING 20721
SWIDTH 1020 0
DWIDTH 17 0
BBX 14 15 1 -2
BITMAP
0C60
1380
12F8
2310
6278
A3C0
A520
25F8
2728
25F0
2538
29E0
293C
31C0
2100
ENDCHAR
STARTCHAR 50F3
ENCODING 20723
SWIDTH 1020 0
DWIDTH 17 0
BBX 15 16 1 -3
BITMAP
0800
080C
0BF0
1538
12C8
32D0
53E8
9250
1160
116C
16D0
10E0
1150
124C
1C42
1040
ENDCHAR
STARTCHAR 50F5
ENCODING 20725
SWIDTH 1020 0
DWIDTH 17 0
BBX 15 15 1 -2
BITMAP
0808
17F0
1438
13D0
33F0
5278
9384
15F8
1238
13D0
13F0
1278
1380
17FE
1000
ENDCHAR
STARTCHAR 50F6
ENCODING 20726
SWIDTH 1020 0
DWIDTH 17 0
BBX 15 16 1 -3
BITMAP
1000
0C08
17F8
1550
2578
6740
6558
A768
2550
2770
2550
2774
2554
2144
2086
2078
ENDCHAR
STARTCHAR 50F8
ENCODING 20728
SWIDTH 1020 0
DWIDTH 17 0
BBX 14 16 1 -3
BITMAP
1000
0A20
1220
13F8
2730
26E8
6AA4
A220
20F0
2100
20FC
2740
2290
2488
2488
2080
ENDCHAR
STARTCHAR 50F9
ENCODING 20729
SWIDTH 1020 0
DWIDTH 17 0
BBX 14 16 1 -3
BITMAP
1000
081C
17E0
257C
27A8
65F4
6610
A1F8
2230
23D0
21F0
2210
23F0
2110
2208
2408
ENDCHAR
STARTCHAR 50FB
ENCODING 20731
SWIDTH 1020 0
DWIDTH 17 0
BBX 14 16 1 -3
BITMAP
0040
1020
1810
2700
257C
6548
A650
A834
24E8
2720
2D3C
3560
17A0
2420
2020
2020
ENDCHAR
STARTCHAR 50FD
ENCODING 20733
SWIDTH 1020 0
DWIDTH 17 0
BBX 14 16 1 -3
BITMAP
0800
08A0
1338
1628
2268
27D0
6330
A6B0
2A48
2A84
2240
252C
2514
2488
2468
0014
ENDCHAR
STARTCHAR 50FE
ENCODING 20734
SWIDTH 1020 0
DWIDTH 17 0
BBX 15 16 1 -3
BITMAP
1000
0830
13D0
12A0
265C
27A8
6750
AAA8
2370
2100
21F0
2320
24C0
20A0
231E
2400
ENDCHAR
STARTCHAR 50FF
ENCODING 20735
SWIDTH 1020 0
DWIDTH 17 0
BBX 15 16 1 -3
BITMAP
0080
0840
0C5C
17A8
2520
23D0
6160
A3D0
213C
27E0
2250
248C
29F2
2080
27FC
2000
ENDCHAR
STARTCHAR 5100
ENCODING 20736
SWIDTH 1020 0
DWIDTH 17 0
BBX 14 16 1 -3
BITMAP
0020
0A20
1140
17B8
2080
63F0
60F8
A7D0
2248
263C
2FC8
21B0
2E24
22D4
260C
2004
ENDCHAR
STARTCHAR 5102
ENCODING 20738
SWIDTH 1020 0
DWIDTH 17 0
BBX 15 16 1 -3
BITMAP
1140
0940
1530
17D0
25F0
6550
62A8
A478
2780
25F0
25FC
2650
2620
2AD0
290C
2202
ENDCHAR
STARTCHAR 5103
ENCODING 20739
SWIDTH 1020 0
DWIDTH 17 0
BBX 15 16 1 -3
BITMAP
0800
08C0
104C
17B0
1478
33C8
53F0
92B0
13E8
1210
11F0
11F0
1210
13E0
10FE
1700
ENDCHAR
STARTCHAR 5104
ENCODING 20740
SWIDTH 1020 0
DWIDTH 17 0
BBX 14 15 1 -3
BITMAP
0100
0880
08B0
1760
1140
33FC
5E10
93F0
12E0
1320
13D0
1648
1564
1490
1878
ENDCHAR
STARTCHAR 5105
ENCODING 20741
SWIDTH 1020 0
DWIDTH 17 0
BBX 14 16 1 -3
BITMAP
1080
0890
1290
11A0
147C
3788
59E0
9220
91C0
1408
13F0
1290
13F0
1290
13F0
0400
ENDCHAR
STARTCHAR 5106
ENCODING 20742
SWIDTH 1020 0
DWIDTH 17 0
BBX 15 15 1 -3
BITMAP
1920
1520
25E0
2E24
2A58
E4C8
ABD0
31B0
2F10
2D20
2D10
2B70
2548
228E
2000
ENDCHAR
STARTCHAR 5107
ENCODING 20743
SWIDTH 1020 0
DWIDTH 17 0
BBX 15 16 1 -3
BITMAP
0800
0C18
0BF0
1350
12E8
3304
5DF8
9270
1390
1270
13C8
1130
1310
1DC8
110E
1200
ENDCHAR
STARTCHAR 5108
ENCODING 20744
SWIDTH 1020 0
DWIDTH 17 0
BBX 15 16 1 -3
BITMAP
0880
0880
1140
1120
2250
658C
BBF2
A6F0
2490
2760
2260
23A0
23E0
2220
23E0
2200
ENDCHAR
STARTCHAR 5109
ENCODING 20745
SWIDTH 1020 0
DWIDTH 17 0
BBX 15 16 1 -3
BITMAP
0800
0880
0880
1140
1220
3270
558E
9D50
17F0
1550
12E8
1120
1120
16D8
1884
1100
ENDCHAR
STARTCHAR 510A
ENCODING 20746
SWIDTH 1020 0
DWIDTH 17 0
BBX 15 16 1 -3
BITMAP
1020
0A20
1220
13FC
2630
67E8
6AA0
B220
2018
27F0
22A0
2270
2280
25C0
283E
2000
ENDCHAR
STARTCHAR 510B
ENCODING 20747
SWIDTH 1020 0
DWIDTH 17 0
BBX 14 16 1 -3
BITMAP
0900
0880
09E0
1240
223C
2FE0
62D8
A324
23D8
22F8
2210
24E8
2578
2590
28F8
2100
ENDCHAR
STARTCHAR 510C
ENCODING 20748
SWIDTH 1020 0
DWIDTH 17 0
BBX 15 15 1 -2
BITMAP
1220
1220
2B20
2D40
673C
A950
A6D0
2250
3FB0
2520
2730
2550
2948
328C
2002
ENDCHAR
STARTCHAR 5110
ENCODING 20752
SWIDTH 1020 0
DWIDTH 17 0
BBX 14 15 1 -2
BITMAP
08C0
144C
17B8
25F0
6250
6160
A688
2378
2EF0
2330
23D0
21F0
20B0
2308
2C08
ENDCHAR
STARTCHAR 5111
ENCODING 20753
SWIDTH 1020 0
DWIDTH 17 0
BBX 14 16 1 -3
BITMAP
1000
0C70
1390
13D0
2210
23E0
6220
A550
2560
2250
2568
2290
2548
2524
28A4
2000
ENDCHAR
STARTCHAR 5112
ENCODING 20754
SWIDTH 1020 0
DWIDTH 17 0
BBX 14 16 1 -3
BITMAP
1000
0810
13E8
149C
27E8
6BB0
60B0
A380
27FC
2880
27F8
2548
2548
2548
2558
2000
ENDCHAR
STARTCHAR 5113
ENCODING 20755
SWIDTH 1020 0
DWIDTH 17 0
BBX 14 16 1 -3
BITMAP
0800
0880
11F8
1680
2370
23E0
62F0
A73C
25C8
2BF0
2130
22F0
2090
23E0
20BC
2740
ENDCHAR
STARTCHAR 5114
ENCODING 20756
SWIDTH 1020 0
DWIDTH 17 0
BBX 15 16 1 -3
BITMAP
0880
0880
0878
1780
1374
37F8
5070
9180
1374
1FFA
140C
1770
1530
1610
1030
1010
ENDCHAR
STARTCHAR 5115
ENCODING 20757
SWIDTH 1020 0
DWIDTH 17 0
BBX 15 16 1 -3
BITMAP
1100
0880
1088
2770
2178
6FB0
A6A8
AEB4
30A2
2210
23F0
2210
23F0
2210
2410
2800
ENDCHAR
STARTCHAR 5117
ENCODING 20759
SWIDTH 1020 0
DWIDTH 17 0
BBX 15 15 1 -3
BITMAP
1508
1570
2760
24A0
2328
64FC
A930
2E60
2258
2DA0
2660
25A0
2890
210E
2200
ENDCHAR
STARTCHAR 5118
ENCODING 20760
SWIDTH 1020 0
DWIDTH 17 0
BBX 14 16 1 -3
BITMAP
0880
0880
0890
13F0
10B8
37E4
53D0
9088
1770
1548
1958
1BF0
1550
1550
1FAC
1000
ENDCHAR
STARTCHAR 511A
ENCODING 20762
SWIDTH 1020 0
DWIDTH 17 0
BBX 14 16 1 -3
BITMAP
1220
0920
11FC
1740
2438
27D0
6550
A6A4
29FC
2F08
29E0
2240
2D40
2080
2300
2400
ENDCHAR
STARTCHAR 511C
ENCODING 20764
SWIDTH 1020 0
DWIDTH 17 0
BBX 14 16 1 -3
BITMAP
0880
0840
0C78
1790
1750
32A8
5250
93F0
1350
133C
1CC0
13F8
1040
1140
10C0
1000
ENDCHAR
STARTCHAR 511F
ENCODING 20767
SWIDTH 1020 0
DWIDTH 17 0
BBX 14 16 1 -3
BITMAP
0840
0850
1150
157C
2688
25F0
6170
A190
21F8
21F0
2230
23D0
23F0
22B0
2108
2608
ENDCHAR
STARTCHAR 5120
ENCODING 20768
SWIDTH 1020 0
DWIDTH 17 0
BBX 15 15 1 -3
BITMAP
0AD0
14A0
14A0
1290
3470
57D0
95D0
13A0
1490
15B0
16D0
15B4
15B4
16CA
1004
ENDCHAR
STARTCHAR 5121
ENCODING 20769
SWIDTH 1020 0
DWIDTH 17 0
BBX 14 15 1 -3
BITMAP
0A20
13F0
12A0
23E0
22A0
63C0
AA84
29F8
2F68
2B78
2F68
2B68
2558
2840
2000
ENDCHAR
STARTCHAR 5122
ENCODING 20770
SWIDTH 1020 0
DWIDTH 17 0
BBX 14 15 1 -3
BITMAP
0880
10F0
14B8
27D0
25E8
6488
A670
27F0
26F0
2670
2B90
2B4C
2C90
3450
2028
ENDCHAR
STARTCHAR 5124
ENCODING 20772
SWIDTH 1020 0
DWIDTH 17 0
BBX 15 15 1 -2
BITMAP
0AF0
0B20
11E0
1270
33C0
50F0
9340
11F8
17A0
1290
16AE
1BE0
1290
1188
1000
ENDCHAR
STARTCHAR 5125
ENCODING 20773
SWIDTH 1020 0
DWIDTH 17 0
BBX 13 15 1 -3
BITMAP
08C0
11F8
1680
2378
23F8
6538
A6C0
21F0
2230
23D0
23F0
21F0
2130
2208
2400
ENDCHAR
STARTCHAR 5126
ENCODING 20774
SWIDTH 1020 0
DWIDTH 17 0
BBX 14 15 1 -2
BITMAP
1080
1CB8
1760
2538
67D0
6548
A6F0
2568
25F8
26C4
293C
2A50
2AA8
32A4
2000
ENDCHAR
STARTCHAR 5129
ENCODING 20777
SWIDTH 1020 0
DWIDTH 17 0
BBX 14 14 1 -1
BITMAP
1888
27F8
2988
29F0
2F88
E9F0
AF44
297C
2BBC
2E58
26A8
2928
2868
3090
ENDCHAR
STARTCHAR 512A
ENCODING 20778
SWIDTH 1020 0
DWIDTH 17 0
BBX 14 16 1 -3
BITMAP
1000
0870
1780
13E0
22E0
6360
6BAC
ADD8
2ED0
25B8
2140
22E0
2540
28C0
2338
2404
ENDCHAR
STARTCHAR 512D
ENCODING 20781
SWIDTH 1020 0
DWIDTH 17 0
BBX 14 16 1 -3
BITMAP
0400
0C88
1278
1DC8
2958
2668
6FC8
A278
27C8
2C78
2530
2CE0
3464
2464
2494
0108
ENDCHAR
STARTCHAR 512E
ENCODING 20782
SWIDTH 1020 0
DWIDTH 17 0
BBX 15 15 1 -2
BITMAP
1400
3BF8
2498
2530
6518
65F8
A578
2756
2550
2440
2548
2970
2940
2BFC
2000
ENDCHAR
STARTCHAR 5130
ENCODING 20784
SWIDTH 1020 0
DWIDTH 17 0
BBX 14 16 1 -3
BITMAP
0800
0920
113C
17C0
14C0
3280
5130
97E0
1218
13F0
123C
15C4
1B58
12C8
1418
1010
ENDCHAR
STARTCHAR 5131
ENCODING 20785
SWIDTH 1020 0
DWIDTH 17 0
BBX 14 15 1 -2
BITMAP
0C40
1240
1F78
2950
6630
6F90
A968
2F40
2970
2F78
2740
297C
2944
2B44
2038
ENDCHAR
STARTCHAR 5132
ENCODING 20786
SWIDTH 1020 0
DWIDTH 17 0
BBX 14 16 1 -3
BITMAP
1040
1420
1220
2228
27F8
6830
6E2C
A1F0
2E50
2AB8
2D90
2A70
2A90
2C90
20F0
2000
ENDCHAR
STARTCHAR 5133
ENCODING 20787
SWIDTH 1020 0
DWIDTH 17 0
BBX 14 16 1 -3
BITMAP
0200
0900
13C0
14B0
1B60
33D0
55B8
97C8
1270
13C0
17F0
1CA0
17F4
1194
1284
0C78
ENDCHAR
STARTCHAR 5134
ENCODING 20788
SWIDTH 1020 0
DWIDTH 17 0
BBX 14 14 1 -2
BITMAP
0880
08F8
1750
13F0
12E0
7340
53F8
90F0
1340
17BC
11A0
1740
1AB0
110C
ENDCHAR
STARTCHAR 5135
ENCODING 20789
SWIDTH 1020 0
DWIDTH 17 0
BBX 14 15 1 -2
BITMAP
0880
31F8
12A0
2240
28B0
6B0C
A9F0
2BB0
2A90
2BE0
2970
21FC
2748
22A4
2400
ENDCHAR
STARTCHAR 5137
ENCODING 20791
SWIDTH 1020 0
DWIDTH 17 0
BBX 14 15 1 -2
BITMAP
0800
17F8
15B8
2768
26F0
6480
A778
24F0
2750
27E0
2648
2BF8
2AC4
333C
2000
ENDCHAR
STARTCHAR 5138
ENCODING 20792
SWIDTH 1020 0
DWIDTH 17 0
BBX 14 14 1 -1
BITMAP
0808
17F8
1550
2578
26C0
6250
A568
27A0
26B8
29A0
27B8
2DA0
2BDC
2880
ENDCHAR
STARTCHAR 5139
ENCODING 20793
SWIDTH 1020 0
DWIDTH 17 0
BBX 14 16 1 -3
BITMAP
0020
1260
1E68
17B0
22FC
2754
65D4
A698
2B70
21F0
2250
2390
23F0
2120
2218
0408
ENDCHAR
STARTCHAR 513A
ENCODING 20794
SWIDTH 1020 0
DWIDTH 17 0
BBX 15 14 1 -3
BITMAP
1120
1520
27D0
2D5C
6678
ABD0
AF7C
2ED0
23DC
2E70
3DD0
277E
24C0
2840
ENDCHAR
STARTCHAR 513B
ENCODING 20795
SWIDTH 1020 0
DWIDTH 17 0
BBX 13 16 1 -3
BITMAP
0800
08A0
0AA0
16D8
1570
3BE0
51A0
93F0
15F0
13A0
11F0
1298
1770
1548
14A8
1000
ENDCHAR
STARTCHAR 513C
ENCODING 20796
SWIDTH 1020 0
DWIDTH 17 0
BBX 14 15 1 -2
BITMAP
0AD8
13F0
12B8
1B08
37F4
54A0
971C
16E8
17E8
1AF0
1B90
1B90
1CA8
10C4
0080
ENDCHAR
STARTCHAR 513D
ENCODING 20797
SWIDTH 1020 0
DWIDTH 17 0
BBX 14 16 1 -3
BITMAP
0020
09D0
12E0
12A0
2354
27F8
6B38
AF7C
ACA0
2140
22A0
21D8
2360
2258
2588
2080
ENDCHAR
STARTCHAR 513F
ENCODING 20799
SWIDTH 1020 0
DWIDTH 17 0
BBX 14 14 1 -2
BITMAP
0080
0480
0480
0880
0880
0880
0880
0880
0880
0880
1084
1084
2084
C078
ENDCHAR
STARTCHAR 5140
ENCODING 20800
SWIDTH 1020 0
DWIDTH 17 0
BBX 13 13 2 -2
BITMAP
0070
7F80
0900
0900
0900
0900
0900
1100
1110
1110
2108
4108
80F8
ENDCHAR
STARTCHAR 5141
ENCODING 20801
SWIDTH 1020 0
DWIDTH 17 0
BBX 14 14 2 -1
BITMAP
0400
0400
0880
0840
1060
3FA0
0900
0900
0900
1100
1108
2108
2108
C0FC
ENDCHAR
STARTCHAR 5143
ENCODING 20803
SWIDTH 1020 0
DWIDTH 17 0
BBX 14 13 1 -2
BITMAP
0FE0
1000
0000
007C
7F80
0480
0480
0480
0880
0884
1084
2084
C07C
ENDCHAR
STARTCHAR 5144
ENCODING 20804
SWIDTH 1020 0
DWIDTH 17 0
BBX 13 14 2 -2
BITMAP
2040
1FC0
1040
1040
1040
11C0
1F00
0500
0900
0900
0908
1108
2108
C0F8
ENDCHAR
STARTCHAR 5145
ENCODING 20805
SWIDTH 1020 0
DWIDTH 17 0
BBX 13 15 2 -2
BITMAP
0400
0200
0210
FDE8
0600
0880
0860
1FF0
2520
0500
0900
0908
1108
2108
C0F8
ENDCHAR
STARTCHAR 5146
ENCODING 20806
SWIDTH 1020 0
DWIDTH 17 0
BBX 14 16 2 -3
BITMAP
0100
0500
0500
0510
4520
3540
1580
0980
1940
6920
8908
0908
1108
2108
40FC
8000
ENDCHAR
STARTCHAR 5147
ENCODING 20807
SWIDTH 1020 0
DWIDTH 17 0
BBX 14 14 1 -1
BITMAP
0080
1910
2710
2110
26A0
28A0
2060
3FA0
0500
0900
0904
1104
1104
E0FC
ENDCHAR
STARTCHAR 5148
ENCODING 20808
SWIDTH 1020 0
DWIDTH 17 0
BBX 13 16 2 -3
BITMAP
0200
1200
0A00
1200
1260
2F80
4200
4218
FDE0
0500
0900
0910
1110
2108
4118
80E0
ENDCHAR
STARTCHAR 5149
ENCODING 20809
SWIDTH 1020 0
DWIDTH 17 0
BBX 13 15 2 -2
BITMAP
0200
0200
0220
3240
0A40
0A80
0210
FDE8
0500
0900
0900
1108
1108
2108
C0F8
ENDCHAR
STARTCHAR 514B
ENCODING 20811
SWIDTH 1020 0
DWIDTH 17 0
BBX 13 15 2 -2
BITMAP
0200
0200
0210
7FE0
0400
13C0
1C40
1040
11C0
1F00
0500
0908
0908
1108
E0F8
ENDCHAR
STARTCHAR 514C
ENCODING 20812
SWIDTH 1020 0
DWIDTH 17 0
BBX 14 16 2 -3
BITMAP
0100
1080
0900
0900
23C0
3C40
2040
2040
1F80
2500
0A00
0A08
1208
2208
410C
80F0
ENDCHAR
STARTCHAR 514D
ENCODING 20813
SWIDTH 1020 0
DWIDTH 17 0
BBX 13 16 2 -3
BITMAP
0400
0400
0880
1F00
2240
67E0
BC40
2440
2440
3F80
0A00
0A08
1208
2208
4208
81F0
ENDCHAR
STARTCHAR 5152
ENCODING 20818
SWIDTH 1020 0
DWIDTH 17 0
BBX 14 14 2 -1
BITMAP
0C20
31E0
2020
20C0
3D40
2040
20E0
3F00
0900
0900
0908
1108
2104
C0F8
ENDCHAR
STARTCHAR 5154
ENCODING 20820
SWIDTH 1020 0
DWIDTH 17 0
BBX 15 15 1 -2
BITMAP
0200
0200
0440
0F80
1120
37F0
D920
1220
13F0
1F00
0520
0514
0904
1102
E0FE
ENDCHAR
STARTCHAR 5155
ENCODING 20821
SWIDTH 1020 0
DWIDTH 17 0
BBX 13 15 2 -3
BITMAP
4220
3BE0
4A20
4940
4640
4040
41E0
7F00
0A00
1200
1208
1208
2208
41F8
8000
ENDCHAR
STARTCHAR 5157
ENCODING 20823
SWIDTH 1020 0
DWIDTH 17 0
BBX 13 16 2 -3
BITMAP
0800
0400
0278
7D80
0980
1060
31D0
DE80
1080
13C0
1D00
0A08
0A08
1208
2118
C0E0
ENDCHAR
STARTCHAR 5159
ENCODING 20825
SWIDTH 1020 0
DWIDTH 17 0
BBX 14 15 1 -2
BITMAP
0800
0820
0820
7F20
0820
5220
2FFC
2220
3E20
3420
1820
2824
2824
4804
87FC
ENDCHAR
STARTCHAR 515A
ENCODING 20826
SWIDTH 1020 0
DWIDTH 17 0
BBX 13 15 2 -2
BITMAP
0200
0240
1240
1280
42F8
7D10
93E0
9C80
1080
1F40
0500
0900
0908
1108
E0F8
ENDCHAR
STARTCHAR 515B
ENCODING 20827
SWIDTH 1020 0
DWIDTH 17 0
BBX 15 15 1 -2
BITMAP
1000
0808
0814
3FE0
5020
5220
6DFE
4420
3E20
5420
1820
2824
2824
2824
C7FE
ENDCHAR
STARTCHAR 515C
ENCODING 20828
SWIDTH 1020 0
DWIDTH 17 0
BBX 13 15 2 -2
BITMAP
0400
0A00
5410
6B60
4D20
4920
4F20
4920
56F0
6900
0900
0A08
1208
1208
E1F8
ENDCHAR
STARTCHAR 515D
ENCODING 20829
SWIDTH 1020 0
DWIDTH 17 0
BBX 15 16 1 -3
BITMAP
1000
0820
10A0
7ED0
1090
5488
2D06
24F0
3C50
5450
1890
18B0
2912
2802
47FC
8000
ENDCHAR
STARTCHAR 515E
ENCODING 20830
SWIDTH 1020 0
DWIDTH 17 0
BBX 14 15 2 -2
BITMAP
2000
2000
2020
7CC0
A380
A880
DBE0
8880
B8F0
F380
5090
5090
5078
9008
8FFC
ENDCHAR
STARTCHAR 515F
ENCODING 20831
SWIDTH 1020 0
DWIDTH 17 0
BBX 15 15 1 -2
BITMAP
1040
0820
28A0
28A0
2920
5FF8
4A20
8A20
FDFC
18A0
28E0
2AA4
2CA4
4524
CA3E
ENDCHAR
STARTCHAR 5161
ENCODING 20833
SWIDTH 1020 0
DWIDTH 17 0
BBX 14 14 1 -1
BITMAP
0800
0800
1FF8
6840
2B48
34B0
2490
3EF0
1490
1890
18F4
2894
2404
C3F8
ENDCHAR
STARTCHAR 5162
ENCODING 20834
SWIDTH 1020 0
DWIDTH 17 0
BBX 15 16 1 -3
BITMAP
1040
0840
0840
084C
77F0
1150
3DB0
2510
2510
3BE0
18A0
1AA4
2D24
4924
8226
0418
ENDCHAR
STARTCHAR 5163
ENCODING 20835
SWIDTH 1020 0
DWIDTH 17 0
BBX 15 15 1 -2
BITMAP
1000
0900
08FC
7F00
1178
55A8
2DB8
2558
3FA0
3528
1A70
2A24
2CDC
4802
C7FC
ENDCHAR
STARTCHAR 5165
ENCODING 20837
SWIDTH 1020 0
DWIDTH 17 0
BBX 14 14 2 -2
BITMAP
0800
0800
0400
0400
0200
0600
0500
0900
0880
1080
1040
2020
4030
803C
ENDCHAR
STARTCHAR 5167
ENCODING 20839
SWIDTH 1020 0
DWIDTH 17 0
BBX 12 16 3 -3
BITMAP
0800
0800
0800
88F0
F720
8420
8C20
8A20
9220
A120
A0A0
8040
8040
8140
80C0
0080
ENDCHAR
STARTCHAR 5168
ENCODING 20840
SWIDTH 1020 0
DWIDTH 17 0
BBX 14 15 2 -2
BITMAP
0400
0400
0200
0500
0880
1040
2020
5FF8
A204
0200
0780
1A40
0200
0200
FDF0
ENDCHAR
STARTCHAR 5169
ENCODING 20841
SWIDTH 1020 0
DWIDTH 17 0
BBX 13 14 2 -2
BITMAP
0010
FFE8
0200
4210
3FF0
4210
5310
5290
5B50
6650
4210
4220
4260
4220
ENDCHAR
STARTCHAR 516B
ENCODING 20843
SWIDTH 1020 0
DWIDTH 17 0
BBX 15 13 1 -2
BITMAP
0300
0100
0880
0880
0880
0840
1040
1020
2020
2020
4010
8018
800E
ENDCHAR
STARTCHAR 516C
ENCODING 20844
SWIDTH 1020 0
DWIDTH 17 0
BBX 15 14 1 -2
BITMAP
0100
0880
0840
0840
1020
1220
2110
4208
840E
8480
0840
1020
13D0
2C10
ENDCHAR
STARTCHAR 516D
ENCODING 20845
SWIDTH 1020 0
DWIDTH 17 0
BBX 13 14 2 -2
BITMAP
0800
0400
0200
0000
0010
FFE8
0000
0880
0840
1020
2020
4010
8010
8000
ENDCHAR
STARTCHAR 516E
ENCODING 20846
SWIDTH 1020 0
DWIDTH 17 0
BBX 15 15 1 -3
BITMAP
0100
0500
0480
0880
1040
1020
3FD0
441E
8800
07C0
0080
0080
0080
0480
0300
ENDCHAR
STARTCHAR 5171
ENCODING 20849
SWIDTH 1020 0
DWIDTH 17 0
BBX 13 15 2 -2
BITMAP
0100
1080
1880
1080
1080
0FF0
7900
0900
0900
0FF8
F000
0880
1060
2030
C010
ENDCHAR
STARTCHAR 5175
ENCODING 20853
SWIDTH 1020 0
DWIDTH 17 0
BBX 14 14 1 -2
BITMAP
1060
1380
1C00
0800
0FF8
0880
0880
0880
08FC
7700
0440
0830
3018
C008
ENDCHAR
STARTCHAR 5176
ENCODING 20854
SWIDTH 1020 0
DWIDTH 17 0
BBX 14 16 1 -3
BITMAP
0080
0840
0840
0850
3FE8
0840
0740
0880
0780
0880
0880
FF7C
0880
0C40
1020
2020
ENDCHAR
STARTCHAR 5177
ENCODING 20855
SWIDTH 1020 0
DWIDTH 17 0
BBX 13 15 2 -3
BITMAP
2080
1FC0
1080
1780
1880
1780
1880
0F80
1080
11F8
FE00
0980
1040
6020
8000
ENDCHAR
STARTCHAR 5178
ENCODING 20856
SWIDTH 1020 0
DWIDTH 17 0
BBX 14 16 1 -3
BITMAP
0080
04C0
0480
2490
1FF0
1490
1490
1FF0
1490
14A4
FF58
0400
0460
0810
3008
4008
ENDCHAR
STARTCHAR 517C
ENCODING 20860
SWIDTH 1020 0
DWIDTH 17 0
BBX 15 16 1 -3
BITMAP
0040
0840
0480
0FF8
34A0
07E0
1CA8
3FF4
44A0
1FC0
04C0
0CA0
1490
648E
8480
0480
ENDCHAR
STARTCHAR 5180
ENCODING 20864
SWIDTH 1020 0
DWIDTH 17 0
BBX 13 16 2 -3
BITMAP
0200
0920
1A40
6B90
19B0
E840
1FC0
2FC0
23C0
3D00
3FE0
0910
FEE8
08C0
1020
E000
ENDCHAR
STARTCHAR 5182
ENCODING 20866
SWIDTH 1020 0
DWIDTH 17 0
BBX 11 15 3 -3
BITMAP
8000
87E0
F840
8040
8040
8040
8040
8040
8040
8040
8040
8040
8140
80C0
8000
ENDCHAR
STARTCHAR 5187
ENCODING 20871
SWIDTH 1020 0
DWIDTH 17 0
BBX 13 16 2 -3
BITMAP
0400
0600
0410
0FE8
F800
0800
1BC0
1C40
2840
4840
8840
8840
0840
0940
08C0
0880
ENDCHAR
STARTCHAR 5188
ENCODING 20872
SWIDTH 1020 0
DWIDTH 17 0
BBX 11 15 3 -3
BITMAP
8000
87E0
F820
8120
9220
8A20
8A20
8420
8A20
8920
9120
A020
80A0
8060
8000
ENDCHAR
STARTCHAR 5189
ENCODING 20873
SWIDTH 1020 0
DWIDTH 17 0
BBX 15 16 1 -3
BITMAP
0200
0100
0100
1110
13F0
1D10
1110
17D0
1110
1114
FEFA
1010
1010
1050
1030
1000
ENDCHAR
STARTCHAR 518A
ENCODING 20874
SWIDTH 1020 0
DWIDTH 17 0
BBX 15 15 1 -3
BITMAP
2010
13F0
1E90
1490
1490
1490
17FE
FC90
1490
1490
1490
1490
14D0
1030
0010
ENDCHAR
STARTCHAR 518D
ENCODING 20877
SWIDTH 1020 0
DWIDTH 17 0
BBX 15 14 1 -3
BITMAP
0078
7F80
1100
11F0
1F20
1120
1FE0
1120
111C
FEE2
1020
1020
1060
1020
ENDCHAR
STARTCHAR 518F
ENCODING 20879
SWIDTH 1020 0
DWIDTH 17 0
BBX 11 14 3 -2
BITMAP
8040
BFE0
C040
9440
9B40
90C0
A0C0
9E40
9240
9240
9C40
9040
8140
80C0
ENDCHAR
STARTCHAR 5191
ENCODING 20881
SWIDTH 1020 0
DWIDTH 17 0
BBX 9 16 4 -3
BITMAP
0800
0800
8B80
FC80
8F80
F880
8F80
F000
5F00
6100
7F00
4100
7F00
4500
4300
4100
ENDCHAR
STARTCHAR 5192
ENCODING 20882
SWIDTH 1020 0
DWIDTH 17 0
BBX 9 15 4 -3
BITMAP
8080
FF80
8E80
B080
9E80
A080
4100
7F00
4100
7D00
4500
7900
4100
7F00
4000
ENDCHAR
STARTCHAR 5193
ENCODING 20883
SWIDTH 1020 0
DWIDTH 17 0
BBX 13 16 2 -3
BITMAP
0080
0880
08B0
3FC0
09E0
1E80
0FF8
7220
1FE0
1220
1FA0
1278
FDA0
1120
10E0
0040
ENDCHAR
STARTCHAR 5194
ENCODING 20884
SWIDTH 1020 0
DWIDTH 17 0
BBX 12 15 3 -2
BITMAP
4000
5F80
2080
3E80
2280
3D00
00C0
9300
F100
91F0
9700
E100
8100
0300
0100
ENDCHAR
STARTCHAR 5195
ENCODING 20885
SWIDTH 1020 0
DWIDTH 17 0
BBX 13 14 2 -2
BITMAP
2060
3FC0
2F40
2040
2FC0
0F80
1600
67C0
BA40
23E0
3E10
0A08
1208
E3F8
ENDCHAR
STARTCHAR 5196
ENCODING 20886
SWIDTH 1020 0
DWIDTH 17 0
BBX 12 4 2 5
BITMAP
4030
7FD0
4020
8000
ENDCHAR
STARTCHAR 5197
ENCODING 20887
SWIDTH 1020 0
DWIDTH 17 0
BBX 14 15 2 -3
BITMAP
4000
40F0
7F20
5040
1100
1F00
1100
1100
1100
1108
1108
2108
2108
40FC
8000
ENDCHAR
STARTCHAR 5198
ENCODING 20888
SWIDTH 1020 0
DWIDTH 17 0
BBX 14 16 1 -3
BITMAP
0200
0100
0200
0210
23F8
3E10
2220
4300
0500
0500
0500
0908
0908
1104
609C
8060
ENDCHAR
STARTCHAR 519E
ENCODING 20894
SWIDTH 1020 0
DWIDTH 17 0
BBX 13 14 2 -3
BITMAP
4010
3FF0
4420
4240
0240
1280
0B00
02F0
7F00
0F00
1280
2240
4230
8208
ENDCHAR
STARTCHAR 51A0
ENCODING 20896
SWIDTH 1020 0
DWIDTH 17 0
BBX 14 14 1 -2
BITMAP
2008
2FFC
3050
4020
1E20
00F8
0720
7DA0
14A0
1420
24A4
2464
4404
83F8
ENDCHAR
STARTCHAR 51A2
ENCODING 20898
SWIDTH 1020 0
DWIDTH 17 0
BBX 14 14 2 -2
BITMAP
0010
47F0
7820
4040
3F80
0420
1A40
6380
1D00
3B80
C540
1930
660C
8200
ENDCHAR
STARTCHAR 51A4
ENCODING 20900
SWIDTH 1020 0
DWIDTH 17 0
BBX 13 14 2 -2
BITMAP
0010
43E0
7C20
4980
1700
21C0
7E40
2440
2780
3E00
0A48
0A48
1208
E1F8
ENDCHAR
STARTCHAR 51A5
ENCODING 20901
SWIDTH 1020 0
DWIDTH 17 0
BBX 13 15 2 -3
BITMAP
4010
3FF8
60A0
5FC0
1080
1F80
1080
1F00
1200
02F8
FD00
0880
1040
2020
C000
ENDCHAR
STARTCHAR 51AA
ENCODING 20906
SWIDTH 1020 0
DWIDTH 17 0
BBX 15 15 1 -3
BITMAP
2078
3F90
25F0
1EA0
0F60
0BC0
0CE0
0F08
7FF4
0920
3FD8
C946
09C0
0100
0100
ENDCHAR
STARTCHAR 51AB
ENCODING 20907
SWIDTH 1020 0
DWIDTH 17 0
BBX 7 11 5 0
BITMAP
80
60
10
10
00
00
06
08
10
20
C0
ENDCHAR
STARTCHAR 51AC
ENCODING 20908
SWIDTH 1020 0
DWIDTH 17 0
BBX 15 16 1 -3
BITMAP
0200
0200
0420
07E0
0840
1280
2100
0280
0C60
1218
E186
0080
0400
0300
0080
0080
ENDCHAR
STARTCHAR 51B0
ENCODING 20912
SWIDTH 1020 0
DWIDTH 17 0
BBX 15 16 1 -3
BITMAP
0080
0080
0080
4080
3088
0190
0F60
02C0
12A0
22A0
2490
2488
E88E
5280
0180
0080
ENDCHAR
STARTCHAR 51B1
ENCODING 20913
SWIDTH 1020 0
DWIDTH 17 0
BBX 14 13 2 -2
BITMAP
07F0
CA00
2200
0260
15C0
2440
2440
2440
C7C0
4040
0080
008C
1F70
ENDCHAR
STARTCHAR 51B6
ENCODING 20918
SWIDTH 1020 0
DWIDTH 17 0
BBX 14 15 1 -3
BITMAP
0040
0040
2080
1090
0D08
0904
0BFC
1000
1238
91C8
6110
2110
0110
01E8
0200
ENDCHAR
STARTCHAR 51B7
ENCODING 20919
SWIDTH 1020 0
DWIDTH 17 0
BBX 15 15 1 -2
BITMAP
0080
0100
4180
2240
2A20
1510
148C
180A
31E0
2640
A040
4180
0080
0040
0040
ENDCHAR
STARTCHAR 51B9
ENCODING 20921
SWIDTH 1020 0
DWIDTH 17 0
BBX 14 15 1 -2
BITMAP
0100
0080
00A0
2090
1100
0138
17C0
1110
1120
2320
24C0
2440
A8C0
4920
161C
ENDCHAR
STARTCHAR 51BC
ENCODING 20924
SWIDTH 1020 0
DWIDTH 17 0
BBX 14 15 1 -2
BITMAP
0080
0040
0280
6280
1270
1580
0C80
1880
1778
1140
2140
E248
2244
0444
083C
ENDCHAR
STARTCHAR 51BD
ENCODING 20925
SWIDTH 1020 0
DWIDTH 17 0
BBX 13 16 1 -3
BITMAP
0008
0008
8048
6F88
2228
12A8
13A8
14A8
2D28
2B28
B228
4208
0408
0428
0818
1008
ENDCHAR
STARTCHAR 51BE
ENCODING 20926
SWIDTH 1020 0
DWIDTH 17 0
BBX 14 15 2 -2
BITMAP
0100
0100
0100
4280
2240
2420
1410
1FEC
3000
24E0
2720
C420
4440
03E0
0400
ENDCHAR
STARTCHAR 51C4
ENCODING 20932
SWIDTH 1020 0
DWIDTH 17 0
BBX 14 16 1 -3
BITMAP
0080
0080
0090
67E8
1090
03F0
08FC
1790
10F0
1380
217C
EFA0
2240
01C0
01B0
0600
ENDCHAR
STARTCHAR 51C5
ENCODING 20933
SWIDTH 1020 0
DWIDTH 17 0
BBX 14 15 1 -3
BITMAP
0408
03FC
6448
1448
2458
1DA8
1588
14E8
1528
A528
64C8
2508
0478
0788
0400
ENDCHAR
STARTCHAR 51C6
ENCODING 20934
SWIDTH 1020 0
DWIDTH 17 0
BBX 14 15 1 -3
BITMAP
0140
0120
4220
3278
13C0
1E40
1BF8
2240
2240
A3F8
6240
4240
03FC
0200
0200
ENDCHAR
STARTCHAR 51C8
ENCODING 20936
SWIDTH 1020 0
DWIDTH 17 0
BBX 15 15 1 -2
BITMAP
0070
0790
64A0
12A0
0078
0B90
109E
17F0
1090
23E0
E080
2080
0280
0180
0080
ENDCHAR
STARTCHAR 51CA
ENCODING 20938
SWIDTH 1020 0
DWIDTH 17 0
BBX 14 14 1 -2
BITMAP
0080
0088
67F0
1070
0380
09FC
1600
11F0
1210
23F0
E250
2390
0250
0230
ENDCHAR
STARTCHAR 51CB
ENCODING 20939
SWIDTH 1020 0
DWIDTH 17 0
BBX 12 15 2 -3
BITMAP
0810
07F0
C490
2490
07F0
1890
2BF0
2A10
29D0
CA50
49D0
1210
1050
2030
0010
ENDCHAR
STARTCHAR 51CC
ENCODING 20940
SWIDTH 1020 0
DWIDTH 17 0
BBX 15 16 1 -3
BITMAP
0080
0080
0080
21F0
1280
08BC
1740
1230
1508
29E0
A240
65C0
40C0
0120
0618
1806
ENDCHAR
STARTCHAR 51CD
ENCODING 20941
SWIDTH 1020 0
DWIDTH 17 0
BBX 14 16 2 -3
BITMAP
0200
0100
0110
DFE0
4920
17E0
2920
2FC0
2940
4FA0
C380
C540
8920
311C
0100
0100
ENDCHAR
STARTCHAR 51CE
ENCODING 20942
SWIDTH 1020 0
DWIDTH 17 0
BBX 15 15 1 -2
BITMAP
0080
0080
0080
6140
1120
0220
0C10
17EC
1882
10F0
27A0
E2B0
22A0
0280
0FFC
ENDCHAR
STARTCHAR 51D0
ENCODING 20944
SWIDTH 1020 0
DWIDTH 17 0
BBX 14 13 2 -1
BITMAP
0010
8FE8
4280
2A70
1F90
2C70
2810
2FE0
4880
C080
C7F0
8080
1FFC
ENDCHAR
STARTCHAR 51D4
ENCODING 20948
SWIDTH 1020 0
DWIDTH 17 0
BBX 14 15 2 -2
BITMAP
0100
0100
0180
4240
2520
05D0
2BAC
2440
27C0
43E0
4400
8AE0
8B20
1220
13C0
ENDCHAR
STARTCHAR 51D7
ENCODING 20951
SWIDTH 1020 0
DWIDTH 17 0
BBX 13 16 2 -3
BITMAP
0100
0080
0890
8490
64F0
1300
1280
2450
2FE0
34B0
C7C0
C4B0
87C0
0488
0770
0400
ENDCHAR
STARTCHAR 51D8
ENCODING 20952
SWIDTH 1020 0
DWIDTH 17 0
BBX 14 15 1 -3
BITMAP
0900
0504
6558
2FE0
0540
175C
2570
2750
2550
47D0
DE50
0550
0990
1090
0010
ENDCHAR
STARTCHAR 51DC
ENCODING 20956
SWIDTH 1020 0
DWIDTH 17 0
BBX 15 16 1 -3
BITMAP
0100
0080
009C
4F70
23F8
2D70
15D0
15B0
13E8
1070
2788
AFF4
61A0
0298
0C86
1080
ENDCHAR
STARTCHAR 51DD
ENCODING 20957
SWIDTH 1020 0
DWIDTH 17 0
BBX 15 14 1 -2
BITMAP
0800
0978
4F10
2960
07A0
147C
28A8
2FA0
34E8
CFB4
56A0
05E0
0910
120E
ENDCHAR
STARTCHAR 51DE
ENCODING 20958
SWIDTH 1020 0
DWIDTH 17 0
BBX 13 14 2 -1
BITMAP
19A0
2EF0
6AA0
6BA0
2DA0
69D0
AE90
2A90
4B88
8C70
4040
4920
4910
8890
ENDCHAR
STARTCHAR 51E0
ENCODING 20960
SWIDTH 1020 0
DWIDTH 17 0
BBX 14 14 1 -2
BITMAP
1000
0980
0E80
0880
0880
0880
0880
0880
1080
1084
1084
2084
2084
C07C
ENDCHAR
STARTCHAR 51E1
ENCODING 20961
SWIDTH 1020 0
DWIDTH 17 0
BBX 14 14 2 -2
BITMAP
1080
0F80
0880
0880
0880
1880
1680
1280
1080
1080
2088
2088
4088
807C
ENDCHAR
STARTCHAR 51F0
ENCODING 20976
SWIDTH 1020 0
DWIDTH 17 0
BBX 15 15 1 -3
BITMAP
2030
1FE0
2220
2DA0
2AA0
27A0
28A0
2F60
23E0
2E10
2294
4714
422C
9DC4
8002
ENDCHAR
STARTCHAR 51F1
ENCODING 20977
SWIDTH 1020 0
DWIDTH 17 0
BBX 15 15 1 -3
BITMAP
1400
5310
52F0
5490
6C90
06A0
78A0
5D20
6520
3F20
2524
1922
1622
E412
080C
ENDCHAR
STARTCHAR 51F3
ENCODING 20979
SWIDTH 1020 0
DWIDTH 17 0
BBX 13 14 2 -2
BITMAP
0A40
3DA0
48C0
2F80
3140
5F30
8F88
0A00
1FE0
7100
0F00
1210
1210
E1F0
ENDCHAR
STARTCHAR 51F5
ENCODING 20981
SWIDTH 1020 0
DWIDTH 17 0
BBX 11 9 3 0
BITMAP
0020
8020
8020
8040
8040
8040
8040
8040
FFC0
ENDCHAR
STARTCHAR 51F6
ENCODING 20982
SWIDTH 1020 0
DWIDTH 17 0
BBX 11 13 3 -1
BITMAP
0100
0100
2100
2200
1220
8A20
8420
8A20
8920
9120
E020
80E0
FF40
ENDCHAR
STARTCHAR 51F8
ENCODING 20984
SWIDTH 1020 0
DWIDTH 17 0
BBX 11 14 3 -2
BITMAP
2100
1F00
2100
2200
2200
A200
B1E0
C020
8020
8020
8040
8040
9FC0
E040
ENDCHAR
STARTCHAR 51F9
ENCODING 20985
SWIDTH 1020 0
DWIDTH 17 0
BBX 11 11 3 -1
BITMAP
92E0
FB20
9220
9220
9220
8F20
8020
8020
8020
87E0
F820
ENDCHAR
STARTCHAR 51FA
ENCODING 20986
SWIDTH 1020 0
DWIDTH 17 0
BBX 11 15 3 -2
BITMAP
0800
0400
0400
4440
4440
4440
4440
4F80
3480
8420
C420
8440
8440
8440
7BC0
ENDCHAR
STARTCHAR 51FD
ENCODING 20989
SWIDTH 1020 0
DWIDTH 17 0
BBX 11 13 3 -2
BITMAP
0780
7900
0A00
84A0
A4A0
9720
8620
9DA0
E4A0
9420
8C20
80E0
FF20
ENDCHAR
STARTCHAR 5200
ENCODING 20992
SWIDTH 1020 0
DWIDTH 17 0
BBX 12 13 2 -2
BITMAP
0070
7FA0
0420
0420
0420
0420
0820
0820
1040
1040
2140
40C0
8040
ENDCHAR
STARTCHAR 5201
ENCODING 20993
SWIDTH 1020 0
DWIDTH 17 0
BBX 11 14 3 -2
BITMAP
0040
0FE0
7040
0040
0040
0640
0840
3040
C040
0080
0080
0480
0280
0180
ENDCHAR
STARTCHAR 5202
ENCODING 20994
SWIDTH 1020 0
DWIDTH 17 0
BBX 5 14 6 -3
BITMAP
08
10
90
90
90
90
90
90
90
90
10
10
50
30
ENDCHAR
STARTCHAR 5203
ENCODING 20995
SWIDTH 1020 0
DWIDTH 17 0
BBX 12 13 2 -2
BITMAP
0010
1FF0
2210
0220
2420
1420
0C20
0820
0820
1040
1140
20C0
C040
ENDCHAR
STARTCHAR 5206
ENCODING 20998
SWIDTH 1020 0
DWIDTH 17 0
BBX 15 15 1 -3
BITMAP
0180
0880
0440
0840
1020
2050
23E8
5C4E
8440
0440
0880
0A80
1180
2180
4100
ENDCHAR
ENDFONT
